<?xml version="1.0" standalone="no"?>
<!DOCTYPE svg PUBLIC "-//W3C//DTD SVG 1.1//EN" "http://www.w3.org/Graphics/SVG/1.1/DTD/svg11.dtd" >
<svg xmlns="http://www.w3.org/2000/svg" xmlns:xlink="http://www.w3.org/1999/xlink" version="1.1">
<metadata></metadata>
<defs>
<font id="frames_part_onelight" horiz-adv-x="600" >
<font-face units-per-em="1000" ascent="800" descent="-200" />
<missing-glyph horiz-adv-x="500" />
<glyph unicode="ff" d="M477 700q71 0 122 -64.5t51 -184.5h-30q0 117 -39 173.5t-104 56.5q-50 0 -90 -31q63 -68 63 -199h-30q0 128 -48 186q-62 -60 -62 -186h-10q0 128 63 196q-35 34 -86 34q-69 0 -118 -58t-49 -172h-10q0 119 52.5 184t124.5 65q55 0 99 -39q45 39 101 39zM100 431h10 l20 -431h-30v431zM574 360v-10l-244 -20v16l-16 -1l16 -345h-30v344l-20 -2v-12l-52 8l-98 -8v30h170v71h10l3 -71h261zM-50 350v10h130v-30z" />
<glyph unicode="ij" d="M355 610v-10l-100 -20v30h100zM550 610v-10l-100 -20v30h100zM280 470l-230 20v10h230v-30zM300 0v500h30l-20 -500h-10zM485 0v500h30l-20 -500h-10zM280 0h-230v10l230 20v-30zM50 -20q0 -89 66 -138t158 -49q91 0 156 49t65 138h-10q0 -83 -61 -125.5t-150 -42.5 q-87 0 -140.5 41.5t-53.5 126.5h-30z" />
<glyph unicode="lj" d="M280 690l-230 -20v30h230v-10zM300 0v700h30l-20 -700h-10zM595 610v-10l-100 -20v30h100zM540 0v500h30l-20 -500h-10zM280 0h-230v10l230 20v-30zM95 -20q0 -88 68 -137.5t161 -49.5q92 0 159 49.5t67 137.5h-10q0 -83 -63.5 -125.5t-152.5 -42.5q-88 0 -143.5 41.5 t-55.5 126.5h-30z" />
<glyph unicode="l&#x2018;" d="M280 690l-230 -20v30h230v-10zM300 0v700h30l-20 -700h-10zM474 509l126 191h-30l-106 -191h10zM280 0h-230v10l230 20v-30zM550 0h-220v30l220 -20v-10z" />
<glyph unicode="l&#x2019;" d="M280 690l-230 -20v30h230v-10zM300 0v700h30l-20 -700h-10zM474 509l126 191h-30l-106 -191h10zM280 0h-230v10l230 20v-30zM550 0h-220v30l220 -20v-10z" />
<glyph unicode="l&#x27;" d="M280 690l-230 -20v30h230v-10zM300 0v700h30l-20 -700h-10zM474 509l126 191h-30l-106 -191h10zM280 0h-230v10l230 20v-30zM550 0h-220v30l220 -20v-10z" />
<glyph unicode="oo" d="M223 490q-68 -1 -115.5 -58.5t-47.5 -171.5h-10q0 120 51 184t122 65q40 0 76 -21q35 21 74 21q72 1 124.5 -64.5t52.5 -184.5h-30q0 117 -40.5 174t-106.5 56q-32 0 -58 -13q85 -64 85 -217h-30q0 155 -73 208q-87 -54 -87 -208h-10q0 151 83 217q-27 13 -60 13zM373 10 q69 0 118 58t49 172h10q0 -119 -52.5 -184t-124.5 -65q-39 0 -75 21q-34 -21 -75 -21q-71 0 -122 64.5t-51 184.5h30q0 -117 39 -173.5t104 -56.5q33 0 60 13q-83 64 -83 217h30q0 -155 71 -208q89 56 89 208h10q0 -151 -85 -217q26 -13 58 -13z" />
<glyph unicode="ss" d="M440 522q82 0 146 -53.5t64 -145.5h-30q0 80 -56 132t-124 52q-38 0 -75 -22q85 -57 85 -162h-30q0 92 -75 148l-6 -5q-48 -45 -30.5 -95.5t94.5 -99.5l-20 -21q-180 119 -59 231l2 2q-40 24 -86 24q-56 0 -101 -41q-48 -45 -30.5 -95.5t94.5 -99.5l-20 -21 q-180 119 -59 231q44 41 116 41q54 0 104 -25q41 25 96 25zM406 245q44 -29 67.5 -49t39 -45.5t8 -53.5t-36.5 -63q-44 -53 -127 -53q-55 0 -104 26q-39 -26 -96 -26q-81 0 -144 54t-63 146h30q0 -81 55.5 -135t121.5 -52q39 2 76 26q-83 57 -83 161h30q0 -92 71 -149 q4 3 17 16q27 31 34 56t-8 48.5t-35.5 41.5t-59.5 44l7 7q44 -29 67.5 -49t39 -45.5t8 -53.5t-36.5 -63q-4 -5 -14 -15q42 -26 87 -25q28 1 60 17t51 37q27 31 34 56t-8 48.5t-35.5 41.5t-59.5 44z" />
<glyph unicode="xs" d="M323 266l-7 8l154 175q-55 58 -130 58q-56 0 -101 -41q-52 -47 -27 -103l76 -82l15 -10l-3 -3l49 -52q56 -42 68 -73l133 -143h-14l-114 117q2 -36 -38 -83q-44 -53 -127 -53q-82 0 -143 53l-30 -34h-34l48 50q-48 53 -48 131h30q0 -63 37 -113l160 165l7 -7l-154 -174 q55 -60 127 -58q28 1 60 17t51 37q46 51 32 92l-84 87q-2 1 -17 11l3 3l-14 14l-5 -5q-88 58 -103 116l-130 134h34l93 -100q4 41 47 81q44 41 116 41q86 0 147 -55l29 33h34l-47 -49q47 -52 47 -128h-30q0 62 -36 109z" />
<glyph unicode="&#x2e;&#x2e;&#x2e;" d="M198 1q-12 0 -20.5 8.5t-8.5 21.5q0 12 9 21t20 9t20 -9t9 -21q0 -13 -8.5 -21.5t-20.5 -8.5zM300 1q-12 0 -20.5 8.5t-8.5 21.5q0 12 9 21t20 9t20 -9t9 -21q0 -13 -8.5 -21.5t-20.5 -8.5zM400 1q-12 0 -20.5 8.5t-8.5 21.5q0 12 9 21t20 9t20 -9t9 -21 q0 -13 -8.5 -21.5t-20.5 -8.5z" />
<glyph unicode="&#x27;s" d="M10 434l126 191h-30l-106 -191h10zM283 250q-180 119 -59 231q44 41 116 41q82 0 146 -53.5t64 -145.5h-30q0 80 -56 132t-124 52q-56 0 -101 -41q-48 -45 -30.5 -95.5t94.5 -99.5zM306 245q44 -29 67.5 -49t39 -45.5t8 -53.5t-36.5 -63q-44 -53 -127 -53q-81 0 -144 54 t-63 146h30q0 -81 55.5 -135t121.5 -52q28 1 60 17t51 37q27 31 34 56t-8 48.5t-35.5 41.5t-59.5 44z" />
<glyph horiz-adv-x="0" />
<glyph horiz-adv-x="333" />
<glyph unicode=" " />
<glyph unicode="!" d="M295 625h30l-20 -515h-10v515zM300 1q-12 0 -20.5 8.5t-8.5 21.5q0 12 9 21t20 9t20 -9t9 -21q0 -13 -8.5 -21.5t-20.5 -8.5z" />
<glyph unicode="&#x22;" d="M216 384l20 241h-24v-241h4zM412 384v241h-6l-20 -241h26z" />
<glyph unicode="#" d="M550 700l-46 -170h46v-30l-54 2l-78 -289l82 -3v-10h-86l-54 -200h-30l60 200h-270l-60 -200h-10l54 200h-104v30l111 -4l79 288l-140 6v10h144l46 170h30l-51 -170h270l51 170h10zM394 214l87 289l-267 10l-87 -288z" />
<glyph unicode="'" d="M252 509l126 191h-30l-106 -191h10z" />
<glyph unicode="(" d="M453 -60v10q-36 0 -83.5 26.5t-93.5 72t-77.5 120t-31.5 158.5t31.5 154.5t78 112t93 64t83.5 22.5v30q-30 0 -69.5 -16t-81 -49.5t-76 -78t-57 -107.5t-22.5 -132q0 -86 34 -162t83 -123.5t100 -74.5t89 -27z" />
<glyph unicode=")" d="M147 -60q38 0 89 27t100 74.5t83 123.5t34 162q0 69 -22.5 132t-57 107.5t-76 78t-81 49.5t-69.5 16v-10q36 0 83.5 -26t93.5 -71t77.5 -118.5t31.5 -157.5q0 -68 -21 -128t-53.5 -101t-71.5 -70.5t-75.5 -43.5t-64.5 -14v-30z" />
<glyph unicode="," d="M252 -100l126 191h-30l-106 -191h10z" />
<glyph unicode="-" d="M550 280l-500 -20v-10h500v30z" />
<glyph unicode="." d="M300 1q-12 0 -20.5 8.5t-8.5 21.5q0 12 9 21t20 9t20 -9t9 -21q0 -13 -8.5 -21.5t-20.5 -8.5z" />
<glyph unicode="/" d="M0 0l470 700h30l-490 -700h-10z" />
<glyph unicode="0" d="M50 386h30q0 101 64 164.5t157 64.5q94 1 166.5 -63.5t72.5 -165.5h10q0 106 -76 177.5t-173 71.5t-174 -72t-77 -177zM50 366h30l-20 -107h-10v107zM540 366h10v-107h-30zM50 239q0 -105 77 -177t174 -72t173 71.5t76 177.5h-30q0 -103 -63.5 -166.5t-155.5 -62.5 q-95 1 -168 65.5t-73 163.5h-10z" />
<glyph unicode="1" d="M50 366v30q91 0 145.5 58t54.5 171h10q0 -120 -58 -189.5t-152 -69.5zM300 0l-20 625h30v-625h-10zM280 0h-230v10l230 20v-30zM550 0h-220v30l220 -20v-10z" />
<glyph unicode="2" d="M480 451q0 87 -64 135.5t-151 48.5q-91 0 -153 -58.5t-62 -185.5h30q0 123 49.5 173.5t135.5 50.5q85 0 145 -41.5t60 -122.5h10zM53 34q64 66 202 199.5t202 199.5h13l-384 -399h-33zM550 0h-500v10l500 20v-30z" />
<glyph unicode="3" d="M265 615q-185 0 -185 -194h-30q0 107 63 160.5t152 53.5q87 0 151 -48.5t64 -135.5h-10q0 81 -60 122.5t-145 41.5zM476 439q-17 -43 -62 -73.5t-113 -40.5q74 -13 118.5 -49.5t56.5 -84.5h-29q-36 129 -216 129v10h6q160 0 209 109h30zM265 10q85 0 145 41.5t60 122.5 h10q0 -87 -64 -135.5t-151 -48.5q-89 0 -152 53.5t-63 160.5h30q0 -194 185 -194z" />
<glyph unicode="4" d="M380 583l-330 -374v16l330 400v-42zM400 0v625h10l20 -625h-30zM380 209h-300v30l300 -20v-10zM550 189l-110 20v10h110v-30z" />
<glyph unicode="5" d="M100 360l20 265h10v-265h-30zM550 625v-30l-392 20v10h392zM281 370v-30l-123 20v10h123zM476 221q-13 66 -66.5 107.5t-108.5 41.5v-30q54 0 103.5 -29t62.5 -90h9zM480 194h-10q0 -95 -59.5 -139.5t-145.5 -44.5q-83 0 -134 40.5t-51 123.5h-30q0 -87 64 -135.5 t151 -48.5q89 0 152 52t63 152z" />
<glyph unicode="6" d="M65 306h10q0 77 24 138t63.5 97t85.5 55t95 19q158 0 162 -169h30q0 91 -54.5 140.5t-134.5 49.5q-50 0 -99 -21t-90 -60.5t-66.5 -104.5t-25.5 -144zM65 199h10q0 76 53 122.5t122 46.5q68 0 111.5 -45.5t43.5 -123.5h30q0 82 -56.5 135.5t-128.5 53.5q-73 0 -129 -54 t-56 -135zM65 179q0 -81 56 -135t129 -54q72 0 128.5 53.5t56.5 135.5h-10q0 -76 -52.5 -122.5t-122.5 -46.5q-67 0 -111 45.5t-44 123.5h-30z" />
<glyph unicode="7" d="M550 625l-195 -300h157v-30l-172 7l-197 -302h-33l207 303l-267 12v10h282l205 300h13zM512 625v-10l-462 -20v30h462z" />
<glyph unicode="8" d="M71 482q0 67 59 110t161 43v-30q-197 0 -200 -123q-2 -64 50.5 -102.5t149.5 -39.5v-30q-44 0 -83 11q-73 -16 -109 -59.5t-38 -96.5q-2 -68 56.5 -116t173.5 -49v-10q-120 0 -185 51.5t-65 123.5q0 53 38.5 98t110.5 65q-56 21 -87.5 63t-31.5 91zM376 335 q89 -14 136.5 -62t47.5 -108q0 -72 -65 -123.5t-184 -51.5v30q117 1 173.5 40t56.5 105q0 68 -58 116.5t-172 48.5v30q200 2 200 122q0 64 -51.5 103.5t-148.5 39.5v10q102 0 160.5 -43t58.5 -110q0 -56 -40.5 -95t-113.5 -52z" />
<glyph unicode="9" d="M535 446q0 81 -56 135t-129 54q-72 0 -128.5 -53.5t-56.5 -135.5h10q0 76 52.5 122.5t122.5 46.5q67 0 111 -45.5t44 -123.5h30zM535 426h-10q0 -76 -53 -122.5t-122 -46.5q-68 0 -111.5 45.5t-43.5 123.5h-30q0 -82 56.5 -135.5t128.5 -53.5q73 0 129 54t56 135z M535 319h-10q0 -77 -24 -138t-63.5 -97t-85.5 -55t-95 -19q-158 0 -162 169h-30q0 -91 54.5 -140.5t134.5 -49.5q50 0 99 21t90 60.5t66.5 104.5t25.5 144z" />
<glyph unicode=":" d="M300 440q-12 0 -20.5 9t-8.5 21t9 21t20 9t20 -9t9 -21t-8.5 -21t-20.5 -9zM300 1q-12 0 -20.5 8.5t-8.5 21.5q0 12 9 21t20 9t20 -9t9 -21q0 -13 -8.5 -21.5t-20.5 -8.5z" />
<glyph unicode=";" d="M300 440q-12 0 -20.5 9t-8.5 21t9 21t20 9t20 -9t9 -21t-8.5 -21t-20.5 -9zM252 -100l126 191h-30l-106 -191h10z" />
<glyph unicode="?" d="M515 451q0 87 -64 135.5t-151 48.5q-91 0 -153 -58.5t-62 -185.5h30q0 123 49.5 173.5t135.5 50.5q85 0 145 -41.5t60 -122.5h10zM262 193q64 66 115 119.5t115 120.5h13l-210 -240h-33zM275 0q-7 0 -12 5.5t-5 12.5t5 12t12 5t12 -5t5 -12t-5 -12.5t-12 -5.5z" />
<glyph unicode="A" d="M50 0l212 625h30l-232 -625h-10zM550 0h-30l-213 625h10zM414 265h-230v30l230 -20v-10z" />
<glyph unicode="B" d="M50 0v625h10l20 -625h-30zM241 595l-161 20v10h161v-30zM261 255q81 0 135 56t54 129q0 72 -53.5 128.5t-135.5 56.5v-10q70 0 119.5 -53.5t49.5 -121.5q0 -65 -48.5 -109.5t-120.5 -45.5v-30zM440 342q45 -22 67.5 -64t22.5 -93q0 -65 -48.5 -109.5t-120.5 -45.5v-30 q81 0 135 56t54 129q0 51 -28.5 96.5t-76.5 69.5zM241 255v10l-161 20v-30h161zM341 0h-241v30l241 -20v-10z" />
<glyph unicode="C" d="M50 386q0 105 77 177t174 72t173 -71.5t76 -177.5h-10q0 101 -72.5 165.5t-166.5 63.5q-93 -1 -157 -64.5t-64 -164.5h-30zM50 259v107h30l-20 -107h-10zM301 -10q-97 0 -174 72t-77 177h10q0 -99 73 -163.5t168 -65.5q92 -1 155.5 62.5t63.5 166.5h30q0 -106 -76 -177.5 t-173 -71.5z" />
<glyph unicode="D" d="M50 0v625h10l20 -625h-30zM246 615l-166 -20v30h166v-10zM266 625v-10q127 0 195 -88.5t69 -212.5q1 -123 -66 -203.5t-198 -80.5v-30q92 0 158.5 46.5t96.5 116.5t29 151q-2 126 -77 218.5t-207 92.5zM246 0h-146v30l146 -20v-10z" />
<glyph unicode="E" d="M50 625h30l-20 -625h-10v625zM550 625v-30l-450 20v10h450zM450 317v-10h-370v30zM550 30v-30h-470v10z" />
<glyph unicode="F" d="M50 625h30l-20 -625h-10v625zM550 625v-30l-450 20v10h450zM550 267v-10h-470v30z" />
<glyph unicode="G" d="M400 385q0 119 -52.5 184.5t-124.5 64.5q-71 -1 -122 -65t-51 -184h10q-1 114 46.5 171.5t116.5 58.5q66 1 106.5 -56t40.5 -174h30zM50 365h30l-20 -105h-10v105zM230 246v30h290v-10zM550 0h-30l20 276h10v-276zM400 240h-30q0 -116 -40.5 -173t-106.5 -57 q-68 0 -115.5 58t-47.5 172h-10q0 -120 51 -184.5t122 -64.5q72 0 124.5 65t52.5 184z" />
<glyph unicode="H" d="M50 0v625h30l-20 -625h-10zM520 0l20 625h10v-625h-30zM510 308l-420 -20v30h420v-10z" />
<glyph unicode="I" d="M260 625v-10l-210 -20v30h210zM280 625h30v-625h-10zM550 625v-30l-220 20v10h220zM280 10v-10h-230v30zM550 30v-30h-220v10z" />
<glyph unicode="J" d="M350 625v-10l-300 -20v30h300zM370 625h30v-365h-10zM550 625v-30l-130 20v10h130zM400 240h-10q0 -114 -49 -172t-118 -58q-66 0 -105.5 57t-37.5 173h-30q0 -120 51 -184.5t122 -64.5q72 0 124.5 65t52.5 184z" />
<glyph unicode="K" d="M50 625h10l20 -625h-30v625zM86 304l-6 9l445 312l25 -9zM196 349l354 -342l-7 -7l-374 342z" />
<glyph unicode="L" d="M50 625h30l-20 -625h-10v625zM550 30v-30h-470v10z" />
<glyph unicode="M" d="M50 0v625h10l20 -625h-30zM290 0h-10l-180 625h30zM310 0l180 625h10l-160 -625h-30zM550 0h-10l-20 625h30v-625z" />
<glyph unicode="N" d="M50 0v625h10l20 -625h-30zM175 595l-95 20v10h95v-30zM375 0l-180 625h10l200 -625h-30zM540 0l-20 625h30v-625h-10zM520 0h-95v10l95 20v-30z" />
<glyph unicode="O" d="M50 386h30q0 101 64 164.5t157 64.5q94 1 166.5 -63.5t72.5 -165.5h10q0 106 -76 177.5t-173 71.5t-174 -72t-77 -177zM50 366h30l-20 -107h-10v107zM540 366h10v-107h-30zM50 239q0 -105 77 -177t174 -72t173 71.5t76 177.5h-30q0 -103 -63.5 -166.5t-155.5 -62.5 q-95 1 -168 65.5t-73 163.5h-10z" />
<glyph unicode="P" d="M50 0v625h10l20 -625h-30zM341 595l-261 20v10h261v-30zM361 255q81 0 135 56t54 129q0 72 -53.5 128.5t-135.5 56.5v-10q76 0 122.5 -52.5t46.5 -122.5q0 -67 -45.5 -110.5t-123.5 -44.5v-30zM341 255h-251v30l251 -20v-10z" />
<glyph unicode="Q" d="M301 615q-93 -1 -157 -64.5t-64 -164.5h-30q0 105 77 177t174 72t173 -71.5t76 -177.5h-10q0 101 -72.5 165.5t-166.5 63.5zM80 366l-20 -107h-10v107h30zM520 259l20 107h10v-107h-30zM520 239h30q0 -87 -55 -155l55 -84h-35l-36 66q-76 -76 -178 -76q-97 0 -174 72 t-77 177h10q0 -99 73 -163.5t168 -65.5q102 -2 167 75l-110 198h7l117 -179q38 57 38 135z" />
<glyph unicode="R" d="M70 0v625h10l20 -625h-30zM261 595l-161 20v10h161v-30zM281 255q81 0 135 56t54 129q0 72 -53.5 128.5t-135.5 56.5v-10q76 0 122.5 -52.5t46.5 -122.5q0 -67 -45.5 -110.5t-123.5 -44.5v-30zM261 255h-151v30l151 -20v-10zM536 0h34l-212 251l-7 -6z" />
<glyph unicode="S" d="M239 297v30q-77 1 -124 40.5t-47 91.5q0 57 48 107t123 49v10q-89 0 -139 -49.5t-50 -116.5q0 -66 50 -114t139 -48zM259 615v10h163v-30zM259 297v30l82 -20v-10h-82zM361 0q91 0 140.5 48t48.5 115q-1 64 -50 104t-139 40v-10q76 1 123.5 -39t47.5 -93t-47 -93.5 t-124 -41.5v-30zM341 0h-190v10l190 20v-30z" />
<glyph unicode="T" d="M280 625v-10l-230 -20v30h230zM300 625l-20 -625h30v625h-10zM550 625v-30l-220 20v10h220z" />
<glyph unicode="U" d="M50 625h30l-20 -370h-10v370zM540 625h10v-370h-30zM50 235q0 -115 74.5 -180t175.5 -65q102 0 176 64.5t74 180.5h-10q0 -111 -70.5 -168t-169.5 -57q-95 0 -157.5 57t-62.5 168h-30z" />
<glyph unicode="V" d="M50 625h10l232 -625h-30zM550 625l-233 -625h-10l213 625h30z" />
<glyph unicode="W" d="M50 625h30l80 -625h-10zM290 625l-80 -625h-30l100 625h10zM310 625h30l80 -625h-10zM550 625l-80 -625h-30l100 625h10z" />
<glyph unicode="X" d="M50 0l467 625h33l-487 -625h-13zM278 333l-228 292h33l201 -284zM323 291l227 -291h-33l-200 283z" />
<glyph unicode="Y" d="M50 0l467 625h33l-487 -625h-13zM278 333l-228 292h33l201 -284z" />
<glyph unicode="Z" d="M50 0l487 625h13l-467 -625h-33zM511 615l-461 -20v30h461v-10zM550 0h-442v10l442 20v-30z" />
<glyph unicode="[" d="M79 -100h-29v800h9zM99 690v10h451v-30zM109 -100v10l441 20v-30h-441z" />
<glyph unicode="\" d="M500 0h-30l-470 700h13z" />
<glyph unicode="]" d="M481 690l-431 -20v30h431v-10zM541 -100l-20 800h29v-800h-9zM511 -100h-461v30l461 -20v-10z" />
<glyph unicode="_" d="M500 30l-500 -20v-10h500v30z" />
<glyph unicode="`" d="M180 740l-6 -28l252 -144l5 9z" />
<glyph unicode="a" d="M410 500h-360v-30l360 20v10zM430 0h30l-20 500h-10v-500zM420 199q0 81 -56 135t-129 54q-72 0 -128.5 -53.5t-56.5 -135.5h30q0 78 43.5 123.5t111.5 45.5q69 0 122 -46.5t53 -122.5h10zM420 179h-10q0 -77 -53.5 -128t-121.5 -51q-67 0 -111 50t-44 129h-30 q0 -82 56.5 -135.5t128.5 -53.5q73 0 129 54t56 135zM550 10l-80 20v-30h80v10z" />
<glyph unicode="b" d="M150 670l-100 20v10h100v-30zM170 0v700h30l-20 -700h-10zM200 260h10q0 114 49 172.5t118 57.5q65 -1 104 -57t39 -173h30q0 120 -51 184t-122 65q-72 1 -124.5 -64.5t-52.5 -184.5zM200 240q0 -119 52.5 -184t124.5 -65q71 0 122 64.5t51 184.5h-10q0 -114 -47.5 -172 t-115.5 -58q-66 0 -106.5 57t-40.5 173h-30zM150 0h-100v10l100 20v-30z" />
<glyph unicode="c" d="M543 320q-21 84 -90.5 137t-151.5 53q-97 0 -174 -72t-77 -177h30q0 95 65 161.5t156 67.5q79 1 145 -45.5t86 -124.5h11zM520 185q-18 -82 -78.5 -129t-140.5 -46q-93 1 -167 68.5t-74 160.5h-10q0 -105 77 -177t174 -72q84 0 157 55t92 140h-30z" />
<glyph unicode="d" d="M430 0h-30l20 700h10v-700zM400 260q0 119 -52.5 184.5t-124.5 64.5q-71 -1 -122 -65t-51 -184h10q0 114 47.5 171.5t115.5 58.5q66 1 106.5 -56t40.5 -174h30zM400 240h-10q0 -114 -49 -172t-118 -58q-65 0 -104 56.5t-39 173.5h-30q0 -120 51 -184.5t122 -64.5 q72 0 124.5 65t52.5 184zM450 0v30l100 -20v-10h-100z" />
<glyph unicode="e" d="M130 321h10q0 76 53 122.5t122 46.5q68 0 111.5 -45.5t43.5 -123.5h30q0 82 -56.5 135.5t-128.5 53.5q-73 0 -129 -54t-56 -135zM130 301q0 -81 56 -135t129 -54q72 0 128.5 53.5t56.5 135.5h-30q0 -78 -43.5 -123.5t-111.5 -45.5q-69 0 -122 46.5t-53 122.5h-10zM90 0 l20 291h-30v-291h10zM110 0h470v30l-470 -20v-10z" />
<glyph unicode="f" d="M200 451h10q0 114 49 172t118 58q65 0 104 -56.5t39 -173.5h30q0 120 -51 184.5t-122 64.5q-72 0 -124.5 -65t-52.5 -184zM210 431l20 -431h-30v431h10zM50 360h130v-30l-130 20v10zM230 360h244v-10l-244 -20v30z" />
<glyph unicode="g" d="M480 321q0 81 -56 135t-129 54q-72 0 -128.5 -53.5t-56.5 -135.5h30q0 78 43.5 123.5t111.5 45.5q69 0 122 -46.5t53 -122.5h10zM493 500l-34 -54l7 -7l54 54zM480 301h-30q0 -78 -44 -123.5t-111 -45.5q-70 0 -122.5 46.5t-52.5 122.5h-10q0 -82 56.5 -135.5 t128.5 -53.5q73 0 129 54t56 135zM163 140l-97 -77l27 -7l77 77zM367 50h-259v-10l259 -20v30zM357 -210v30q173 0 173 100q0 48 -38.5 84t-104.5 36v10q71 0 117 -39.5t46 -90.5q0 -53 -51 -91.5t-142 -38.5zM243 -200h94v-10h-94q-91 0 -142 38.5t-51 91.5v3h30v-3 q0 -51 39 -85.5t124 -34.5z" />
<glyph unicode="h" d="M50 700h30l-20 -700h-10v700zM550 321h-10q0 70 -54 119.5t-121 49.5q-60 0 -107.5 -49.5t-47.5 -119.5h-30q0 82 56.5 135.5t128.5 53.5q73 0 129 -54t56 -135zM180 301h30l-20 -301h-10v301zM540 301l-20 -301h30v301h-10zM160 10v-10h-80v30z" />
<glyph unicode="i" d="M355 610v-10l-100 -20v30h100zM280 470l-230 20v10h230v-30zM300 0v500h30l-20 -500h-10zM280 0h-230v10l230 20v-30zM550 0h-220v30l220 -20v-10z" />
<glyph unicode="j" d="M550 610v-10l-100 -20v30h100zM475 470l-425 20v10h425v-30zM495 0v500h30l-20 -500h-10zM50 -20q0 -89 68.5 -138.5t160.5 -48.5q92 0 159 49.5t67 137.5h-10q0 -83 -63 -125t-153 -43q-88 0 -143.5 41.5t-55.5 126.5h-30z" />
<glyph unicode="k" d="M180 670l-130 20v10h130v-30zM200 0v700h30l-20 -700h-10zM522 482l-280 -224l-7 8l271 234zM544 -4l-306 227l17 18l295 -237zM180 0h-130v10l130 20v-30z" />
<glyph unicode="l" d="M280 690l-230 -20v30h230v-10zM300 0v700h30l-20 -700h-10zM280 0h-230v10l230 20v-30zM550 0h-220v30l220 -20v-10z" />
<glyph unicode="m" d="M300 500h10l20 -183h-30q0 86 -35 129.5t-85 43.5q-100 0 -100 -173h-30q0 91 38.5 142t91.5 51q39 0 72 -29t48 -84v103zM80 500l-20 -72h-10v72h30zM520 500v-10l-190 -20v30h190zM540 500h10v-500h-30zM50 297h10l20 -297h-30v297zM300 0v297h30l-20 -297h-10z" />
<glyph unicode="n" d="M515 321h-10q0 70 -54 119.5t-121 49.5q-66 0 -110.5 -48.5t-44.5 -120.5h-30q0 82 56.5 135.5t128.5 53.5q73 0 129 -54t56 -135zM85 500h30l-20 -500h-10v500zM485 0l20 301h10v-301h-30zM115 0v30l70 -20v-10h-70z" />
<glyph unicode="o" d="M50 261h30q0 95 65 161.5t156 67.5q92 1 165.5 -66t73.5 -163h10q0 106 -76 177.5t-173 71.5t-174 -72t-77 -177zM50 239q0 -105 77 -177t174 -72t173 71.5t76 177.5h-30q0 -97 -64.5 -163.5t-154.5 -65.5q-93 1 -167 68.5t-74 160.5h-10z" />
<glyph unicode="p" d="M200 260h10q0 114 49 172t118 58q65 0 104 -56.5t39 -173.5h30q0 120 -51 184.5t-122 64.5q-72 0 -124.5 -65t-52.5 -184zM150 500v-30l-100 20v10h100zM170 500h10l20 -700h-30v700zM200 240q0 -119 52.5 -184.5t124.5 -64.5q71 1 122 65t51 184h-10 q0 -114 -47.5 -171.5t-115.5 -58.5q-66 -1 -106.5 56t-40.5 174h-30zM150 -170v-30h-100v10z" />
<glyph unicode="q" d="M400 260q0 119 -52.5 184t-124.5 65q-71 0 -122 -64.5t-51 -184.5h10q0 114 47.5 172t115.5 58q66 0 106.5 -57t40.5 -173h30zM430 500v-700h-10l-20 700h30zM450 500h100v-10l-100 -20v30zM400 240h-10q0 -114 -49 -172.5t-118 -57.5q-65 1 -104 57t-39 173h-30 q0 -120 51 -184t122 -65q72 -1 124.5 64.5t52.5 184.5zM450 -170l100 -20v-10h-100v30z" />
<glyph unicode="r" d="M550 321h-30q0 72 -45 120.5t-110 48.5q-68 0 -121.5 -49.5t-53.5 -119.5h-10q0 82 56.5 135.5t128.5 53.5q73 0 129 -54t56 -135zM50 500h30l-20 -500h-10v500zM180 301h30l-20 -301h-10v301zM160 30v-30h-80v10z" />
<glyph unicode="s" d="M283 250q-180 119 -59 231q44 41 116 41q82 0 146 -53.5t64 -145.5h-30q0 80 -56 132t-124 52q-56 0 -101 -41q-48 -45 -30.5 -95.5t94.5 -99.5zM306 245q44 -29 67.5 -49t39 -45.5t8 -53.5t-36.5 -63q-44 -53 -127 -53q-81 0 -144 54t-63 146h30q0 -81 55.5 -135 t121.5 -52q28 1 60 17t51 37q27 31 34 56t-8 48.5t-35.5 41.5t-59.5 44z" />
<glyph unicode="t" d="M122 201l178 499h30l-198 -499h-10zM210 490l-160 -20v30h160v-10zM550 470l-290 20v10h290v-30zM550 179h-10q0 -69 -60.5 -119t-129.5 -50q-87 0 -138.5 47.5t-51.5 121.5h-30q0 -83 63.5 -136t156.5 -53q74 0 137 54.5t63 134.5z" />
<glyph unicode="u" d="M80 199l20 301h-30v-301h10zM440 199h-30l20 301h10v-301zM70 179q0 -81 56 -135t129 -54q72 0 128.5 53.5t56.5 135.5h-10q0 -76 -52.5 -122.5t-122.5 -46.5q-67 0 -111 45.5t-44 123.5h-30zM430 80l-20 -80h30v80h-10zM460 0v30l110 -20v-10h-110z" />
<glyph unicode="v" d="M280 0l-230 500h30l210 -500h-10zM310 0l230 500h10l-210 -500h-30z" />
<glyph unicode="w" d="M161 0l-111 500h30l91 -500h-10zM191 0l89 500h10l-69 -500h-30zM399 0l-89 500h30l69 -500h-10zM429 0l111 500h10l-91 -500h-30z" />
<glyph unicode="x" d="M536 0l-486 500h34l466 -500h-14zM316 274l200 226h34l-227 -234zM284 226l-200 -226h-34l227 233z" />
<glyph unicode="y" d="M280 0l-230 500h30l210 -500h-10zM198 -200l342 700h10l-322 -700h-30z" />
<glyph unicode="z" d="M550 500h-500v-30l500 20v10zM525 474l-8 7l-221 -207l27 -8zM520 255h-420v-30l420 20v10zM75 25l27 -7l182 208l-7 7zM520 30l-470 -20v-10h470v30z" />
<glyph unicode="{" d="M453 780q-37 0 -83.5 -22.5t-93 -64t-78 -112t-31.5 -154.5q0 -22 4 -62q27 74 81 132t107 85.5t94 27.5v-30q-69 0 -156 -69t-118 -185q31 -121 119 -198.5t155 -77.5v-10q-66 0 -153.5 69t-128.5 179q-4 -38 -4 -61q0 -84 31.5 -158.5t77.5 -120t93.5 -72t83.5 -26.5 v-10q-38 0 -89 27t-100 74.5t-83 123.5t-34 162q0 53 12 100q-12 46 -12 100q0 69 22.5 132t57 107.5t76 78t81 49.5t69.5 16v-30z" />
<glyph unicode="}" d="M453 427q0 -53 -12 -100q12 -47 12 -100q0 -86 -34 -162t-83 -123.5t-100 -74.5t-89 -27v30q28 0 64.5 14t75.5 43.5t71.5 70.5t53.5 101t21 128q0 23 -4 61q-40 -109 -128 -178.5t-154 -69.5v30q30 0 69 16.5t79.5 47t75 81.5t50.5 112q-31 120 -118.5 196.5 t-155.5 76.5v10q41 0 94 -27.5t106.5 -85.5t80.5 -131q5 32 5 61q0 84 -31.5 157.5t-77.5 118.5t-93.5 71t-83.5 26v10q30 0 69.5 -16t81 -49.5t76 -78t57 -107.5t22.5 -132z" />
<glyph unicode="&#xa1;" d="M300 499q12 0 20.5 -8.5t8.5 -21.5q0 -12 -9 -21t-20 -9t-20 9t-9 21q0 13 8.5 21.5t20.5 8.5zM295 -125v515h10l20 -515h-30z" />
<glyph unicode="&#xa8;" d="M200 601q-12 0 -20.5 8.5t-8.5 21.5q0 12 9 21t20 9t20 -9t9 -21q0 -13 -8.5 -21.5t-20.5 -8.5zM400 601q-12 0 -20.5 8.5t-8.5 21.5q0 12 9 21t20 9t20 -9t9 -21q0 -13 -8.5 -21.5t-20.5 -8.5z" />
<glyph unicode="&#xab;" d="M350 500v-30l-300 -212v10zM550 500v-10l-300 -232v30zM350 0l-300 213v30l300 -233v-10zM550 0l-300 233v10l300 -213v-30z" />
<glyph unicode="&#xaf;" d="M450 720h-300v-10l300 -20v30z" />
<glyph unicode="&#xb4;" d="M420 740l-251 -163l5 -9l252 144z" />
<glyph unicode="&#xb7;" d="M300 212q-12 0 -20.5 9t-8.5 21t9 21t20 9t20 -9t9 -21t-8.5 -21t-20.5 -9z" />
<glyph unicode="&#xb8;" d="M281 -138h-31l89 138h11z" />
<glyph unicode="&#xbb;" d="M50 500l300 -212v-30l-300 232v10zM250 500l300 -232v-10l-300 212v30zM50 0v30l300 213v-10zM250 0v10l300 233v-30z" />
<glyph unicode="&#xbf;" d="M325 500q7 0 12 -5.5t5 -12.5t-5 -12t-12 -5t-12 5t-5 12t5 12.5t12 5.5zM338 307q-64 -67 -115 -120t-115 -120h-13l210 240h33zM85 49q0 -87 64 -135.5t151 -48.5q91 0 153 58.5t62 185.5h-30q0 -123 -49.5 -173.5t-135.5 -50.5q-85 0 -145 41.5t-60 122.5h-10z" />
<glyph unicode="&#xc0;" d="M178 815l-6 -28l252 -144l5 9zM50 0l212 625h30l-232 -625h-10zM550 0h-30l-213 625h10zM414 265h-230v30l230 -20v-10z" />
<glyph unicode="&#xc1;" d="M422 815l-251 -163l5 -9l252 144zM50 0l212 625h30l-232 -625h-10zM550 0h-30l-213 625h10zM414 265h-230v30l230 -20v-10z" />
<glyph unicode="&#xc2;" d="M478 670l-5 -9l-175 114l-177 -114l-5 9l182 137zM50 0l212 625h30l-232 -625h-10zM550 0h-30l-213 625h10zM414 265h-230v30l230 -20v-10z" />
<glyph unicode="&#xc3;" d="M500 766q-27 -40 -57 -53t-57.5 -3.5t-56.5 28l-58 37t-56.5 28t-57.5 -3.5t-57 -53v-10q27 40 57 52t57.5 0.5t56.5 -32l58 -41t56.5 -32t57.5 0.5t57 52v30zM50 0l212 625h30l-232 -625h-10zM550 0h-30l-213 625h10zM414 265h-230v30l230 -20v-10z" />
<glyph unicode="&#xc4;" d="M200 676q-12 0 -20.5 9t-8.5 21t9 21t20 9t20 -9t9 -21t-8.5 -21t-20.5 -9zM400 676q-12 0 -20.5 9t-8.5 21t9 21t20 9t20 -9t9 -21t-8.5 -21t-20.5 -9zM50 0l212 625h30l-232 -625h-10zM550 0h-30l-213 625h10zM414 265h-230v30l230 -20v-10z" />
<glyph unicode="&#xc5;" d="M333 581l217 -581h-30l-197 578q-11 -3 -23 -3q-14 0 -25 4l-215 -579h-10l200 590q-48 29 -48 87q0 41 29.5 70t68.5 29t68.5 -29t29.5 -70q0 -34 -18 -59.5t-47 -36.5zM300 586q10 0 19 3l-12 36h10l12 -33q59 24 59 85q0 41 -28.5 65t-59.5 24t-59.5 -24t-28.5 -65 q0 -49 42 -76l8 24h30l-13 -36q11 -3 21 -3zM184 265v30l230 -20v-10h-230z" />
<glyph unicode="&#xc6;" d="M0 0l192 625h30l-212 -625h-10zM430 0h-30l-173 625h10zM550 625v-30l-290 20v10h290zM540 337v-10l-190 -20v30h190zM314 235h-190v10l190 20v-30zM650 30v-30h-200v10z" />
<glyph unicode="&#xc7;" d="M301 615q-93 -1 -157 -64.5t-64 -164.5h-30q0 105 77 177t174 72t173 -71.5t76 -177.5h-10q0 101 -72.5 165.5t-166.5 63.5zM80 366l-20 -107h-10v107h30zM301 10q92 -1 155.5 62.5t63.5 166.5h30q0 -106 -76 -177.5t-173 -71.5l-64 -127h-31l82 127q-94 5 -166 76.5 t-72 172.5h10q0 -99 73 -163.5t168 -65.5z" />
<glyph unicode="&#xc8;" d="M178 815l-6 -28l252 -144l5 9zM50 625h30l-20 -625h-10v625zM550 625v-30l-450 20v10h450zM450 317v-10h-370v30zM550 30v-30h-470v10z" />
<glyph unicode="&#xc9;" d="M422 815l-251 -163l5 -9l252 144zM50 625h30l-20 -625h-10v625zM550 625v-30l-450 20v10h450zM450 317v-10h-370v30zM550 30v-30h-470v10z" />
<glyph unicode="&#xca;" d="M478 670l-5 -9l-175 114l-177 -114l-5 9l182 137zM50 625h30l-20 -625h-10v625zM550 625v-30l-450 20v10h450zM450 317v-10h-370v30zM550 30v-30h-470v10z" />
<glyph unicode="&#xcb;" d="M200 676q-12 0 -20.5 9t-8.5 21t9 21t20 9t20 -9t9 -21t-8.5 -21t-20.5 -9zM400 676q-12 0 -20.5 9t-8.5 21t9 21t20 9t20 -9t9 -21t-8.5 -21t-20.5 -9zM50 625h30l-20 -625h-10v625zM550 625v-30l-450 20v10h450zM450 317v-10h-370v30zM550 30v-30h-470v10z" />
<glyph unicode="&#xcc;" d="M178 815l-6 -28l252 -144l5 9zM260 625v-10l-210 -20v30h210zM280 625h30v-625h-10zM550 625v-30l-220 20v10h220zM280 10v-10h-230v30zM550 30v-30h-220v10z" />
<glyph unicode="&#xcd;" d="M422 815l-251 -163l5 -9l252 144zM260 625v-10l-210 -20v30h210zM280 625h30v-625h-10zM550 625v-30l-220 20v10h220zM280 10v-10h-230v30zM550 30v-30h-220v10z" />
<glyph unicode="&#xce;" d="M478 670l-5 -9l-175 114l-177 -114l-5 9l182 137zM260 625v-10l-210 -20v30h210zM280 625h30v-625h-10zM550 625v-30l-220 20v10h220zM280 10v-10h-230v30zM550 30v-30h-220v10z" />
<glyph unicode="&#xcf;" d="M200 676q-12 0 -20.5 9t-8.5 21t9 21t20 9t20 -9t9 -21t-8.5 -21t-20.5 -9zM400 676q-12 0 -20.5 9t-8.5 21t9 21t20 9t20 -9t9 -21t-8.5 -21t-20.5 -9zM260 625v-10l-210 -20v30h210zM280 625h30v-625h-10zM550 625v-30l-220 20v10h220zM280 10v-10h-230v30zM550 30v-30 h-220v10z" />
<glyph unicode="&#xd0;" d="M50 625h10l10 -316l-20 -1v317zM550 304v-6q-4 -123 -78.5 -210.5t-205.5 -87.5v30q127 0 193.5 75.5t70.5 192.5h-460v11l460 18q-5 121 -72.5 204.5t-191.5 83.5v10q128 0 203 -87.5t81 -209.5v-14v-10zM246 625v-10l-166 -20v30h166zM50 0v298h20l10 -298h-30zM100 0 v30l146 -20v-10h-146z" />
<glyph unicode="&#xd1;" d="M500 766q-27 -40 -57 -53t-57.5 -3.5t-56.5 28l-58 37t-56.5 28t-57.5 -3.5t-57 -53v-10q27 40 57 52t57.5 0.5t56.5 -32l58 -41t56.5 -32t57.5 0.5t57 52v30zM50 0v625h10l20 -625h-30zM175 595l-95 20v10h95v-30zM375 0l-180 625h10l200 -625h-30zM540 0l-20 625h30 v-625h-10zM520 0h-95v10l95 20v-30z" />
<glyph unicode="&#xd2;" d="M178 815l-6 -28l252 -144l5 9zM50 386h30q0 101 64 164.5t157 64.5q94 1 166.5 -63.5t72.5 -165.5h10q0 106 -76 177.5t-173 71.5t-174 -72t-77 -177zM50 366h30l-20 -107h-10v107zM540 366h10v-107h-30zM50 239q0 -105 77 -177t174 -72t173 71.5t76 177.5h-30 q0 -103 -63.5 -166.5t-155.5 -62.5q-95 1 -168 65.5t-73 163.5h-10z" />
<glyph unicode="&#xd3;" d="M422 815l-251 -163l5 -9l252 144zM50 386h30q0 101 64 164.5t157 64.5q94 1 166.5 -63.5t72.5 -165.5h10q0 106 -76 177.5t-173 71.5t-174 -72t-77 -177zM50 366h30l-20 -107h-10v107zM540 366h10v-107h-30zM50 239q0 -105 77 -177t174 -72t173 71.5t76 177.5h-30 q0 -103 -63.5 -166.5t-155.5 -62.5q-95 1 -168 65.5t-73 163.5h-10z" />
<glyph unicode="&#xd4;" d="M478 670l-5 -9l-175 114l-177 -114l-5 9l182 137zM50 386h30q0 101 64 164.5t157 64.5q94 1 166.5 -63.5t72.5 -165.5h10q0 106 -76 177.5t-173 71.5t-174 -72t-77 -177zM50 366h30l-20 -107h-10v107zM540 366h10v-107h-30zM50 239q0 -105 77 -177t174 -72t173 71.5 t76 177.5h-30q0 -103 -63.5 -166.5t-155.5 -62.5q-95 1 -168 65.5t-73 163.5h-10z" />
<glyph unicode="&#xd5;" d="M500 766q-27 -40 -57 -53t-57.5 -3.5t-56.5 28l-58 37t-56.5 28t-57.5 -3.5t-57 -53v-10q27 40 57 52t57.5 0.5t56.5 -32l58 -41t56.5 -32t57.5 0.5t57 52v30zM50 386h30q0 101 64 164.5t157 64.5q94 1 166.5 -63.5t72.5 -165.5h10q0 106 -76 177.5t-173 71.5t-174 -72 t-77 -177zM50 366h30l-20 -107h-10v107zM540 366h10v-107h-30zM50 239q0 -105 77 -177t174 -72t173 71.5t76 177.5h-30q0 -103 -63.5 -166.5t-155.5 -62.5q-95 1 -168 65.5t-73 163.5h-10z" />
<glyph unicode="&#xd6;" d="M200 676q-12 0 -20.5 9t-8.5 21t9 21t20 9t20 -9t9 -21t-8.5 -21t-20.5 -9zM400 676q-12 0 -20.5 9t-8.5 21t9 21t20 9t20 -9t9 -21t-8.5 -21t-20.5 -9zM50 386h30q0 101 64 164.5t157 64.5q94 1 166.5 -63.5t72.5 -165.5h10q0 106 -76 177.5t-173 71.5t-174 -72 t-77 -177zM50 366h30l-20 -107h-10v107zM540 366h10v-107h-30zM50 239q0 -105 77 -177t174 -72t173 71.5t76 177.5h-30q0 -103 -63.5 -166.5t-155.5 -62.5q-95 1 -168 65.5t-73 163.5h-10z" />
<glyph unicode="&#xd8;" d="M550 663l-72 -103q72 -74 72 -174h-10q0 98 -70 163l-333 -477q70 -62 164 -62q92 -1 155.5 62.5t63.5 166.5h30q0 -106 -76 -177.5t-173 -71.5q-98 0 -173 70l-68 -97h-10l71 105q-71 73 -71 171h10q0 -94 68 -159l325 484q-66 51 -152 51q-93 -1 -157 -64.5t-64 -164.5 h-30q0 105 77 177t174 72q89 0 160 -60l59 88h30zM80 366l-20 -107h-10v107h30zM520 259l20 107h10v-107h-30z" />
<glyph unicode="&#xd9;" d="M178 815l-6 -28l252 -144l5 9zM50 625h30l-20 -370h-10v370zM540 625h10v-370h-30zM50 235q0 -115 74.5 -180t175.5 -65q102 0 176 64.5t74 180.5h-10q0 -111 -70.5 -168t-169.5 -57q-95 0 -157.5 57t-62.5 168h-30z" />
<glyph unicode="&#xda;" d="M422 815l-251 -163l5 -9l252 144zM50 625h30l-20 -370h-10v370zM540 625h10v-370h-30zM50 235q0 -115 74.5 -180t175.5 -65q102 0 176 64.5t74 180.5h-10q0 -111 -70.5 -168t-169.5 -57q-95 0 -157.5 57t-62.5 168h-30z" />
<glyph unicode="&#xdb;" d="M478 670l-5 -9l-175 114l-177 -114l-5 9l182 137zM50 625h30l-20 -370h-10v370zM540 625h10v-370h-30zM50 235q0 -115 74.5 -180t175.5 -65q102 0 176 64.5t74 180.5h-10q0 -111 -70.5 -168t-169.5 -57q-95 0 -157.5 57t-62.5 168h-30z" />
<glyph unicode="&#xdc;" d="M200 676q-12 0 -20.5 9t-8.5 21t9 21t20 9t20 -9t9 -21t-8.5 -21t-20.5 -9zM400 676q-12 0 -20.5 9t-8.5 21t9 21t20 9t20 -9t9 -21t-8.5 -21t-20.5 -9zM50 625h30l-20 -370h-10v370zM540 625h10v-370h-30zM50 235q0 -115 74.5 -180t175.5 -65q102 0 176 64.5t74 180.5 h-10q0 -111 -70.5 -168t-169.5 -57q-95 0 -157.5 57t-62.5 168h-30z" />
<glyph unicode="&#xdd;" d="M422 815l-251 -163l5 -9l252 144zM50 0l467 625h33l-487 -625h-13zM278 333l-228 292h33l201 -284z" />
<glyph unicode="&#xde;" d="M50 0v700h10l20 -700h-30zM341 505l-251 20v10h251v-30zM361 165q81 0 135 56t54 129q0 72 -53.5 128.5t-135.5 56.5v-10q76 0 122.5 -52.5t46.5 -122.5q0 -67 -45.5 -110.5t-123.5 -44.5v-30zM341 165h-241v30l241 -20v-10z" />
<glyph unicode="&#xdf;" d="M50 -150v775h10l20 -775h-30zM241 595l-161 20v10h161v-30zM261 255q81 0 135 56t54 129q0 72 -53.5 128.5t-135.5 56.5v-10q70 0 119.5 -53.5t49.5 -121.5q0 -65 -48.5 -109.5t-120.5 -45.5v-30zM440 342q45 -22 67.5 -64t22.5 -93q0 -65 -48.5 -109.5t-120.5 -45.5v-30 q81 0 135 56t54 129q0 51 -28.5 96.5t-76.5 69.5zM241 255v10l-161 20v-30h161zM341 0h-191v30l191 -20v-10z" />
<glyph unicode="&#xe0;" d="M111 740l-6 -28l252 -144l5 9zM410 500h-360v-30l360 20v10zM430 0h30l-20 500h-10v-500zM420 199q0 81 -56 135t-129 54q-72 0 -128.5 -53.5t-56.5 -135.5h30q0 78 43.5 123.5t111.5 45.5q69 0 122 -46.5t53 -122.5h10zM420 179h-10q0 -77 -53.5 -128t-121.5 -51 q-67 0 -111 50t-44 129h-30q0 -82 56.5 -135.5t128.5 -53.5q73 0 129 54t56 135zM550 10l-80 20v-30h80v10z" />
<glyph unicode="&#xe1;" d="M356 740l-251 -163l5 -9l252 144zM410 500h-360v-30l360 20v10zM430 0h30l-20 500h-10v-500zM420 199q0 81 -56 135t-129 54q-72 0 -128.5 -53.5t-56.5 -135.5h30q0 78 43.5 123.5t111.5 45.5q69 0 122 -46.5t53 -122.5h10zM420 179h-10q0 -77 -53.5 -128t-121.5 -51 q-67 0 -111 50t-44 129h-30q0 -82 56.5 -135.5t128.5 -53.5q73 0 129 54t56 135zM550 10l-80 20v-30h80v10z" />
<glyph unicode="&#xe2;" d="M415 547l-5 -9l-175 114l-177 -114l-5 9l182 137zM410 500h-360v-30l360 20v10zM430 0h30l-20 500h-10v-500zM420 199q0 81 -56 135t-129 54q-72 0 -128.5 -53.5t-56.5 -135.5h30q0 78 43.5 123.5t111.5 45.5q69 0 122 -46.5t53 -122.5h10zM420 179h-10q0 -77 -53.5 -128 t-121.5 -51q-67 0 -111 50t-44 129h-30q0 -82 56.5 -135.5t128.5 -53.5q73 0 129 54t56 135zM550 10l-80 20v-30h80v10z" />
<glyph unicode="&#xe3;" d="M434 640q-27 -40 -57 -53t-57.5 -3.5t-56.5 28l-58 37t-56.5 28t-57.5 -3.5t-57 -53v-10q27 40 57 52t57.5 0.5t56.5 -32l58 -41t56.5 -32t57.5 0.5t57 52v30zM410 500h-360v-30l360 20v10zM430 0h30l-20 500h-10v-500zM420 199q0 81 -56 135t-129 54q-72 0 -128.5 -53.5 t-56.5 -135.5h30q0 78 43.5 123.5t111.5 45.5q69 0 122 -46.5t53 -122.5h10zM420 179h-10q0 -77 -53.5 -128t-121.5 -51q-67 0 -111 50t-44 129h-30q0 -82 56.5 -135.5t128.5 -53.5q73 0 129 54t56 135zM550 10l-80 20v-30h80v10z" />
<glyph unicode="&#xe4;" d="M134 601q-12 0 -20.5 8.5t-8.5 21.5q0 12 9 21t20 9t20 -9t9 -21q0 -13 -8.5 -21.5t-20.5 -8.5zM334 601q-12 0 -20.5 8.5t-8.5 21.5q0 12 9 21t20 9t20 -9t9 -21q0 -13 -8.5 -21.5t-20.5 -8.5zM410 500h-360v-30l360 20v10zM430 0h30l-20 500h-10v-500zM420 199 q0 81 -56 135t-129 54q-72 0 -128.5 -53.5t-56.5 -135.5h30q0 78 43.5 123.5t111.5 45.5q69 0 122 -46.5t53 -122.5h10zM420 179h-10q0 -77 -53.5 -128t-121.5 -51q-67 0 -111 50t-44 129h-30q0 -82 56.5 -135.5t128.5 -53.5q73 0 129 54t56 135zM550 10l-80 20v-30h80v10z " />
<glyph unicode="&#xe5;" d="M234 500q-39 0 -68.5 29.5t-29.5 72.5q0 41 29.5 70t68.5 29t68.5 -29t29.5 -70q0 -43 -29.5 -72.5t-68.5 -29.5zM234 511q31 0 59.5 25t28.5 66t-28.5 65t-59.5 24t-59.5 -24t-28.5 -65t28.5 -66t59.5 -25zM410 500h-360v-30l360 20v10zM430 0h30l-20 500h-10v-500z M420 199q0 81 -56 135t-129 54q-72 0 -128.5 -53.5t-56.5 -135.5h30q0 78 43.5 123.5t111.5 45.5q69 0 122 -46.5t53 -122.5h10zM420 179h-10q0 -77 -53.5 -128t-121.5 -51q-67 0 -111 50t-44 129h-30q0 -82 56.5 -135.5t128.5 -53.5q73 0 129 54t56 135zM550 10l-80 20v-30 h80v10z" />
<glyph unicode="&#xe7;" d="M543 320q-21 84 -90.5 137t-151.5 53q-97 0 -174 -72t-77 -177h30q0 95 65 161.5t156 67.5q79 1 145 -45.5t86 -124.5h11zM520 185q-18 -82 -78.5 -129t-140.5 -46q-93 1 -167 68.5t-74 160.5h-10q0 -105 77 -177t174 -72q84 0 157 55t92 140h-30zM237 -137h-31l89 138 h11z" />
<glyph unicode="&#xe8;" d="M192 740l-6 -28l252 -144l5 9zM130 321h10q0 76 53 122.5t122 46.5q68 0 111.5 -45.5t43.5 -123.5h30q0 82 -56.5 135.5t-128.5 53.5q-73 0 -129 -54t-56 -135zM130 301q0 -81 56 -135t129 -54q72 0 128.5 53.5t56.5 135.5h-30q0 -78 -43.5 -123.5t-111.5 -45.5 q-69 0 -122 46.5t-53 122.5h-10zM90 0l20 291h-30v-291h10zM110 0h470v30l-470 -20v-10z" />
<glyph unicode="&#xe9;" d="M437 740l-251 -163l5 -9l252 144zM130 321h10q0 76 53 122.5t122 46.5q68 0 111.5 -45.5t43.5 -123.5h30q0 82 -56.5 135.5t-128.5 53.5q-73 0 -129 -54t-56 -135zM130 301q0 -81 56 -135t129 -54q72 0 128.5 53.5t56.5 135.5h-30q0 -78 -43.5 -123.5t-111.5 -45.5 q-69 0 -122 46.5t-53 122.5h-10zM90 0l20 291h-30v-291h10zM110 0h470v30l-470 -20v-10z" />
<glyph unicode="&#xea;" d="M496 547l-5 -9l-175 114l-177 -114l-5 9l182 137zM130 321h10q0 76 53 122.5t122 46.5q68 0 111.5 -45.5t43.5 -123.5h30q0 82 -56.5 135.5t-128.5 53.5q-73 0 -129 -54t-56 -135zM130 301q0 -81 56 -135t129 -54q72 0 128.5 53.5t56.5 135.5h-30q0 -78 -43.5 -123.5 t-111.5 -45.5q-69 0 -122 46.5t-53 122.5h-10zM90 0l20 291h-30v-291h10zM110 0h470v30l-470 -20v-10z" />
<glyph unicode="&#xeb;" d="M215 601q-11 0 -20 8.5t-9 21.5q0 12 9 21t20 9t20 -9t9 -21q0 -13 -9 -21.5t-20 -8.5zM415 601q-11 0 -20 8.5t-9 21.5q0 12 9 21t20 9t20 -9t9 -21q0 -13 -9 -21.5t-20 -8.5zM130 321h10q0 76 53 122.5t122 46.5q68 0 111.5 -45.5t43.5 -123.5h30q0 82 -56.5 135.5 t-128.5 53.5q-73 0 -129 -54t-56 -135zM130 301q0 -81 56 -135t129 -54q72 0 128.5 53.5t56.5 135.5h-30q0 -78 -43.5 -123.5t-111.5 -45.5q-69 0 -122 46.5t-53 122.5h-10zM90 0l20 291h-30v-291h10zM110 0h470v30l-470 -20v-10z" />
<glyph unicode="&#xec;" d="M196 740l-6 -28l252 -144l5 9zM280 470l-230 20v10h230v-30zM300 0v500h30l-20 -500h-10zM280 0h-230v10l230 20v-30zM550 0h-220v30l220 -20v-10z" />
<glyph unicode="&#xed;" d="M441 740l-251 -163l5 -9l252 144zM280 470l-230 20v10h230v-30zM300 0v500h30l-20 -500h-10zM280 0h-230v10l230 20v-30zM550 0h-220v30l220 -20v-10z" />
<glyph unicode="&#xee;" d="M500 547l-5 -9l-175 114l-177 -114l-5 9l182 137zM280 470l-230 20v10h230v-30zM300 0v500h30l-20 -500h-10zM280 0h-230v10l230 20v-30zM550 0h-220v30l220 -20v-10z" />
<glyph unicode="&#xef;" d="M219 601q-11 0 -20 8.5t-9 21.5q0 12 9 21t20 9t20 -9t9 -21q0 -13 -9 -21.5t-20 -8.5zM419 601q-11 0 -20 8.5t-9 21.5q0 12 9 21t20 9t20 -9t9 -21q0 -13 -9 -21.5t-20 -8.5zM280 470l-230 20v10h230v-30zM300 0v500h30l-20 -500h-10zM280 0h-230v10l230 20v-30zM550 0 h-220v30l220 -20v-10z" />
<glyph unicode="&#xf0;" d="M550 580v-30h-120v-550h-30l16 550h-136v10l136 10l4 130h10v-129zM223 490q-68 -1 -115.5 -58.5t-47.5 -171.5h-10q0 120 51 184t122 65q72 1 124.5 -64.5t52.5 -184.5h-30q0 117 -40.5 174t-106.5 56zM390 240h10q0 -119 -52.5 -184t-124.5 -65q-71 0 -122 64.5 t-51 184.5h30q0 -117 39 -173.5t104 -56.5q69 0 118 58t49 172z" />
<glyph unicode="&#xf1;" d="M132 620q27 40 57 53t57.5 3.5t56.5 -28l58 -37t56.5 -28t57.5 3.5t57 53v-30q-27 -40 -57 -52t-57.5 -0.5t-56.5 32l-58 41t-56.5 32t-57.5 -0.5t-57 -52v10zM330 510q73 0 129 -54t56 -135h-10q0 70 -54 119.5t-121 49.5q-66 0 -110.5 -48.5t-44.5 -120.5h-30 q0 82 56.5 135.5t128.5 53.5zM85 500h30l-20 -500h-10v500zM485 0l20 301h10v-301h-30zM115 0v30l70 -20v-10h-70z" />
<glyph unicode="&#xf2;" d="M177 740l-6 -28l252 -144l5 9zM50 261h30q0 95 65 161.5t156 67.5q92 1 165.5 -66t73.5 -163h10q0 106 -76 177.5t-173 71.5t-174 -72t-77 -177zM50 239q0 -105 77 -177t174 -72t173 71.5t76 177.5h-30q0 -97 -64.5 -163.5t-154.5 -65.5q-93 1 -167 68.5t-74 160.5h-10z " />
<glyph unicode="&#xf3;" d="M422 740l-251 -163l5 -9l252 144zM50 261h30q0 95 65 161.5t156 67.5q92 1 165.5 -66t73.5 -163h10q0 106 -76 177.5t-173 71.5t-174 -72t-77 -177zM50 239q0 -105 77 -177t174 -72t173 71.5t76 177.5h-30q0 -97 -64.5 -163.5t-154.5 -65.5q-93 1 -167 68.5t-74 160.5 h-10z" />
<glyph unicode="&#xf4;" d="M481 547l-5 -9l-175 114l-177 -114l-5 9l182 137zM50 261h30q0 95 65 161.5t156 67.5q92 1 165.5 -66t73.5 -163h10q0 106 -76 177.5t-173 71.5t-174 -72t-77 -177zM50 239q0 -105 77 -177t174 -72t173 71.5t76 177.5h-30q0 -97 -64.5 -163.5t-154.5 -65.5 q-93 1 -167 68.5t-74 160.5h-10z" />
<glyph unicode="&#xf5;" d="M500 640q-27 -40 -57 -53t-57.5 -3.5t-56.5 28l-58 37t-56.5 28t-57.5 -3.5t-57 -53v-10q27 40 57 52t57.5 0.5t56.5 -32l58 -41t56.5 -32t57.5 0.5t57 52v30zM50 261h30q0 95 65 161.5t156 67.5q92 1 165.5 -66t73.5 -163h10q0 106 -76 177.5t-173 71.5t-174 -72 t-77 -177zM50 239q0 -105 77 -177t174 -72t173 71.5t76 177.5h-30q0 -97 -64.5 -163.5t-154.5 -65.5q-93 1 -167 68.5t-74 160.5h-10z" />
<glyph unicode="&#xf6;" d="M200 601q-12 0 -20.5 8.5t-8.5 21.5q0 12 9 21t20 9t20 -9t9 -21q0 -13 -8.5 -21.5t-20.5 -8.5zM400 601q-12 0 -20.5 8.5t-8.5 21.5q0 12 9 21t20 9t20 -9t9 -21q0 -13 -8.5 -21.5t-20.5 -8.5zM50 261h30q0 95 65 161.5t156 67.5q92 1 165.5 -66t73.5 -163h10 q0 106 -76 177.5t-173 71.5t-174 -72t-77 -177zM50 239q0 -105 77 -177t174 -72t173 71.5t76 177.5h-30q0 -97 -64.5 -163.5t-154.5 -65.5q-93 1 -167 68.5t-74 160.5h-10z" />
<glyph unicode="&#xf8;" d="M540 261q0 113 -99 183l-274 -391q64 -43 134 -43q90 -1 154.5 65.5t64.5 163.5h30q0 -106 -76 -177.5t-173 -71.5q-78 0 -145 48l-96 -138h-10l97 144q-97 77 -97 195h10q0 -53 26.5 -100t70.5 -80l266 397q-57 34 -122 34q-91 -1 -156 -67.5t-65 -161.5h-30 q0 105 77 177t174 72q70 0 132 -39l87 129h30l-99 -142q99 -75 99 -197h-10z" />
<glyph unicode="&#xf9;" d="M132 740l-6 -28l252 -144l5 9zM80 199l20 301h-30v-301h10zM440 199h-30l20 301h10v-301zM70 179q0 -81 56 -135t129 -54q72 0 128.5 53.5t56.5 135.5h-10q0 -76 -52.5 -122.5t-122.5 -46.5q-67 0 -111 45.5t-44 123.5h-30zM430 80l-20 -80h30v80h-10zM460 0v30l110 -20 v-10h-110z" />
<glyph unicode="&#xfa;" d="M377 740l-251 -163l5 -9l252 144zM80 199l20 301h-30v-301h10zM440 199h-30l20 301h10v-301zM70 179q0 -81 56 -135t129 -54q72 0 128.5 53.5t56.5 135.5h-10q0 -76 -52.5 -122.5t-122.5 -46.5q-67 0 -111 45.5t-44 123.5h-30zM430 80l-20 -80h30v80h-10zM460 0v30 l110 -20v-10h-110z" />
<glyph unicode="&#xfb;" d="M436 547l-5 -9l-175 114l-177 -114l-5 9l182 137zM80 199l20 301h-30v-301h10zM440 199h-30l20 301h10v-301zM70 179q0 -81 56 -135t129 -54q72 0 128.5 53.5t56.5 135.5h-10q0 -76 -52.5 -122.5t-122.5 -46.5q-67 0 -111 45.5t-44 123.5h-30zM430 80l-20 -80h30v80h-10z M460 0v30l110 -20v-10h-110z" />
<glyph unicode="&#xfc;" d="M155 601q-11 0 -20 8.5t-9 21.5q0 12 9 21t20 9t20 -9t9 -21q0 -13 -9 -21.5t-20 -8.5zM355 601q-11 0 -20 8.5t-9 21.5q0 12 9 21t20 9t20 -9t9 -21q0 -13 -9 -21.5t-20 -8.5zM80 199l20 301h-30v-301h10zM440 199h-30l20 301h10v-301zM70 179q0 -81 56 -135t129 -54 q72 0 128.5 53.5t56.5 135.5h-10q0 -76 -52.5 -122.5t-122.5 -46.5q-67 0 -111 45.5t-44 123.5h-30zM430 80l-20 -80h30v80h-10zM460 0v30l110 -20v-10h-110z" />
<glyph unicode="&#xfd;" d="M422 740l-251 -163l5 -9l252 144zM280 0l-230 500h30l210 -500h-10zM198 -200l342 700h10l-322 -700h-30z" />
<glyph unicode="&#xfe;" d="M150 700v-30l-100 20v10h100zM170 700h10l20 -900h-30v900zM200 260h10q0 114 49 172t118 58q65 0 104 -56.5t39 -173.5h30q0 120 -51 184.5t-122 64.5q-72 0 -124.5 -65t-52.5 -184zM200 240q0 -119 52.5 -184.5t124.5 -64.5q71 1 122 65t51 184h-10 q0 -114 -47.5 -171.5t-115.5 -58.5q-66 -1 -106.5 56t-40.5 174h-30zM150 -170v-30h-100v10z" />
<glyph unicode="&#xff;" d="M200 601q-12 0 -20.5 8.5t-8.5 21.5q0 12 9 21t20 9t20 -9t9 -21q0 -13 -8.5 -21.5t-20.5 -8.5zM400 601q-12 0 -20.5 8.5t-8.5 21.5q0 12 9 21t20 9t20 -9t9 -21q0 -13 -8.5 -21.5t-20.5 -8.5zM280 0l-230 500h30l210 -500h-10zM198 -200l342 700h10l-322 -700h-30z" />
<glyph unicode="&#x131;" d="M280 470l-230 20v10h230v-30zM300 0v500h30l-20 -500h-10zM280 0h-230v10l230 20v-30zM550 0h-220v30l220 -20v-10z" />
<glyph unicode="&#x152;" d="M-28 386h30q0 101 64 164.5t157 64.5q94 1 166.5 -63.5t72.5 -165.5h10q0 106 -76 177.5t-173 71.5t-174 -72t-77 -177zM627 635h-300v-10l300 -20v30zM-28 366h30l-20 -107h-10v107zM462 366h10v-107h-30zM627 316v-9h-141v29zM-28 239q0 -105 77 -177t174 -72t173 71.5 t76 177.5h-30q0 -103 -63.5 -166.5t-155.5 -62.5q-95 1 -168 65.5t-73 163.5h-10zM627 20l-280 -20v-10h280v30z" />
<glyph unicode="&#x153;" d="M401 510q97 0 173 -71.5t76 -177.5h-10q0 101 -72.5 165.5t-166.5 63.5q-40 0 -77 -14q52 -30 86 -80t39 -113l171 8v-30h-420v10l239 11q-6 61 -43.5 109.5t-93.5 75.5q-56 -27 -89 -81t-33 -125h-30q0 70 35.5 126.5t93.5 89.5q-36 13 -78 13q-91 -1 -156 -67.5 t-65 -161.5h-30q0 105 77 177t174 72q50 0 100 -22q50 22 100 22zM401 10q122 -1 192 128l28 -15q-33 -60 -93.5 -96.5t-126.5 -36.5q-50 0 -100 22q-50 -22 -100 -22q-97 0 -174 72t-77 177h10q0 -93 74 -160.5t167 -68.5q40 0 77 14q-57 33 -92.5 89.5t-35.5 125.5h10 q0 -70 38.5 -124t99.5 -82q55 28 88.5 83t33.5 123h30q0 -70 -35 -126.5t-92 -89.5q41 -13 78 -13z" />
<glyph unicode="&#x178;" d="M200 676q-12 0 -20.5 9t-8.5 21t9 21t20 9t20 -9t9 -21t-8.5 -21t-20.5 -9zM400 676q-12 0 -20.5 9t-8.5 21t9 21t20 9t20 -9t9 -21t-8.5 -21t-20.5 -9zM50 0l467 625h33l-487 -625h-13zM278 333l-228 292h33l201 -284z" />
<glyph unicode="&#x237;" d="M475 470l-235 20v10h235v-30zM495 0v500h30l-20 -500h-10zM50 -20q0 -89 68.5 -138.5t160.5 -48.5q92 0 159 49.5t67 137.5h-10q0 -83 -63 -125t-153 -43q-88 0 -143.5 41.5t-55.5 126.5h-30z" />
<glyph unicode="&#x2c6;" d="M481 547l-5 -9l-175 114l-177 -114l-5 9l182 137z" />
<glyph unicode="&#x2dc;" d="M500 640q-27 -40 -57 -53t-57.5 -3.5t-56.5 28l-58 37t-56.5 28t-57.5 -3.5t-57 -53v-10q27 40 57 52t57.5 0.5t56.5 -32l58 -41t56.5 -32t57.5 0.5t57 52v30z" />
<glyph unicode="&#x2013;" d="M550 280l-500 -20v-10h500v30z" />
<glyph unicode="&#x2014;" horiz-adv-x="1200" d="M1150 280l-1100 -20v-10h1100v30z" />
<glyph unicode="&#x2018;" d="M252 509l126 191h-30l-106 -191h10z" />
<glyph unicode="&#x2019;" d="M252 509l126 191h-30l-106 -191h10z" />
<glyph unicode="&#x201a;" d="M252 -100l126 191h-30l-106 -191h10z" />
<glyph unicode="&#x201c;" d="M216 384l20 241h-24v-241h4zM412 384v241h-6l-20 -241h26z" />
<glyph unicode="&#x201d;" d="M216 384l20 241h-24v-241h4zM412 384v241h-6l-20 -241h26z" />
<glyph unicode="&#x201e;" d="M348 91h30l-126 -191h-10z" />
<glyph unicode="&#x2022;" d="M300 150q-39 0 -68.5 29.5t-29.5 72.5q0 41 29.5 70t68.5 29t68.5 -29t29.5 -70q0 -43 -29.5 -72.5t-68.5 -29.5z" />
<glyph unicode="&#x2026;" d="M300 61q11 0 20 -9t9 -21q0 -13 -8.5 -21.5t-20.5 -8.5t-20.5 8.5t-8.5 21.5q0 12 9 21t20 9z" />
<glyph unicode="&#x2039;" d="M550 500v-30l-500 -212v10zM550 0l-500 213v30l500 -233v-10z" />
<glyph unicode="&#x203a;" d="M50 500l500 -212v-30l-500 232v10zM50 0v30l500 213v-10z" />
<glyph unicode="&#x2122;" horiz-adv-x="1200" d="M280 625v-10l-230 -20v30h230zM300 625l-20 -625h30v625h-10zM550 625v-30l-220 20v10h220zM650 0v625h10l20 -625h-30zM890 0h-10l-180 625h30zM910 0l180 625h10l-160 -625h-30zM1150 0h-10l-20 625h30v-625z" />
<glyph unicode="&#x25fc;" horiz-adv-x="500" d="M0 500h500v-500h-500v500z" />
<glyph d="M50 625h10l20 -625h-30v625zM80 595v30h261v-10zM550 440q0 -74 -53 -127q53 -55 53 -128t-54 -129t-135 -56v10q76 1 122.5 53.5t46.5 121.5q0 70 -48 113q-53 -43 -121 -43v10q64 0 111 42q-44 33 -111 33v30q73 0 126 -48q43 51 43 118q0 68 -45.5 111.5t-123.5 43.5 v30q82 0 135.5 -56.5t53.5 -128.5zM100 0v10l241 20v-30h-241z" />
<glyph d="M400 385q0 119 -52.5 184.5t-124.5 64.5q-71 -1 -122 -65t-51 -184h10q-1 114 46.5 171.5t116.5 58.5q66 1 106.5 -56t40.5 -174h30zM50 365h30l-20 -105h-10v105zM230 246v30h290v-10zM550 0h-30l20 276h10v-276zM400 240h-30q0 -116 -40.5 -173t-106.5 -57 q-68 0 -115.5 58t-47.5 172h-10q0 -120 51 -184.5t122 -64.5q72 0 124.5 65t52.5 184z" />
<glyph d="M50 0v625h10l20 -625h-30zM175 595l-95 20v10h95v-30zM375 0l-180 625h10l200 -625h-30zM540 0l-20 625h30v-625h-10zM520 0h-95v10l95 20v-30z" />
<glyph d="M100 0v625h10l20 -625h-30zM291 595l-161 20v10h161v-30zM311 255q81 0 135 56t54 129q0 72 -53.5 128.5t-135.5 56.5v-10q76 0 122.5 -52.5t46.5 -122.5q0 -67 -45.5 -110.5t-123.5 -44.5v-30zM291 255h-151v30l151 -20v-10zM473 0l-229 229l8 8l242 -216z" />
<glyph d="M189 297v30q-77 1 -124 40.5t-47 91.5q0 57 48 107t123 49v10q-89 0 -139 -49.5t-50 -116.5q0 -66 50 -114t139 -48zM209 615v10h163v-30zM209 297v30l82 -20v-10h-82zM311 0q91 0 140.5 48t48.5 115q-1 64 -50 104t-139 40v-10q76 1 123.5 -39t47.5 -93t-47 -93.5 t-124 -41.5v-30zM291 0h-190v10l190 20v-30z" />
<glyph d="M50 0v625h10l20 -625h-30zM275 615l-195 -20v30h195v-10zM295 0v625h10l20 -625h-30zM540 0l-20 625h30v-625h-10zM520 0h-175v10l175 20v-30z" />
<glyph d="M70 0v625h10l20 -625h-30zM261 595l-161 20v10h161v-30zM281 255q81 0 135 56t54 129q0 72 -53.5 128.5t-135.5 56.5v-10q76 0 122.5 -52.5t46.5 -122.5q0 -67 -45.5 -110.5t-123.5 -44.5v-30zM261 255h-151v30l151 -20v-10zM123 232l427 -401l-21 -21l-413 415z" />
<glyph d="M50 625h10l20 -268h-30v268zM80 615v10h470v-30zM50 307v30l500 -20v-10h-500zM520 287h30v-287h-10zM50 0v30l470 -20v-10h-470z" />
<glyph d="M130 625h31l-100 -188h-11zM180 615v10h370v-30zM50 387v30l500 -200v-10zM539 187h11l-80 -187h-31zM50 0v30l370 -20v-10h-370z" />
<glyph d="M319 601q-11 0 -20 8.5t-9 21.5q0 12 9 21t20 9t20 -9t9 -21q0 -13 -9 -21.5t-20 -8.5zM280 470l-230 20v10h230v-30zM300 0v500h30l-20 -500h-10zM280 0h-230v10l230 20v-30zM550 0h-220v30l220 -20v-10z" />
<glyph d="M410 500h-360v-30l360 20v10zM430 0h30l-20 500h-10v-500zM420 199q0 81 -56 135t-129 54q-72 0 -128.5 -53.5t-56.5 -135.5h30q0 78 43.5 123.5t111.5 45.5q69 0 122 -46.5t53 -122.5h10zM420 179h-10q0 -77 -53.5 -128t-121.5 -51q-67 0 -111 50t-44 129h-30 q0 -82 56.5 -135.5t128.5 -53.5q73 0 129 54t56 135zM550 10l-80 20v-30h80v10z" />
<glyph d="M130 321h10q0 76 53 122.5t122 46.5q68 0 111.5 -45.5t43.5 -123.5h30q0 82 -56.5 135.5t-128.5 53.5q-73 0 -129 -54t-56 -135zM130 301q0 -81 56 -135t129 -54q72 0 128.5 53.5t56.5 135.5h-30q0 -78 -43.5 -123.5t-111.5 -45.5q-69 0 -122 46.5t-53 122.5h-10zM90 0 l20 291h-30v-291h10zM110 0h470v30l-470 -20v-10z" />
<glyph d="M280 690l-230 -20v30h230v-10zM300 0v700h30l-20 -700h-10zM280 0h-230v10l230 20v-30zM550 0h-220v30l220 -20v-10z" />
<glyph d="M250 500h10l20 -183h-30q0 86 -35 129.5t-85 43.5q-100 0 -100 -173h-30q0 91 38.5 142t91.5 51q39 0 72 -29t48 -84v103zM30 500l-20 -72h-10v72h30zM470 500v-10l-190 -20v30h190zM490 500h10v-500h-30zM0 297h10l20 -297h-30v297zM250 0v297h30l-20 -297h-10z" />
<glyph d="M515 321h-10q0 70 -54 119.5t-121 49.5q-66 0 -110.5 -48.5t-44.5 -120.5h-30q0 82 56.5 135.5t128.5 53.5q73 0 129 -54t56 -135zM85 500h30l-20 -500h-10v500zM485 0l20 301h10v-301h-30zM115 0v30l70 -20v-10h-70z" />
<glyph d="M283 250q-180 119 -59 231q44 41 116 41q82 0 146 -53.5t64 -145.5h-30q0 80 -56 132t-124 52q-56 0 -101 -41q-48 -45 -30.5 -95.5t94.5 -99.5zM306 245q44 -29 67.5 -49t39 -45.5t8 -53.5t-36.5 -63q-44 -53 -127 -53q-81 0 -144 54t-63 146h30q0 -81 55.5 -135 t121.5 -52q28 1 60 17t51 37q27 31 34 56t-8 48.5t-35.5 41.5t-59.5 44z" />
<glyph d="M72 201l178 499h30l-198 -499h-10zM160 490l-160 -20v30h160v-10zM500 470l-290 20v10h290v-30zM500 179h-10q0 -69 -60.5 -119t-129.5 -50q-87 0 -138.5 47.5t-51.5 121.5h-30q0 -83 63.5 -136t156.5 -53q74 0 137 54.5t63 134.5z" />
<glyph d="M230 0l-230 500h30l210 -500h-10zM260 0l230 500h10l-210 -500h-30z" />
<glyph d="M50 261h30q0 96 58 162t148 67q91 1 157.5 -65.5t66.5 -163.5h10q0 107 -69 178t-165 71t-166 -71t-70 -178zM520 0h30v500h-10zM50 239q0 -107 70 -178t166 -71t165 71t69 178h-30q0 -99 -57.5 -164.5t-146.5 -64.5q-92 1 -159 68t-67 161h-10z" />
<glyph d="M50 261h30q0 101 64 164.5t157 64.5q94 1 166.5 -63.5t72.5 -165.5h10q0 106 -76 177.5t-173 71.5t-174 -72t-77 -177zM520 261v30l-420 -20v-10h420zM493 138q-70 -129 -192 -128q-95 1 -168 65.5t-73 163.5h-10q0 -105 77 -177t174 -72q66 0 126.5 36.5t93.5 96.5z" />
<glyph d="M490 690l-230 -20v30h230v-10zM280 0l240 700h30l-260 -700h-10zM260 0h-210v10l210 20v-30zM550 0h-240v30l240 -20v-10z" />
<glyph d="M550 317h-30q-1 173 -97 173q-50 0 -84 -43.5t-34 -129.5h-10q-1 86 -34.5 129.5t-82.5 43.5q-98 0 -98 -173h-30q0 92 37.5 142.5t90.5 50.5q43 0 76.5 -34.5t45.5 -99.5q11 65 45.5 99.5t77.5 34.5q52 0 89.5 -50.5t37.5 -142.5zM80 500l-20 -72h-10v72h30zM50 297h10 l20 -297h-30v297zM295 0v297h30l-20 -297h-10zM520 0l20 297h10v-297h-30z" />
<glyph d="M550 321q0 84 -71.5 137.5t-163.5 52.5q-93 0 -164 -53t-71 -137h10q0 79 67.5 125t157.5 45q88 0 146.5 -45t58.5 -125h30zM50 500h30l-20 -500h-10v500zM540 301l-20 -301h30v301h-10z" />
<glyph d="M500 321q0 81 -56 135t-129 54q-80 0 -142.5 -68t-62.5 -201h10q0 67 17.5 117t47 77.5t62.5 41t68 13.5q67 0 111 -45.5t44 -123.5h30zM398 221h-288v-30l288 20v10zM428 0l20 221h-30v-221h10zM398 10l-398 20v-30h398v10z" />
<glyph d="M50 0l250 700h30l-270 -700h-10zM210 490l-160 -20v30h160v-10zM550 470l-290 20v10h290v-30zM550 0h-460v10l460 20v-30z" />
<glyph d="M232 0l-182 500h30l162 -500h-10zM338 0l202 500h10l-182 -500h-30zM318 10v-10h-56v30z" />
<glyph d="M520 500h-470v-30l470 20v10zM430 225h30l90 275h-10zM420 199q0 81 -56 135t-129 54q-72 0 -128.5 -53.5t-56.5 -135.5h30q0 79 44 129t111 50q68 0 121.5 -51t53.5 -128h10zM420 179h-10q0 -77 -53.5 -128t-121.5 -51q-67 0 -111 50t-44 129h-30q0 -82 56.5 -135.5 t128.5 -53.5q73 0 129 54t56 135zM550 10l-180 20v-30h180v10z" />
<glyph d="M130 321h10q0 76 53 122.5t122 46.5q68 0 111.5 -45.5t43.5 -123.5h30q0 82 -56.5 135.5t-128.5 53.5q-73 0 -129 -54t-56 -135zM130 301q0 -81 56 -135t129 -54q72 0 128.5 53.5t56.5 135.5h-10q0 -76 -52.5 -122.5t-122.5 -46.5q-67 0 -111 45.5t-44 123.5h-30zM10 0 l106 291h-30l-86 -291h10zM30 0h470v30l-470 -20v-10z" />
<glyph d="M70 500l-20 -255h30v255h-10zM100 490l450 -20v30h-450v-10zM500 255l-400 20v-30h400v10zM530 0l20 255h-30v-255h10zM500 10l-450 20v-30h450v10z" />
<glyph d="M230 0l20 700h10v-700h-30zM230 490l-230 -20v30h230v-10zM500 470l-220 20v10h220v-30zM500 0h-220v10l220 20v-30z" />
<glyph d="M500 321q0 81 -56 135t-129 54q-72 0 -128.5 -53.5t-56.5 -135.5h10q0 76 52.5 122.5t122.5 46.5q67 0 111 -45.5t44 -123.5h30zM355 219l-206 75l-12 -28l215 -57zM0 179q0 -81 56 -135t129 -54q72 0 128.5 53.5t56.5 135.5h-10q0 -76 -52.5 -122.5t-122.5 -46.5 q-67 0 -111 45.5t-44 123.5h-30z" />
<glyph d="M401 510q97 0 173 -71.5t76 -177.5h-10q0 101 -72.5 165.5t-166.5 63.5q-40 0 -77 -14q52 -30 86 -80t39 -113l171 8v-30h-620v10l151 7q4 65 39 117t90 82q-36 13 -79 13q-93 -1 -157 -64.5t-64 -164.5h-30q0 105 77 177t174 72q50 0 100 -22q50 22 100 22zM439 282 q-6 64 -42.5 112.5t-92.5 73.5q-52 -25 -85.5 -74.5t-37.5 -113.5l239 11v-10zM401 10q122 -1 192 128l28 -15q-33 -60 -93.5 -96.5t-126.5 -36.5q-51 0 -100 22q-50 -22 -100 -22q-97 0 -174 72t-77 177h10q0 -99 73 -163.5t168 -65.5q40 0 76 14q-57 33 -92 89.5 t-35 125.5h10q0 -69 38 -123.5t98 -81.5q58 33 97 104l28 -15q-35 -64 -98 -100q41 -13 78 -13z" />
<glyph d="M79 0h-29v700h9zM99 690v10h451v-30zM109 0v10l441 20v-30h-441z" />
<glyph d="M481 690l-431 -20v30h431v-10zM541 0l-20 700h29v-700h-9zM511 0h-461v30l461 -20v-10z" />
</font>
</defs>
</svg>
