<?xml version="1.0" standalone="no"?>
<!DOCTYPE svg PUBLIC "-//W3C//DTD SVG 1.1//EN" "http://www.w3.org/Graphics/SVG/1.1/DTD/svg11.dtd" >
<svg xmlns="http://www.w3.org/2000/svg" xmlns:xlink="http://www.w3.org/1999/xlink" version="1.1">
<metadata></metadata>
<defs>
<font id="frames_part_onebold" horiz-adv-x="600" >
<font-face units-per-em="1000" ascent="800" descent="-200" />
<missing-glyph horiz-adv-x="500" />
<glyph unicode="ff" d="M427 451v-66h169v-130h-169v-255h-130v255h-115v-255h-130v255h-125v130h125v66q0 118 57 183.5t130 65.5q70 0 123 -56q52 56 122 56q73 0 130.5 -65t57.5 -184h-130q0 120 -58 120q-57 0 -57 -120zM182 385h115v66q0 120 -58 120q-57 0 -57 -120v-66z" />
<glyph unicode="ij" d="M340 660v-130h-150v130h150zM400 660h150v-130h-150v130zM410 0v500h130v-500q0 -89 -77.5 -148t-168.5 -59t-167.5 59t-76.5 148v130h150v240h-150v130h280v-500h-150q0 -35 28.5 -64t85.5 -29t86.5 29t29.5 64z" />
<glyph unicode="lj" d="M370 0h-320v130h191v440h-191v130h320v-700zM425 665h150v-130h-150v130zM420 0v500h130v-500q0 -101 -71 -154t-166 -53q-94 0 -166 49.5t-72 137.5h130q0 -8 4.5 -17t15.5 -19t34 -16t54 -6q107 0 107 78z" />
<glyph unicode="l&#x2018;" d="M370 700v-570h180v-130h-500v130h191v440h-191v130h320zM576 700h130l-106 -241h-130z" />
<glyph unicode="l&#x2019;" d="M370 700v-570h180v-130h-500v130h191v440h-191v130h320zM576 700h130l-106 -241h-130z" />
<glyph unicode="l&#x27;" d="M370 700v-570h180v-130h-500v130h191v440h-191v130h320zM576 700h130l-106 -241h-130z" />
<glyph unicode="oo" d="M365 509q71 1 123 -69t52 -190t-52 -189.5t-123 -69.5q-33 0 -65 17q-32 -17 -65 -17q-70 0 -122.5 69t-52.5 190q0 120 52 189t123 70q34 0 66 -17q31 17 64 17z" />
<glyph unicode="ss" d="M493 270q38 -29 55 -66.5t13 -73.5t-25 -69q-23 -36 -63.5 -58t-92.5 -22q-64 0 -121 44q-51 -44 -125 -44q-78 0 -142.5 63.5t-64.5 156.5h130q0 -37 26 -64t56 -29q27 -2 41 19q3 6 3 7q-6 23 -6 25q-13 21 -62 57q-65 48 -74 118.5t38 125.5q50 62 138 62 q67 0 124 -45q48 45 122 45q79 0 144.5 -63t65.5 -156h-130q0 29 -19.5 54t-60.5 25t-41 -32l2 -11q10 -26 69 -69zM426 127q19 27 -65 89q-72 52 -75 129q-22 37 -69 37q-41 0 -41 -32q0 -28 71 -80q62 -48 67 -113q27 -47 71 -49q27 -2 41 19z" />
<glyph unicode="xs" d="M420 303q0 5 -2 17l-41 -56q52 -43 60 -100l113 -164h-154l-16 23q-52 -42 -123 -42q-40 0 -80 19h-127l45 66q-45 60 -45 135h130q0 -7 1 -11l32 47q-44 44 -50 99l-113 164h154l15 -22q49 44 121 44q44 0 88 -22h122l-46 -63q46 -59 46 -134h-130zM302 365l4 6z M303 127q2 2 2 4l-9 13l-23 -36q18 3 30 19z" />
<glyph unicode="&#x2e;&#x2e;&#x2e;" d="M400 201q39 0 68.5 -29t29.5 -70q0 -43 -29.5 -72.5t-68.5 -29.5q-27 0 -50 14q-23 -14 -50 -14t-50 14q-23 -14 -50 -14q-39 0 -68.5 29.5t-29.5 72.5q0 41 29.5 70t68.5 29q28 0 50 -15q22 15 50 15t50 -15q22 15 50 15z" />
<glyph unicode="&#x27;s" d="M236 625l-106 -241h-130l106 241h130zM370 270q38 -29 55 -66.5t13 -73.5t-25 -69q-23 -36 -63.5 -58t-92.5 -22q-78 0 -142.5 63.5t-64.5 156.5h130q0 -37 26 -64t56 -29q27 -2 41 19q19 27 -65 89q-65 48 -74.5 118.5t38.5 125.5q50 62 138 62q79 0 144.5 -63 t65.5 -156h-130q0 29 -19.5 54t-60.5 25t-41 -32q0 -28 71 -80z" />
<glyph horiz-adv-x="0" />
<glyph horiz-adv-x="333" />
<glyph unicode=" " />
<glyph unicode="!" d="M235 625h130v-385h-130v385zM300 0q-39 0 -68.5 29.5t-29.5 72.5q0 41 29.5 70t68.5 29t68.5 -29t29.5 -70q0 -43 -29.5 -72.5t-68.5 -29.5z" />
<glyph unicode="&#x22;" d="M442 625v-241h-260v241h260z" />
<glyph unicode="#" d="M550 700l-46 -170h46v-130h-81l-19 -70h50v-130h-86l-54 -200h-130l54 200h-50l-54 -200h-130l54 200h-104v130h140l19 70h-109v130h144l46 170h130l-46 -170h50l46 170h130zM320 330l19 70h-50l-19 -70h50z" />
<glyph unicode="'" d="M312 459l106 241h-130l-106 -241h130z" />
<glyph unicode="(" d="M453 -60v130q-17 0 -45 16t-58 45t-51.5 81.5t-21.5 114.5t21.5 113.5t51.5 80t57.5 44t45.5 15.5v130q-30 0 -69.5 -16t-81 -49.5t-76 -78t-57 -107.5t-22.5 -132q0 -86 34 -162t83 -123.5t100 -74.5t89 -27z" />
<glyph unicode=")" d="M147 -60q38 0 89 27t100 74.5t83 123.5t34 162q0 69 -22.5 132t-57 107.5t-76 78t-81 49.5t-69.5 16v-130q18 0 45.5 -15.5t57.5 -44t51.5 -80t21.5 -113.5t-21.5 -114.5t-51.5 -81.5t-58 -45t-45 -16v-130z" />
<glyph unicode="," d="M312 -150l106 241h-130l-106 -241h130z" />
<glyph unicode="-" d="M550 330h-500v-130h500v130z" />
<glyph unicode="." d="M300 0q-39 0 -68.5 29.5t-29.5 72.5q0 41 29.5 70t68.5 29t68.5 -29t29.5 -70q0 -43 -29.5 -72.5t-68.5 -29.5z" />
<glyph unicode="/" d="M0 0l370 700h130l-370 -700h-130z" />
<glyph unicode="0" d="M301 635q97 0 173 -71.5t76 -177.5v-147q0 -106 -76 -177.5t-173 -71.5t-174 72t-77 177v147q0 105 77 177t174 72zM301 120q51 -1 85 33t34 86v147q0 52 -34 86t-85 33q-53 -2 -87 -34.5t-34 -84.5v-147q0 -52 34 -84.5t87 -34.5z" />
<glyph unicode="1" d="M395 130h155v-130h-500v130h215v208q-95 -72 -215 -72v130q97 0 156 60.5t59 168.5h130v-495z" />
<glyph unicode="2" d="M186 130h364v-130h-500v130q0 51 31 88.5t75 59.5t88 42t75 48t31 65q0 4 -1 10t-5.5 17.5t-13 21t-25.5 16.5t-40 7q-39 0 -62 -32t-23 -82h-130q0 127 62 185.5t153 58.5q85 0 150 -57t65 -145q0 -64 -30.5 -110.5t-73.5 -70.5t-86 -42t-73.5 -37t-30.5 -43z" />
<glyph unicode="3" d="M421 320q59 -59 59 -146t-64 -135.5t-151 -48.5q-89 0 -152 53.5t-63 160.5h130q0 -84 85 -84q39 0 62 15t23 39q0 45 -26.5 65.5t-92.5 20.5v130h6q63 0 88 11t25 50q0 21 -25 37.5t-60 16.5q-85 0 -85 -84h-130q0 107 63 160.5t152 53.5q87 0 151 -48.5t64 -135.5 q0 -80 -59 -131z" />
<glyph unicode="4" d="M480 289h70v-130h-70v-159h-130v159h-290v130l290 336h130v-336zM350 289v165l-142 -165h142z" />
<glyph unicode="5" d="M550 495h-300v-73h1q128 0 204 -69t76 -167q-1 -92 -75 -145t-174 -53q-95 0 -163.5 48.5t-68.5 137.5h130q0 -19 32 -38.5t88 -19.5q13 0 27 2.5t32 9t29.5 21.5t11.5 37q0 51 -42 77t-107 26h-131v336h430v-130z" />
<glyph unicode="6" d="M270 388q85 0 145 -57.5t60 -141.5t-60 -141.5t-145 -57.5t-145 57.5t-60 141.5q0 115 25 204t66.5 140.5t90 77t99.5 25.5q80 0 134.5 -49.5t54.5 -140.5h-130q0 59 -62 59q-95 0 -128 -124q25 7 55 7zM270 120q31 0 53 18t22 51t-22 51t-53 18q-30 0 -52 -18t-23 -50 v-1q0 -33 22.5 -51t52.5 -18z" />
<glyph unicode="7" d="M550 625l-144 -260h106v-130h-179l-130 -235h-149l131 235h-135v130h207l73 130h-280v130h500z" />
<glyph unicode="8" d="M480 341q38 -31 59 -71.5t21 -77.5q0 -75 -70.5 -138.5t-188.5 -63.5t-189 63.5t-71 138.5q0 37 21.5 77.5t59.5 71.5q-51 53 -51 114q0 70 64.5 125t165.5 55t165 -54.5t64 -125.5q0 -61 -50 -114zM201 455q0 -52 100 -54q100 2 100 54q0 22 -27 36t-73 14t-73 -14 t-27 -36zM301 120q53 1 91.5 19.5t38.5 52.5q0 39 -38.5 58t-91.5 19t-91.5 -19.5t-38.5 -57.5q0 -34 38.5 -52.5t91.5 -19.5z" />
<glyph unicode="9" d="M330 636q85 0 145 -57.5t60 -141.5q0 -115 -25 -204t-66.5 -140.5t-90 -77t-99.5 -25.5q-80 0 -134.5 49.5t-54.5 140.5h130q0 -59 62 -59q95 0 128 124q-25 -7 -55 -7q-85 0 -145 57.5t-60 141.5t60 141.5t145 57.5zM330 368q30 0 52 18t23 50v1q0 33 -22.5 51t-52.5 18 q-31 0 -53 -18t-22 -51t22 -51t53 -18z" />
<glyph unicode=":" d="M300 299q-39 0 -68.5 29.5t-29.5 72.5q0 41 29.5 70t68.5 29t68.5 -29t29.5 -70q0 -43 -29.5 -72.5t-68.5 -29.5zM300 0q-39 0 -68.5 29.5t-29.5 72.5q0 41 29.5 70t68.5 29t68.5 -29t29.5 -70q0 -43 -29.5 -72.5t-68.5 -29.5z" />
<glyph unicode=";" d="M300 299q-39 0 -68.5 29.5t-29.5 72.5q0 41 29.5 70t68.5 29t68.5 -29t29.5 -70q0 -43 -29.5 -72.5t-68.5 -29.5zM312 -150l106 241h-130l-106 -241h130z" />
<glyph unicode="?" d="M300 635q85 0 150 -57t65 -145q0 -64 -16 -102t-38.5 -50.5t-45 -19t-38.5 -17t-16 -34.5h-136q0 51 16.5 80t40 39.5t47 19t40 28t16.5 56.5q0 4 -1 10t-5.5 17.5t-13 21t-25.5 16.5t-40 7q-39 0 -62 -32t-23 -82h-130q0 127 62 185.5t153 58.5zM300 181q39 0 68.5 -29 t29.5 -70q0 -43 -29.5 -72.5t-68.5 -29.5t-68.5 29.5t-29.5 72.5q0 41 29.5 70t68.5 29z" />
<glyph unicode="A" d="M420 0l-43 145h-154l-43 -145h-130l185 625h130l185 -625h-130zM261 275h78l-39 130z" />
<glyph unicode="B" d="M439 364q52 -26 81.5 -77t29.5 -94q0 -76 -51.5 -134.5t-137.5 -58.5h-311v625h211q81 0 135 -62t54 -136q0 -30 -11 -63zM180 495v-135h81q27 1 43 20t16 47q0 29 -16.5 48.5t-42.5 19.5h-81zM361 130q27 1 43 18t16 45q0 63 -66 64q-41 -27 -93 -27h-81v-100h181z" />
<glyph unicode="C" d="M301 120q38 0 64 15t36.5 38t14.5 38.5t4 27.5h130q0 -106 -76 -177.5t-173 -71.5t-174 72t-77 177v147q0 105 77 177t174 72t173 -71.5t76 -177.5h-130q0 12 -4 27.5t-14.5 38.5t-36.5 38t-64 15t-65 -15.5t-37.5 -38t-14.5 -38t-4 -27.5v-147q0 -11 4 -26.5t14.5 -38.5 t37.5 -38.5t65 -15.5z" />
<glyph unicode="D" d="M550 313q1 -80 -30 -150t-95 -116.5t-148 -46.5h-227v625h227q122 0 197 -94t76 -218zM277 130q54 0 99 44t44 139t-45 138.5t-98 43.5h-97v-365h97z" />
<glyph unicode="E" d="M550 495h-370v-114h270v-129h-270v-122h370v-130h-500v625h500v-130z" />
<glyph unicode="F" d="M550 495h-370v-163h370v-130h-370v-202h-130v625h500v-130z" />
<glyph unicode="G" d="M550 345v-345h-130v215q0 -117 -50 -170.5t-125 -53.5q-74 0 -134.5 65.5t-60.5 183.5v145q0 120 66.5 184t158.5 65t158.5 -64t66.5 -185h-130q0 49 -26.5 84.5t-68.5 35.5t-69 -35.5t-26 -84.5v-145q0 -120 65 -120q63 0 63 95h-78v130h320z" />
<glyph unicode="H" d="M420 625h130v-625h-130v248h-240v-248h-130v625h130v-247h240v247z" />
<glyph unicode="I" d="M550 495h-185v-365h185v-130h-500v130h185v365h-185v130h500v-130z" />
<glyph unicode="J" d="M550 625v-130h-150v-255q0 -119 -52.5 -184t-124.5 -65q-71 0 -122 64.5t-51 184.5h129q0 -120 44 -120q47 0 47 120v255h-220v130h500z" />
<glyph unicode="K" d="M550 625l-249 -302l249 -323h-159l-173 224l-38 -46v-178h-130v625h130v-271l224 271h146z" />
<glyph unicode="L" d="M180 130h370v-130h-500v625h130v-495z" />
<glyph unicode="M" d="M550 625v-625h-130v202l-55 -202h-130l-55 202v-202h-130v625h145l105 -386l105 386h145z" />
<glyph unicode="N" d="M420 625h130v-625h-205l-165 469v-469h-130v625h205l165 -469v469z" />
<glyph unicode="O" d="M301 635q97 0 173 -71.5t76 -177.5v-147q0 -106 -76 -177.5t-173 -71.5t-174 72t-77 177v147q0 105 77 177t174 72zM301 120q51 -1 85 33t34 86v147q0 52 -34 86t-85 33q-53 -2 -87 -34.5t-34 -84.5v-147q0 -52 34 -84.5t87 -34.5z" />
<glyph unicode="P" d="M311 625q113 0 176 -65.5t63 -144.5t-63.5 -144.5t-175.5 -65.5h-131v-205h-130v625h261zM311 335q34 0 57.5 8.5t33.5 22t14 25.5t4 24q0 13 -4 25t-14 25.5t-33.5 21.5t-57.5 8h-131v-160h131z" />
<glyph unicode="Q" d="M550 386v-147q0 -87 -55 -155l55 -84h-145l-7 11q-46 -21 -97 -21q-97 0 -174 72t-77 177v147q0 105 77 177t174 72t173 -71.5t76 -177.5zM416 205q4 15 4 34v147q0 52 -34 86t-85 33q-53 -2 -87 -34.5t-34 -84.5v-147q0 -52 34 -84.5t87 -34.5q16 0 24 2l-107 161h147z " />
<glyph unicode="R" d="M397 240l173 -240h-146l-143 205h-81v-205h-130v625h211q96 0 152.5 -66t56.5 -144q0 -49 -24.5 -97t-68.5 -78zM200 335h81q33 1 56 23.5t23 56.5q0 35 -23 57.5t-56 22.5h-81v-160z" />
<glyph unicode="S" d="M550 190q1 -71 -49.5 -130.5t-139.5 -59.5h-210v131h210q10 0 22 3.5t25.5 18t13.5 37.5q0 30 -22 43.5t-39 13.5h-122q-87 0 -138 61t-51 131t51 128t138 58h183v-129h-183q-9 0 -21.5 -3.5t-26 -17.5t-13.5 -36q0 -25 13.5 -40t25.5 -18.5t22 -3.5h122q86 0 137 -59 t52 -128z" />
<glyph unicode="T" d="M550 625v-130h-185v-495h-130v495h-185v130h500z" />
<glyph unicode="U" d="M420 625h130v-390q0 -116 -74 -180.5t-176 -64.5q-101 0 -175.5 65t-74.5 180v390h130v-390q0 -56 35.5 -87t84.5 -31t84.5 31t35.5 87v390z" />
<glyph unicode="V" d="M420 625h130l-177 -625h-146l-177 625h130l120 -424z" />
<glyph unicode="W" d="M420 625h130v-625h-205l-45 256l-45 -256h-205v625h130v-312l55 312h130l55 -312v312z" />
<glyph unicode="X" d="M550 625l-180 -310l180 -315h-138l-112 193l-112 -193h-138l181 312l-181 313h148l105 -189l109 189h138z" />
<glyph unicode="Y" d="M412 625h138l-162 -625h-138l38 148l-238 477h148l137 -297z" />
<glyph unicode="Z" d="M550 625l-283 -495h283v-130h-500l283 495h-283v130h500z" />
<glyph unicode="[" d="M550 570h-371v-540h371v-130h-500v800h500v-130z" />
<glyph unicode="\" d="M500 0h-130l-370 700h130z" />
<glyph unicode="]" d="M550 700v-800h-500v130h371v540h-371v130h500z" />
<glyph unicode="_" d="M550 130h-500v-130h500v130z" />
<glyph unicode="`" d="M218 799l-71 -109l252 -164l70 109z" />
<glyph unicode="a" d="M478 130h72v-130h-182q-55 -60 -133 -60q-73 0 -129 55.5t-56 143.5t56 143.5t129 55.5q63 0 113 -41v73h-298v130h428v-370zM235 70q22 0 38.5 18.5t16.5 50.5t-16.5 50.5t-38.5 18.5q-23 0 -39 -18t-16 -51q0 -32 16.5 -50.5t38.5 -18.5z" />
<glyph unicode="b" d="M50 700h150v-700h-150v700zM375 509q72 -1 123.5 -67t51.5 -192t-52 -192.5t-124 -66.5t-123 66.5t-51 192.5t51.5 193t123.5 66zM374 120q18 0 32 35.5t14 94.5t-13.5 94.5t-31.5 35.5t-31.5 -35.5t-13.5 -94.5q0 -60 13 -95t31 -35z" />
<glyph unicode="c" d="M420 235h130q-11 -117 -85 -181t-164 -64q-98 0 -174.5 74.5t-76.5 185.5q0 112 76.5 186t174.5 74q84 0 155.5 -53.5t84.5 -136.5h-135q-23 60 -105 60q-50 0 -85.5 -34t-35.5 -96q0 -61 35.5 -94.5t85.5 -35.5q43 -2 75.5 27t43.5 88z" />
<glyph unicode="d" d="M400 700h150v-700h-150v700zM225 509q71 1 123 -69t52 -190t-52 -189.5t-123 -69.5q-70 0 -122.5 69t-52.5 190q0 120 52 189t123 70zM225 120q18 0 31.5 35.5t13.5 94.5t-13.5 94.5t-31.5 35.5t-31.5 -35.5t-13.5 -94.5t13.5 -94.5t31.5 -35.5z" />
<glyph unicode="e" d="M180 130h370v-130h-500v291h84q-5 27 -5 50q0 88 56 143.5t129 55.5t129 -55.5t56 -143.5t-56 -143.5t-129 -55.5q-79 0 -134 61v-73zM314 410q-21 0 -38 -19.5t-17 -49.5t17 -49.5t38 -19.5q22 0 38.5 19.5t16.5 49.5t-16.5 49.5t-38.5 19.5z" />
<glyph unicode="f" d="M305 451v-66h169v-130h-169v-255h-130v255h-125v130h125v66q0 118 57 183.5t130 65.5t130.5 -65t57.5 -184h-130q0 120 -58 120q-57 0 -57 -120z" />
<glyph unicode="g" d="M387 95q80 0 121.5 -50.5t41.5 -102.5q0 -55 -52 -103t-141 -49h-114q-88 0 -140.5 57t-52.5 115v133l90 105q-30 49 -30 111q0 88 56 143.5t129 55.5q43 0 78 -19l8 9h165l-83 -104q17 -39 17 -85q0 -88 -56 -143.5t-129 -55.5q-29 0 -59 11l-23 -28h174zM295 380 q-27 0 -41 -20t-14 -49t14 -49t41 -20q26 0 40.5 20t14.5 49t-14.5 49t-40.5 20zM357 -80q39 0 51 4.5t12 17.5q0 23 -33 23h-207v-3q0 -15 6 -24.5t18 -13t19 -4t20 -0.5h114z" />
<glyph unicode="h" d="M365 510q73 0 129 -54t56 -135v-321h-130v321q0 22 -14.5 40.5t-40.5 18.5t-40.5 -18.5t-14.5 -40.5v-321h-260v700h130v-379q0 82 56.5 135.5t128.5 53.5z" />
<glyph unicode="i" d="M390 660v-130h-150v130h150zM380 130h170v-130h-500v130h200v240h-200v130h330v-370z" />
<glyph unicode="j" d="M400 665h150v-130h-150v130zM50 500h475v-500q0 -101 -71 -154t-166 -53q-94 -1 -166 49t-72 138h130q0 -8 4.5 -17t15.5 -19t34 -16t54 -6q107 0 107 78v370h-345v130z" />
<glyph unicode="k" d="M385 0l-159 168l-46 -33v-135h-130v700h130v-411l286 211l77 -105l-216 -155l223 -240h-165z" />
<glyph unicode="l" d="M370 130h180v-130h-500v130h191v440h-191v130h320v-570z" />
<glyph unicode="m" d="M550 500v-500h-130v370h-55v-370h-130v267q0 103 -28 103q-15 0 -21 -23.5t-6 -79.5v-267h-130v500h500z" />
<glyph unicode="n" d="M365 508q75 0 130 -49.5t55 -137.5v-321h-130v321q0 28 -16.5 44t-38.5 16q-23 0 -39 -16t-16 -44v-321h-260v500h130v-179q0 88 55 137.5t130 49.5z" />
<glyph unicode="o" d="M301 510q98 0 173.5 -73.5t75.5 -186.5t-75.5 -186.5t-173.5 -73.5t-174.5 73.5t-76.5 186.5t76.5 186.5t174.5 73.5zM301 120q49 0 84 33.5t35 96.5q0 57 -36 93.5t-83 36.5q-48 0 -84.5 -36t-36.5 -94q0 -63 35.5 -96.5t85.5 -33.5z" />
<glyph unicode="p" d="M377 509q72 0 122.5 -66t50.5 -193t-50.5 -192.5t-122.5 -66.5t-124.5 66t-52.5 193t52 192.5t125 66.5zM50 500h150v-700h-150v700zM377 110q43 0 43 140q0 130 -43 130q-47 0 -47 -130q0 -140 47 -140z" />
<glyph unicode="q" d="M225 509q71 0 123 -69.5t52 -189.5t-52 -190t-123 -69t-123 70t-52 189q0 121 52.5 190t122.5 69zM400 500h150v-700h-150v700zM225 120q18 0 31.5 35.5t13.5 94.5t-13.5 94.5t-31.5 35.5t-31.5 -35.5t-13.5 -94.5t13.5 -94.5t31.5 -35.5z" />
<glyph unicode="r" d="M365 510q73 0 129 -54t56 -135h-130q0 22 -14.5 40.5t-40.5 18.5t-40.5 -18.5t-14.5 -40.5v-321h-260v500h130v-179q0 82 56.5 135.5t128.5 53.5z" />
<glyph unicode="s" d="M370 270q38 -29 55 -66.5t13 -73.5t-25 -69q-23 -36 -63.5 -58t-92.5 -22q-78 0 -142.5 63.5t-64.5 156.5h130q0 -37 26 -64t56 -29q27 -2 41 19q19 27 -65 89q-65 48 -74.5 118.5t38.5 125.5q50 62 138 62q79 0 144.5 -63t65.5 -156h-130q0 29 -19.5 54t-60.5 25 t-41 -32q0 -28 71 -80z" />
<glyph unicode="t" d="M550 370h-228l-68 -191q0 -24 25 -41.5t61 -17.5q29 0 54.5 18t25.5 41h130q0 -82 -61.5 -135.5t-148.5 -53.5q-93 0 -154.5 52.5t-61.5 136.5l68 191h-142v130h189l71 200h130l-71 -200h181v-130z" />
<glyph unicode="u" d="M440 130h130v-130h-257q-27 -10 -58 -10q-73 0 -129 54t-56 135v321h130v-321q0 -59 55 -59t55 59v321h130v-370z" />
<glyph unicode="v" d="M420 500h130l-185 -500h-130l-185 500h130l120 -324z" />
<glyph unicode="w" d="M420 500h130l-76 -500h-155l-19 138l-19 -138h-155l-76 500h130l21 -138l19 138h160l19 -138z" />
<glyph unicode="x" d="M550 500l-178 -243l178 -257h-154l-100 144l-92 -144h-154l173 251l-173 249h154l96 -138l96 138h154z" />
<glyph unicode="y" d="M314 -13l-30 -67v1l-56 -121h-140l130 283l-168 417h140l100 -261l120 261h140z" />
<glyph unicode="z" d="M550 500v-130l-80 -56h80v-129h-259l-77 -55h336v-130h-500v130l77 55h-77v129h267l85 56h-352v130h500z" />
<glyph unicode="{" d="M453 680q-30 0 -78.5 -37t-75.5 -101q85 68 154 68v-130q-32 0 -83.5 -41t-76.5 -112q25 -72 76.5 -114.5t83.5 -42.5v-130q-69 0 -153 69q27 -64 75.5 -101.5t77.5 -37.5v-130q-38 0 -89 27t-100 74.5t-83 123.5t-34 162q0 53 12 100q-12 46 -12 100q0 69 22.5 132 t57 107.5t76 78t81 49.5t69.5 16v-130z" />
<glyph unicode="}" d="M453 427q0 -53 -12 -100q12 -47 12 -100q0 -86 -34 -162t-83 -123.5t-100 -74.5t-89 -27v130q29 0 77.5 37.5t75.5 101.5q-84 -69 -153 -69v130q32 0 83.5 42.5t76.5 114.5q-25 71 -76.5 112t-83.5 41v130q69 0 154 -68q-27 64 -75.5 101t-78.5 37v130q30 0 69.5 -16 t81 -49.5t76 -78t57 -107.5t22.5 -132z" />
<glyph unicode="&#xa1;" d="M300 500q39 0 68.5 -29.5t29.5 -72.5q0 -41 -29.5 -70t-68.5 -29t-68.5 29t-29.5 70q0 43 29.5 72.5t68.5 29.5zM235 -225v485h130v-485h-130z" />
<glyph unicode="&#xa8;" d="M200 600q-39 0 -68.5 29.5t-29.5 72.5q0 41 29.5 70t68.5 29t68.5 -29t29.5 -70q0 -43 -29.5 -72.5t-68.5 -29.5zM400 600q-39 0 -68.5 29.5t-29.5 72.5q0 41 29.5 70t68.5 29t68.5 -29t29.5 -70q0 -43 -29.5 -72.5t-68.5 -29.5z" />
<glyph unicode="&#xab;" d="M350 430l-232 -180l232 -180v-130l-300 233v155l300 232v-130zM550 560v-130l-232 -180l232 -180v-130l-300 233v155z" />
<glyph unicode="&#xaf;" d="M450 795h-300v-130h300v130z" />
<glyph unicode="&#xb4;" d="M382 799l-251 -164l70 -109l252 164z" />
<glyph unicode="&#xb7;" d="M300 150q-39 0 -68.5 29.5t-29.5 72.5q0 41 29.5 70t68.5 29t68.5 -29t29.5 -70q0 -43 -29.5 -72.5t-68.5 -29.5z" />
<glyph unicode="&#xb8;" d="M343 -143h-130l72 143h130z" />
<glyph unicode="&#xbb;" d="M350 173l-300 -233v130l232 180l-232 180v130l300 -232v-155zM250 560l300 -232v-155l-300 -233v130l232 180l-232 180v130z" />
<glyph unicode="&#xbf;" d="M300 319q-39 0 -68.5 29t-29.5 70q0 43 29.5 72.5t68.5 29.5t68.5 -29.5t29.5 -72.5q0 -41 -29.5 -70t-68.5 -29zM385 109h130q0 -127 -62 -185.5t-153 -58.5q-85 0 -150 57t-65 145q0 64 16 102t38.5 50.5t45 19t38.5 17t16 34.5h136q0 -51 -16.5 -80t-40 -39.5t-47 -19 t-40 -28t-16.5 -56.5q0 -4 1 -10t5.5 -17.5t13 -21t25.5 -16.5t40 -7q39 0 62 32t23 82z" />
<glyph unicode="&#xc0;" d="M460 753l-70 -109l-252 164l71 109zM420 0l-43 145h-154l-43 -145h-130l185 625h130l185 -625h-130zM261 275h78l-39 130z" />
<glyph unicode="&#xc1;" d="M461 810l-252 -164l-70 109l251 164zM420 0l-43 145h-154l-43 -145h-130l185 625h130l185 -625h-130zM261 275h78l-39 130z" />
<glyph unicode="&#xc2;" d="M476 643l-175 94l-177 -94v129l177 97l175 -97v-129zM420 0l-43 145h-154l-43 -145h-130l185 625h130l185 -625h-130zM261 275h78l-39 130z" />
<glyph unicode="&#xc3;" d="M500 710q-27 -40 -57 -52t-57.5 -0.5t-56.5 32l-58 41t-56.5 32t-57.5 -0.5t-57 -52v130q27 40 57 52t57.5 0.5t56.5 -32l58 -41t56.5 -32t57.5 0.5t57 52v-130zM420 0l-43 145h-154l-43 -145h-130l185 625h130l185 -625h-130zM261 275h78l-39 130z" />
<glyph unicode="&#xc4;" d="M200 640q-39 0 -68.5 29.5t-29.5 72.5q0 41 29.5 70t68.5 29t68.5 -29t29.5 -70q0 -43 -29.5 -72.5t-68.5 -29.5zM400 640q-39 0 -68.5 29.5t-29.5 72.5q0 41 29.5 70t68.5 29t68.5 -29t29.5 -70q0 -43 -29.5 -72.5t-68.5 -29.5zM420 0l-43 145h-154l-43 -145h-130 l185 625h130l185 -625h-130zM261 275h78l-39 130z" />
<glyph unicode="&#xc5;" d="M420 0l-43 145h-154l-43 -145h-130l185 625h35q-29 10 -48.5 36.5t-19.5 60.5q0 41 29.5 70t68.5 29t68.5 -29t29.5 -70q0 -34 -19.5 -60.5t-48.5 -36.5h35l185 -625h-130zM300 751q-11 0 -20 -8.5t-9 -20.5t8.5 -21t20.5 -9t20.5 9t8.5 21t-9 20.5t-20 8.5zM261 275h78 l-39 130z" />
<glyph unicode="&#xc6;" d="M420 130h230v-130h-320l-45 145h-170l-45 -145h-130l192 625h418v-130h-243l34 -109h209v-129h-169zM154 275h91l-45 147z" />
<glyph unicode="&#xc7;" d="M301 120q38 0 64 15t36.5 38t14.5 38.5t4 27.5h130q0 -87 -53 -152.5t-131 -87.5l-72 -142h-130l72 142q-79 23 -132.5 88t-53.5 152v147q0 105 77 177t174 72t173 -71.5t76 -177.5h-130q0 12 -4 27.5t-14.5 38.5t-36.5 38t-64 15t-65 -15.5t-37.5 -38t-14.5 -38 t-4 -27.5v-147q0 -11 4 -26.5t14.5 -38.5t37.5 -38.5t65 -15.5z" />
<glyph unicode="&#xc8;" d="M460 753l-70 -109l-252 164l71 109zM550 495h-370v-114h270v-129h-270v-122h370v-130h-500v625h500v-130z" />
<glyph unicode="&#xc9;" d="M461 810l-252 -164l-70 109l251 164zM550 495h-370v-114h270v-129h-270v-122h370v-130h-500v625h500v-130z" />
<glyph unicode="&#xca;" d="M476 643l-175 94l-177 -94v129l177 97l175 -97v-129zM550 495h-370v-114h270v-129h-270v-122h370v-130h-500v625h500v-130z" />
<glyph unicode="&#xcb;" d="M200 640q-39 0 -68.5 29.5t-29.5 72.5q0 41 29.5 70t68.5 29t68.5 -29t29.5 -70q0 -43 -29.5 -72.5t-68.5 -29.5zM400 640q-39 0 -68.5 29.5t-29.5 72.5q0 41 29.5 70t68.5 29t68.5 -29t29.5 -70q0 -43 -29.5 -72.5t-68.5 -29.5zM550 495h-370v-114h270v-129h-270v-122 h370v-130h-500v625h500v-130z" />
<glyph unicode="&#xcc;" d="M460 753l-70 -109l-252 164l71 109zM550 495h-185v-365h185v-130h-500v130h185v365h-185v130h500v-130z" />
<glyph unicode="&#xcd;" d="M461 810l-252 -164l-70 109l251 164zM550 495h-185v-365h185v-130h-500v130h185v365h-185v130h500v-130z" />
<glyph unicode="&#xce;" d="M476 643l-175 94l-177 -94v129l177 97l175 -97v-129zM550 495h-185v-365h185v-130h-500v130h185v365h-185v130h500v-130z" />
<glyph unicode="&#xcf;" d="M200 640q-39 0 -68.5 29.5t-29.5 72.5q0 41 29.5 70t68.5 29t68.5 -29t29.5 -70q0 -43 -29.5 -72.5t-68.5 -29.5zM400 640q-39 0 -68.5 29.5t-29.5 72.5q0 41 29.5 70t68.5 29t68.5 -29t29.5 -70q0 -43 -29.5 -72.5t-68.5 -29.5zM550 495h-185v-365h185v-130h-500v130 h185v365h-185v130h500v-130z" />
<glyph unicode="&#xd0;" d="M550 308v-60h-5q-18 -106 -89 -177t-179 -71h-227v248h130v-118h97q43 0 82.5 28.5t53.5 89.5h-233v130h232q-15 61 -54 89t-81 28h-97v-117h-130v247h227q105 0 176 -71t91 -176h6v-65v-5z" />
<glyph unicode="&#xd1;" d="M500 710q-27 -40 -57 -52t-57.5 -0.5t-56.5 32l-58 41t-56.5 32t-57.5 -0.5t-57 -52v130q27 40 57 52t57.5 0.5t56.5 -32l58 -41t56.5 -32t57.5 0.5t57 52v-130zM420 625h130v-625h-205l-165 469v-469h-130v625h205l165 -469v469z" />
<glyph unicode="&#xd2;" d="M460 753l-70 -109l-252 164l71 109zM301 635q97 0 173 -71.5t76 -177.5v-147q0 -106 -76 -177.5t-173 -71.5t-174 72t-77 177v147q0 105 77 177t174 72zM301 120q51 -1 85 33t34 86v147q0 52 -34 86t-85 33q-53 -2 -87 -34.5t-34 -84.5v-147q0 -52 34 -84.5t87 -34.5z " />
<glyph unicode="&#xd3;" d="M461 810l-252 -164l-70 109l251 164zM301 635q97 0 173 -71.5t76 -177.5v-147q0 -106 -76 -177.5t-173 -71.5t-174 72t-77 177v147q0 105 77 177t174 72zM301 120q51 -1 85 33t34 86v147q0 52 -34 86t-85 33q-53 -2 -87 -34.5t-34 -84.5v-147q0 -52 34 -84.5t87 -34.5z " />
<glyph unicode="&#xd4;" d="M476 643l-175 94l-177 -94v129l177 97l175 -97v-129zM301 635q97 0 173 -71.5t76 -177.5v-147q0 -106 -76 -177.5t-173 -71.5t-174 72t-77 177v147q0 105 77 177t174 72zM301 120q51 -1 85 33t34 86v147q0 52 -34 86t-85 33q-53 -2 -87 -34.5t-34 -84.5v-147 q0 -52 34 -84.5t87 -34.5z" />
<glyph unicode="&#xd5;" d="M500 710q-27 -40 -57 -52t-57.5 -0.5t-56.5 32l-58 41t-56.5 32t-57.5 -0.5t-57 -52v130q27 40 57 52t57.5 0.5t56.5 -32l58 -41t56.5 -32t57.5 0.5t57 52v-130zM301 635q97 0 173 -71.5t76 -177.5v-147q0 -106 -76 -177.5t-173 -71.5t-174 72t-77 177v147q0 105 77 177 t174 72zM301 120q51 -1 85 33t34 86v147q0 52 -34 86t-85 33q-53 -2 -87 -34.5t-34 -84.5v-147q0 -52 34 -84.5t87 -34.5z" />
<glyph unicode="&#xd6;" d="M200 640q-39 0 -68.5 29.5t-29.5 72.5q0 41 29.5 70t68.5 29t68.5 -29t29.5 -70q0 -43 -29.5 -72.5t-68.5 -29.5zM400 640q-39 0 -68.5 29.5t-29.5 72.5q0 41 29.5 70t68.5 29t68.5 -29t29.5 -70q0 -43 -29.5 -72.5t-68.5 -29.5zM301 635q97 0 173 -71.5t76 -177.5v-147 q0 -106 -76 -177.5t-173 -71.5t-174 72t-77 177v147q0 105 77 177t174 72zM301 120q51 -1 85 33t34 86v147q0 52 -34 86t-85 33q-53 -2 -87 -34.5t-34 -84.5v-147q0 -52 34 -84.5t87 -34.5z" />
<glyph unicode="&#xd8;" d="M550 663l-61 -115q61 -71 61 -162v-147q0 -106 -76 -177.5t-173 -71.5q-48 0 -96 20l-25 -47h-130l61 115q-61 71 -61 161v147q0 105 77 177t174 72q47 0 94 -19l25 47h130zM180 239q0 -9 2 -25l153 287q-15 4 -34 4q-53 -2 -87 -34.5t-34 -84.5v-147zM420 386 q0 14 -3 26l-151 -287q18 -5 35 -5q51 -1 85 33t34 86v147z" />
<glyph unicode="&#xd9;" d="M460 753l-70 -109l-252 164l71 109zM420 625h130v-390q0 -116 -74 -180.5t-176 -64.5q-101 0 -175.5 65t-74.5 180v390h130v-390q0 -56 35.5 -87t84.5 -31t84.5 31t35.5 87v390z" />
<glyph unicode="&#xda;" d="M461 810l-252 -164l-70 109l251 164zM420 625h130v-390q0 -116 -74 -180.5t-176 -64.5q-101 0 -175.5 65t-74.5 180v390h130v-390q0 -56 35.5 -87t84.5 -31t84.5 31t35.5 87v390z" />
<glyph unicode="&#xdb;" d="M476 643l-175 94l-177 -94v129l177 97l175 -97v-129zM420 625h130v-390q0 -116 -74 -180.5t-176 -64.5q-101 0 -175.5 65t-74.5 180v390h130v-390q0 -56 35.5 -87t84.5 -31t84.5 31t35.5 87v390z" />
<glyph unicode="&#xdc;" d="M200 640q-39 0 -68.5 29.5t-29.5 72.5q0 41 29.5 70t68.5 29t68.5 -29t29.5 -70q0 -43 -29.5 -72.5t-68.5 -29.5zM400 640q-39 0 -68.5 29.5t-29.5 72.5q0 41 29.5 70t68.5 29t68.5 -29t29.5 -70q0 -43 -29.5 -72.5t-68.5 -29.5zM420 625h130v-390q0 -116 -74 -180.5 t-176 -64.5q-101 0 -175.5 65t-74.5 180v390h130v-390q0 -56 35.5 -87t84.5 -31t84.5 31t35.5 87v390z" />
<glyph unicode="&#xdd;" d="M461 810l-252 -164l-70 109l251 164zM412 625h138l-162 -625h-138l38 148l-238 477h148l137 -297z" />
<glyph unicode="&#xde;" d="M311 560q113 0 176 -65.5t63 -144.5t-63.5 -144.5t-175.5 -65.5h-131v-140h-130v700h130v-140h131zM311 270q34 0 57.5 8.5t33.5 22t14 25.5t4 24q0 13 -4 25t-14 25.5t-33.5 21.5t-57.5 8h-131v-160h131z" />
<glyph unicode="&#xdf;" d="M439 364q52 -26 81.5 -77t29.5 -94q0 -76 -51.5 -134.5t-137.5 -58.5h-131v130h131q27 1 43 18t16 45q0 63 -66 64q-41 -27 -93 -27h-81v-380h-130v775h211q81 0 135 -62t54 -136q0 -30 -11 -63zM261 360q27 1 43 20t16 47q0 29 -16.5 48.5t-42.5 19.5h-81v-135h81z" />
<glyph unicode="&#xe0;" d="M426 635l-70 -109l-252 164l71 109zM478 130h72v-130h-182q-55 -60 -133 -60q-73 0 -129 55.5t-56 143.5t56 143.5t129 55.5q63 0 113 -41v73h-298v130h428v-370zM235 70q22 0 38.5 18.5t16.5 50.5t-16.5 50.5t-38.5 18.5q-23 0 -39 -18t-16 -51q0 -32 16.5 -50.5 t38.5 -18.5z" />
<glyph unicode="&#xe1;" d="M426 690l-252 -164l-70 109l251 164zM478 130h72v-130h-182q-55 -60 -133 -60q-73 0 -129 55.5t-56 143.5t56 143.5t129 55.5q63 0 113 -41v73h-298v130h428v-370zM235 70q22 0 38.5 18.5t16.5 50.5t-16.5 50.5t-38.5 18.5q-23 0 -39 -18t-16 -51q0 -32 16.5 -50.5 t38.5 -18.5z" />
<glyph unicode="&#xe2;" d="M441 518l-175 94l-177 -94v129l177 97l175 -97v-129zM478 130h72v-130h-182q-55 -60 -133 -60q-73 0 -129 55.5t-56 143.5t56 143.5t129 55.5q63 0 113 -41v73h-298v130h428v-370zM235 70q22 0 38.5 18.5t16.5 50.5t-16.5 50.5t-38.5 18.5q-23 0 -39 -18t-16 -51 q0 -32 16.5 -50.5t38.5 -18.5z" />
<glyph unicode="&#xe3;" d="M465 577q-27 -40 -57 -52t-57.5 -0.5t-56.5 32l-58 41t-56.5 32t-57.5 -0.5t-57 -52v130q27 40 57 52t57.5 0.5t56.5 -32l58 -41t56.5 -32t57.5 0.5t57 52v-130zM478 130h72v-130h-182q-55 -60 -133 -60q-73 0 -129 55.5t-56 143.5t56 143.5t129 55.5q63 0 113 -41v73 h-298v130h428v-370zM235 70q22 0 38.5 18.5t16.5 50.5t-16.5 50.5t-38.5 18.5q-23 0 -39 -18t-16 -51q0 -32 16.5 -50.5t38.5 -18.5z" />
<glyph unicode="&#xe4;" d="M165 530q-39 0 -68.5 29.5t-29.5 72.5q0 41 29.5 70t68.5 29t68.5 -29t29.5 -70q0 -43 -29.5 -72.5t-68.5 -29.5zM365 530q-39 0 -68.5 29.5t-29.5 72.5q0 41 29.5 70t68.5 29t68.5 -29t29.5 -70q0 -43 -29.5 -72.5t-68.5 -29.5zM478 130h72v-130h-182q-55 -60 -133 -60 q-73 0 -129 55.5t-56 143.5t56 143.5t129 55.5q63 0 113 -41v73h-298v130h428v-370zM235 70q22 0 38.5 18.5t16.5 50.5t-16.5 50.5t-38.5 18.5q-23 0 -39 -18t-16 -51q0 -32 16.5 -50.5t38.5 -18.5z" />
<glyph unicode="&#xe5;" d="M363 602q0 -43 -29.5 -72.5t-68.5 -29.5t-68.5 29.5t-29.5 72.5q0 41 29.5 70t68.5 29t68.5 -29t29.5 -70zM265 572q11 0 20 9t9 21t-9 20.5t-20 8.5t-20 -8.5t-9 -20.5t9 -21t20 -9zM478 130h72v-130h-182q-55 -60 -133 -60q-73 0 -129 55.5t-56 143.5t56 143.5 t129 55.5q63 0 113 -41v73h-298v130h428v-370zM235 70q22 0 38.5 18.5t16.5 50.5t-16.5 50.5t-38.5 18.5q-23 0 -39 -18t-16 -51q0 -32 16.5 -50.5t38.5 -18.5z" />
<glyph unicode="&#xe7;" d="M550 235q-11 -117 -85 -181t-164 -64q-98 0 -174.5 74.5t-76.5 185.5q0 112 76.5 186t174.5 74q84 0 155.5 -53.5t84.5 -136.5h-135q-23 60 -105 60q-50 0 -85.5 -34t-35.5 -96q0 -61 35.5 -94.5t85.5 -35.5q43 -2 75.5 27t43.5 88h130zM165 -153l72 143h130l-72 -143 h-130z" />
<glyph unicode="&#xe8;" d="M476 635l-70 -109l-252 164l71 109zM180 130h370v-130h-500v291h84q-5 27 -5 50q0 88 56 143.5t129 55.5t129 -55.5t56 -143.5t-56 -143.5t-129 -55.5q-79 0 -134 61v-73zM314 410q-21 0 -38 -19.5t-17 -49.5t17 -49.5t38 -19.5q22 0 38.5 19.5t16.5 49.5t-16.5 49.5 t-38.5 19.5z" />
<glyph unicode="&#xe9;" d="M476 690l-252 -164l-70 109l251 164zM180 130h370v-130h-500v291h84q-5 27 -5 50q0 88 56 143.5t129 55.5t129 -55.5t56 -143.5t-56 -143.5t-129 -55.5q-79 0 -134 61v-73zM314 410q-21 0 -38 -19.5t-17 -49.5t17 -49.5t38 -19.5q22 0 38.5 19.5t16.5 49.5t-16.5 49.5 t-38.5 19.5z" />
<glyph unicode="&#xea;" d="M491 518l-175 94l-177 -94v129l177 97l175 -97v-129zM180 130h370v-130h-500v291h84q-5 27 -5 50q0 88 56 143.5t129 55.5t129 -55.5t56 -143.5t-56 -143.5t-129 -55.5q-79 0 -134 61v-73zM314 410q-21 0 -38 -19.5t-17 -49.5t17 -49.5t38 -19.5q22 0 38.5 19.5 t16.5 49.5t-16.5 49.5t-38.5 19.5z" />
<glyph unicode="&#xeb;" d="M215 530q-39 0 -68.5 29.5t-29.5 72.5q0 41 29.5 70t68.5 29t68.5 -29t29.5 -70q0 -43 -29.5 -72.5t-68.5 -29.5zM415 530q-39 0 -68.5 29.5t-29.5 72.5q0 41 29.5 70t68.5 29t68.5 -29t29.5 -70q0 -43 -29.5 -72.5t-68.5 -29.5zM180 130h370v-130h-500v291h84 q-5 27 -5 50q0 88 56 143.5t129 55.5t129 -55.5t56 -143.5t-56 -143.5t-129 -55.5q-79 0 -134 61v-73zM314 410q-21 0 -38 -19.5t-17 -49.5t17 -49.5t38 -19.5q22 0 38.5 19.5t16.5 49.5t-16.5 49.5t-38.5 19.5z" />
<glyph unicode="&#xec;" d="M480 635l-70 -109l-252 164l71 109zM380 130h170v-130h-500v130h200v240h-200v130h330v-370z" />
<glyph unicode="&#xed;" d="M480 690l-252 -164l-70 109l251 164zM380 130h170v-130h-500v130h200v240h-200v130h330v-370z" />
<glyph unicode="&#xee;" d="M495 518l-175 94l-177 -94v129l177 97l175 -97v-129zM380 130h170v-130h-500v130h200v240h-200v130h330v-370z" />
<glyph unicode="&#xef;" d="M219 530q-39 0 -68.5 29.5t-29.5 72.5q0 41 29.5 70t68.5 29t68.5 -29t29.5 -70q0 -43 -29.5 -72.5t-68.5 -29.5zM419 530q-39 0 -68.5 29.5t-29.5 72.5q0 41 29.5 70t68.5 29t68.5 -29t29.5 -70q0 -43 -29.5 -72.5t-68.5 -29.5zM380 130h170v-130h-500v130h200v240h-200 v130h330v-370z" />
<glyph unicode="&#xf0;" d="M600 630v-130h-50v-500h-150v500h-50v130h50v70h150v-70h50zM225 509q71 1 123 -69t52 -190t-52 -189.5t-123 -69.5q-70 0 -122.5 69t-52.5 190q0 120 52 189t123 70zM225 120q18 0 31.5 35.5t13.5 94.5t-13.5 94.5t-31.5 35.5t-31.5 -35.5t-13.5 -94.5t13.5 -94.5 t31.5 -35.5z" />
<glyph unicode="&#xf1;" d="M166 707q27 40 57 52t57.5 0.5t56.5 -32l58 -41t56.5 -32t57.5 0.5t57 52v-130q-27 -40 -57 -52t-57.5 -0.5t-56.5 32l-58 41t-56.5 32t-57.5 -0.5t-57 -52v130zM365 508q75 0 130 -49.5t55 -137.5v-321h-130v321q0 28 -16.5 44t-38.5 16q-23 0 -39 -16t-16 -44v-321 h-260v500h130v-179q0 88 55 137.5t130 49.5z" />
<glyph unicode="&#xf2;" d="M461 635l-70 -109l-252 164l71 109zM301 510q98 0 173.5 -73.5t75.5 -186.5t-75.5 -186.5t-173.5 -73.5t-174.5 73.5t-76.5 186.5t76.5 186.5t174.5 73.5zM301 120q49 0 84 33.5t35 96.5q0 57 -36 93.5t-83 36.5q-48 0 -84.5 -36t-36.5 -94q0 -63 35.5 -96.5t85.5 -33.5z " />
<glyph unicode="&#xf3;" d="M461 690l-252 -164l-70 109l251 164zM301 510q98 0 173.5 -73.5t75.5 -186.5t-75.5 -186.5t-173.5 -73.5t-174.5 73.5t-76.5 186.5t76.5 186.5t174.5 73.5zM301 120q49 0 84 33.5t35 96.5q0 57 -36 93.5t-83 36.5q-48 0 -84.5 -36t-36.5 -94q0 -63 35.5 -96.5t85.5 -33.5 z" />
<glyph unicode="&#xf4;" d="M476 518l-175 94l-177 -94v129l177 97l175 -97v-129zM301 510q98 0 173.5 -73.5t75.5 -186.5t-75.5 -186.5t-173.5 -73.5t-174.5 73.5t-76.5 186.5t76.5 186.5t174.5 73.5zM301 120q49 0 84 33.5t35 96.5q0 57 -36 93.5t-83 36.5q-48 0 -84.5 -36t-36.5 -94 q0 -63 35.5 -96.5t85.5 -33.5z" />
<glyph unicode="&#xf5;" d="M500 577q-27 -40 -57 -52t-57.5 -0.5t-56.5 32l-58 41t-56.5 32t-57.5 -0.5t-57 -52v130q27 40 57 52t57.5 0.5t56.5 -32l58 -41t56.5 -32t57.5 0.5t57 52v-130zM301 510q98 0 173.5 -73.5t75.5 -186.5t-75.5 -186.5t-173.5 -73.5t-174.5 73.5t-76.5 186.5t76.5 186.5 t174.5 73.5zM301 120q49 0 84 33.5t35 96.5q0 57 -36 93.5t-83 36.5q-48 0 -84.5 -36t-36.5 -94q0 -63 35.5 -96.5t85.5 -33.5z" />
<glyph unicode="&#xf6;" d="M200 530q-39 0 -68.5 29.5t-29.5 72.5q0 41 29.5 70t68.5 29t68.5 -29t29.5 -70q0 -43 -29.5 -72.5t-68.5 -29.5zM400 530q-39 0 -68.5 29.5t-29.5 72.5q0 41 29.5 70t68.5 29t68.5 -29t29.5 -70q0 -43 -29.5 -72.5t-68.5 -29.5zM301 510q98 0 173.5 -73.5t75.5 -186.5 t-75.5 -186.5t-173.5 -73.5t-174.5 73.5t-76.5 186.5t76.5 186.5t174.5 73.5zM301 120q49 0 84 33.5t35 96.5q0 57 -36 93.5t-83 36.5q-48 0 -84.5 -36t-36.5 -94q0 -63 35.5 -96.5t85.5 -33.5z" />
<glyph unicode="&#xf8;" d="M467 444q83 -76 83 -194q0 -113 -75.5 -186.5t-173.5 -73.5q-37 0 -68 10l-53 -100h-130l83 157q-83 78 -83 193q0 113 76.5 186.5t174.5 73.5q36 0 66 -10l53 100h130zM180 250q0 -43 17 -72l107 202h-3q-48 0 -84.5 -36t-36.5 -94zM301 120q49 0 84 33.5t35 96.5 q0 37 -18 70l-106 -200h5z" />
<glyph unicode="&#xf9;" d="M416 635l-70 -109l-252 164l71 109zM440 130h130v-130h-257q-27 -10 -58 -10q-73 0 -129 54t-56 135v321h130v-321q0 -59 55 -59t55 59v321h130v-370z" />
<glyph unicode="&#xfa;" d="M416 690l-252 -164l-70 109l251 164zM440 130h130v-130h-257q-27 -10 -58 -10q-73 0 -129 54t-56 135v321h130v-321q0 -59 55 -59t55 59v321h130v-370z" />
<glyph unicode="&#xfb;" d="M431 518l-175 94l-177 -94v129l177 97l175 -97v-129zM440 130h130v-130h-257q-27 -10 -58 -10q-73 0 -129 54t-56 135v321h130v-321q0 -59 55 -59t55 59v321h130v-370z" />
<glyph unicode="&#xfc;" d="M155 530q-39 0 -68.5 29.5t-29.5 72.5q0 41 29.5 70t68.5 29t68.5 -29t29.5 -70q0 -43 -29.5 -72.5t-68.5 -29.5zM355 530q-39 0 -68.5 29.5t-29.5 72.5q0 41 29.5 70t68.5 29t68.5 -29t29.5 -70q0 -43 -29.5 -72.5t-68.5 -29.5zM440 130h130v-130h-257q-27 -10 -58 -10 q-73 0 -129 54t-56 135v321h130v-321q0 -59 55 -59t55 59v321h130v-370z" />
<glyph unicode="&#xfd;" d="M461 690l-252 -164l-70 109l251 164zM314 -13l-30 -67v1l-56 -121h-140l130 283l-168 417h140l100 -261l120 261h140z" />
<glyph unicode="&#xfe;" d="M50 700h150v-900h-150v900zM377 509q72 0 122.5 -66t50.5 -193t-50.5 -192.5t-122.5 -66.5t-124.5 66t-52.5 193t52 192.5t125 66.5zM377 110q43 0 43 140q0 130 -43 130q-47 0 -47 -130q0 -140 47 -140z" />
<glyph unicode="&#xff;" d="M200 530q-39 0 -68.5 29.5t-29.5 72.5q0 41 29.5 70t68.5 29t68.5 -29t29.5 -70q0 -43 -29.5 -72.5t-68.5 -29.5zM400 530q-39 0 -68.5 29.5t-29.5 72.5q0 41 29.5 70t68.5 29t68.5 -29t29.5 -70q0 -43 -29.5 -72.5t-68.5 -29.5zM314 -13l-30 -67v1l-56 -121h-140 l130 283l-168 417h140l100 -261l120 261h140z" />
<glyph unicode="&#x131;" d="M380 130h170v-130h-500v130h200v240h-200v130h330v-370z" />
<glyph unicode="&#x152;" d="M583 635v-130h-96q31 -54 31 -119h65v-129h-65v-18q0 -65 -31 -119h96v-130h-314q-97 0 -174 72t-77 177v147q0 105 77 177t174 72h314zM388 386q0 50 -31.5 84t-79.5 35h-8q-53 -2 -87 -34.5t-34 -84.5v-147q0 -52 34 -84.5t87 -34.5h8q48 1 79.5 35t31.5 84v147z" />
<glyph unicode="&#x153;" d="M426 120q51 0 83 33l86 -93q-72 -70 -169 -70q-67 0 -126 36q-54 -36 -124 -36q-98 0 -174.5 73.5t-76.5 186.5t76.5 186.5t174.5 73.5q68 0 122 -37q60 37 128 37q102 0 175.5 -84t73.5 -241h-357q30 -65 108 -65zM55 250q0 -63 35.5 -96.5t85.5 -33.5q17 0 30 4 q-31 59 -31 126t31 126q-13 4 -30 4q-48 0 -84.5 -36t-36.5 -94zM521 315q-32 65 -95 65q-32 0 -61 -17.5t-45 -47.5h201z" />
<glyph unicode="&#x178;" d="M200 640q-39 0 -68.5 29.5t-29.5 72.5q0 41 29.5 70t68.5 29t68.5 -29t29.5 -70q0 -43 -29.5 -72.5t-68.5 -29.5zM400 640q-39 0 -68.5 29.5t-29.5 72.5q0 41 29.5 70t68.5 29t68.5 -29t29.5 -70q0 -43 -29.5 -72.5t-68.5 -29.5zM412 625h138l-162 -625h-138l38 148 l-238 477h148l137 -297z" />
<glyph unicode="&#x237;" d="M525 500v-500q0 -101 -71 -154t-166 -53q-94 -1 -166 49t-72 138h130q0 -8 4.5 -17t15.5 -19t34 -16t54 -6q107 0 107 78v370h-155v130h285z" />
<glyph unicode="&#x2c6;" d="M476 647v-129l-175 94l-177 -94v129l177 97z" />
<glyph unicode="&#x2dc;" d="M500 740q-27 -40 -57 -52t-57.5 -0.5t-56.5 32l-58 41t-56.5 32t-57.5 -0.5t-57 -52v-130q27 40 57 52t57.5 0.5t56.5 -32l58 -41t56.5 -32t57.5 0.5t57 52v130z" />
<glyph unicode="&#x2013;" d="M550 330h-500v-130h500v130z" />
<glyph unicode="&#x2014;" horiz-adv-x="1200" d="M1150 330h-1100v-130h1100v130z" />
<glyph unicode="&#x2018;" d="M312 459l106 241h-130l-106 -241h130z" />
<glyph unicode="&#x2019;" d="M312 459l106 241h-130l-106 -241h130z" />
<glyph unicode="&#x201a;" d="M312 -150l106 241h-130l-106 -241h130z" />
<glyph unicode="&#x201c;" d="M442 625v-241h-260v241h260z" />
<glyph unicode="&#x201d;" d="M442 625v-241h-260v241h260z" />
<glyph unicode="&#x201e;" d="M288 91h130l-106 -241h-130z" />
<glyph unicode="&#x2022;" d="M300 150q-39 0 -68.5 29.5t-29.5 72.5q0 41 29.5 70t68.5 29t68.5 -29t29.5 -70q0 -43 -29.5 -72.5t-68.5 -29.5z" />
<glyph unicode="&#x2026;" d="M300 201q39 0 68.5 -29t29.5 -70q0 -43 -29.5 -72.5t-68.5 -29.5t-68.5 29.5t-29.5 72.5q0 41 29.5 70t68.5 29z" />
<glyph unicode="&#x2039;" d="M550 570v-130l-414 -192l414 -193v-130l-500 233v180z" />
<glyph unicode="&#x203a;" d="M50 570l500 -232v-180l-500 -233v130l414 193l-414 192v130z" />
<glyph unicode="&#x2122;" horiz-adv-x="1200" d="M550 625v-130h-185v-495h-130v495h-185v130h500zM1150 625v-625h-130v202l-55 -202h-130l-55 202v-202h-130v625h145l105 -386l105 386h145z" />
<glyph unicode="&#x25fc;" horiz-adv-x="500" d="M0 500h500v-500h-500v500z" />
<glyph d="M473 312q77 -52 77 -127t-51 -130t-138 -55h-311v625h311q95 0 142 -51.5t47 -133.5q0 -74 -77 -128zM436 159q5 16 -16 35t-64.5 32.5t-94.5 13.5v145q79 1 123.5 23.5t43.5 49.5q0 16 -17.5 26.5t-49.5 10.5h-181v-365h181q68 1 75 29z" />
<glyph d="M550 345v-345h-130v215h-20q0 -117 -50 -170.5t-125 -53.5q-71 0 -123 64.5t-52 184.5v145q0 120 51.5 184t123.5 65t123.5 -64t51.5 -185h-130q0 120 -45 120q-23 0 -34.5 -34.5t-10.5 -85.5v-145q0 -120 45 -120q19 0 31 24.5t12 70.5h-38v130h320z" />
<glyph d="M420 625h130v-625h-205l-165 469v-469h-130v625h205l165 -469v469z" />
<glyph d="M516 0h-168l-134 145v-145h-130v625h211q96 0 152.5 -66t56.5 -144q0 -49 -20.5 -96t-65 -80.5t-101.5 -33.5zM214 495v-160h81q33 1 56 23.5t23 56.5q0 35 -23 57.5t-56 22.5h-81z" />
<glyph d="M500 190q1 -71 -49.5 -130.5t-139.5 -59.5h-210v131h210q10 0 22 3.5t25.5 18t13.5 37.5q0 30 -22 43.5t-39 13.5h-122q-87 0 -138 61t-51 131t51 128t138 58h183v-129h-183q-9 0 -21.5 -3.5t-26 -17.5t-13.5 -36q0 -25 13.5 -40t25.5 -18.5t22 -3.5h122q86 0 137 -59 t52 -128z" />
<glyph d="M420 625h130v-625h-315v495h-55v-495h-130v625h315v-495h55v495z" />
<glyph d="M631 -145l-93 -93l-338 338v-100h-130v625h211q96 0 152.5 -66t56.5 -144t-56.5 -144t-152.5 -66zM200 495v-160h81q33 1 56 23.5t23 56.5q0 35 -23 57.5t-56 22.5h-81z" />
<glyph d="M550 495h-370v-118h370v-377h-500v130h370v117h-370v378h500v-130z" />
<glyph d="M550 495h-341l-32 -67l373 -131v-145l-80 -152h-420v130h329l32 71l-361 126v145l80 153h420v-130z" />
<glyph d="M319 550q-39 0 -68.5 29.5t-29.5 72.5q0 41 29.5 70t68.5 29t68.5 -29t29.5 -70q0 -43 -29.5 -72.5t-68.5 -29.5zM380 130h170v-130h-500v130h200v240h-200v130h330v-370z" />
<glyph d="M478 130h72v-130h-182q-55 -60 -133 -60q-73 0 -129 55.5t-56 143.5t56 143.5t129 55.5q63 0 113 -41v73h-298v130h428v-370zM235 70q22 0 38.5 18.5t16.5 50.5t-16.5 50.5t-38.5 18.5q-23 0 -39 -18t-16 -51q0 -32 16.5 -50.5t38.5 -18.5z" />
<glyph d="M210 130h370v-130h-500v291h84q-5 27 -5 50q0 88 56 143.5t129 55.5t129 -55.5t56 -143.5t-56 -143.5t-129 -55.5q-79 0 -134 61v-73zM344 410q-21 0 -38 -19.5t-17 -49.5t17 -49.5t38 -19.5q22 0 38.5 19.5t16.5 49.5t-16.5 49.5t-38.5 19.5z" />
<glyph d="M370 130h180v-130h-500v130h191v440h-191v130h320v-570z" />
<glyph d="M500 500v-500h-130v370h-55v-370h-130v267q0 103 -28 103q-15 0 -21 -23.5t-6 -79.5v-267h-130v500h500z" />
<glyph d="M365 508q75 0 130 -49.5t55 -137.5v-321h-130v321q0 28 -16.5 44t-38.5 16q-23 0 -39 -16t-16 -44v-321h-260v500h130v-179q0 88 55 137.5t130 49.5z" />
<glyph d="M370 270q38 -29 55 -66.5t13 -73.5t-25 -69q-23 -36 -63.5 -58t-92.5 -22q-78 0 -142.5 63.5t-64.5 156.5h130q0 -37 26 -64t56 -29q27 -2 41 19q19 27 -65 89q-65 48 -74.5 118.5t38.5 125.5q50 62 138 62q79 0 144.5 -63t65.5 -156h-130q0 29 -19.5 54t-60.5 25 t-41 -32q0 -28 71 -80z" />
<glyph d="M550 370h-228l-68 -191q0 -24 25 -41.5t61 -17.5q29 0 54.5 18t25.5 41h130q0 -82 -61.5 -135.5t-148.5 -53.5q-93 0 -154.5 52.5t-61.5 136.5l68 191h-142v130h189l71 200h130l-71 -200h181v-130z" />
<glyph d="M370 500h130l-185 -500h-130l-185 500h130l120 -324z" />
<glyph d="M420 500h130v-500h-130v83q-55 -93 -164 -93q-94 0 -150 71.5t-56 188.5t56 188.5t150 71.5q109 0 164 -93v83zM256 120q32 0 53 33t21 97q0 58 -22 94t-52 36q-32 0 -54 -36t-22 -94q0 -64 21.5 -97t54.5 -33z" />
<glyph d="M301 120q51 0 83 33l86 -93q-72 -70 -169 -70q-98 0 -174.5 73.5t-76.5 186.5t76.5 186.5t174.5 73.5q102 0 175.5 -84t73.5 -241h-357q30 -65 108 -65zM301 380q-32 0 -61 -17.5t-45 -47.5h201q-32 65 -95 65z" />
<glyph d="M550 700l-212 -570h212v-130h-500v130h158l164 440h-112v130h290z" />
<glyph d="M392 510q60 0 109 -46t49 -147v-317h-130v317q0 42 -4 52.5t-24 10.5q-19 0 -23 -10.5t-4 -52.5v-317h-129v317q0 41 -4.5 52t-25.5 11q-19 0 -22.5 -10.5t-3.5 -52.5v-317h-130v500h102q26 10 54 10q52 0 94 -32q40 32 92 32z" />
<glyph d="M340 511q90 1 150 -51.5t60 -138.5v-321h-130v321q0 24 -21 42t-59 18q-37 0 -58.5 -17.5t-21.5 -42.5h-80v-321h-130v500h130v-50q59 61 160 61z" />
<glyph d="M317 385q-24 0 -40.5 -21.5t-16.5 -52.5h168v-311h-428v130h298v51h-168v130q0 88 56 143.5t129 55.5q77 0 131 -40t54 -119h-130q0 15 -14.5 24.5t-38.5 9.5z" />
<glyph d="M550 370h-238l-86 -240h324v-130h-500l132 370h-132v130h179l71 200h130l-71 -200h191v-130z" />
<glyph d="M420 500h130l-182 -500h-136l-182 500h130l120 -330z" />
<glyph d="M550 500l-84 -370h84v-130h-182q-55 -60 -133 -60q-73 0 -129 55.5t-56 143.5t56 143.5t129 55.5q79 0 134 -61l21 93h-340v130h500zM235 70q22 0 38.5 18.5t16.5 50.5t-16.5 50.5t-38.5 18.5q-23 0 -39 -18t-16 -51q0 -32 16.5 -50.5t38.5 -18.5z" />
<glyph d="M341 130h159v-130h-500v291h80q-1 7 -1 20q0 88 56 143.5t129 55.5t129 -55.5t56 -143.5q0 -63 -30 -110.5t-78 -70.5zM264 380q-21 0 -38 -19.5t-17 -49.5t17 -49.5t38 -19.5q22 0 38.5 19.5t16.5 49.5t-16.5 49.5t-38.5 19.5zM130 173v-43h57q-33 16 -57 43z" />
<glyph d="M550 370h-369v-55h369v-315h-500v130h368v55h-367v315h499v-130z" />
<glyph d="M500 370h-215v-240h215v-130h-344v370h-156v130h156v200h129v-200h215v-130z" />
<glyph d="M315 380q-26 0 -40.5 -18.5t-14.5 -40.5l110 -142q0 -82 -56.5 -135.5t-128.5 -53.5q-73 0 -129 54t-56 135h130q0 -22 14.5 -40.5t40.5 -18.5t40.5 18.5t14.5 40.5l-110 142q0 82 56.5 135.5t128.5 53.5q73 0 129 -54t56 -135h-130q0 22 -14.5 40.5t-40.5 18.5z" />
<glyph d="M421 120q51 0 83 33l86 -93q-72 -70 -169 -70q-65 0 -120 33q-55 -33 -120 -33q-98 0 -174.5 73.5t-76.5 186.5t76.5 186.5t174.5 73.5q65 0 118 -34q57 34 122 34q102 0 175.5 -84t73.5 -241h-357q30 -65 108 -65zM181 380q-32 0 -61 -17.5t-45 -47.5h103q6 30 24 63 q-14 2 -21 2zM516 315q-32 65 -95 65q-10 0 -32 -4q15 -29 24 -61h103zM73 185q30 -65 108 -65q7 0 21 2q-18 33 -24 63h-105z" />
<glyph d="M550 570h-371v-440h371v-130h-500v700h500v-130z" />
<glyph d="M550 700v-700h-500v130h371v440h-371v130h500z" />
</font>
</defs>
</svg>
