<?xml version="1.0" encoding="utf-8"?>
<!-- Generator: Adobe Illustrator 24.1.0, SVG Export Plug-In . SVG Version: 6.00 Build 0)  -->
<svg version="1.1" xmlns="http://www.w3.org/2000/svg" xmlns:xlink="http://www.w3.org/1999/xlink" x="0px" y="0px"
	 viewBox="0 0 595.3 992.1" style="enable-background:new 0 0 595.3 992.1;" xml:space="preserve">
<style type="text/css">
	.st0{display:none;}
	.st1{display:inline;fill:#D8D8D8;}
</style>
<g id="Calque_2" class="st0">
	<path class="st1" d="M607.5,264.5h-478c-9.2,0-16.7,7.5-16.7,16.7v0c0,9.2,7.5,16.7,16.7,16.7h478c9.2,0,16.7-7.5,16.7-16.7v0
		C624.2,271.9,616.7,264.5,607.5,264.5z"/>
	<path class="st1" d="M715.6,297.8h-478c-9.2,0-16.7,7.5-16.7,16.7v0c0,9.2,7.5,16.7,16.7,16.7h478c9.2,0,16.7-7.5,16.7-16.7v0
		C732.2,305.3,724.8,297.8,715.6,297.8z"/>
	<path class="st1" d="M874.1,328.5h-478c-9.2,0-16.7,7.5-16.7,16.7v0c0,9.2,7.5,16.7,16.7,16.7h478c9.2,0,16.7-7.5,16.7-16.7v0
		C890.8,335.9,883.3,328.5,874.1,328.5z"/>
	<path class="st1" d="M1007.2,361.8h-478c-9.2,0-16.7,7.5-16.7,16.7v0c0,9.2,7.5,16.7,16.7,16.7h478c9.2,0,16.7-7.5,16.7-16.7v0
		C1023.9,369.3,1016.4,361.8,1007.2,361.8z"/>
</g>
<g id="Calque_1">
	<g>
		<path d="M9.9,12.4v103.1H8.2V12.4H9.9z M90.7,14H13.2v-1.6h77.5V14z M90.7,73.1H13.2v-1.6h77.5V73.1z"/>
		<path d="M115.3,12.4h1.6v103.1h-1.6V12.4z M120.3,14v-1.6h26.6V14H120.3z M120.3,73.4v-1.6h26.6v1.6H120.3z M141.9,77.2l1.3-1.3
			l38.3,38.3l-1.3,1.3L141.9,77.2z M181.3,42.9c0-15.2-12.5-30.5-31.2-30.5V14c17.5,0,29.5,14.4,29.5,28.9c0,14.4-12,28.7-29.5,28.9
			v1.6C168.6,73.4,181.3,58.2,181.3,42.9z"/>
		<path d="M244.5,12.4h1.6l-38.3,103.1h-1.6L244.5,12.4z M228.4,71.8v-1.6h37.9v1.6H228.4z M287.1,115.5L248.6,12.4h1.6l38.4,103.1
			H287.1z"/>
		<path d="M305.2,12.4h1.7v103.1h-1.7V12.4z M344.8,115.5L310.2,12.4h1.6l34.6,103.1H344.8z M381.1,12.4h1.6l-31.3,103.1h-1.7
			L381.1,12.4z M386.1,115.5V12.4h1.7v103.1H386.1z"/>
		<path d="M405.9,12.4v103.1h-1.6V12.4H405.9z M486.7,14h-77.5v-1.6h77.5V14z M470.2,64.8h-61v-1.6h61V64.8z M486.7,115.5h-77.5
			v-1.6h77.5V115.5z"/>
		<path d="M534.4,64.8c-21,0-31.2-13-31.2-26.1c0-13.2,10.4-26.4,31.2-26.4V14c-19.8-0.2-29.9,12.2-29.7,24.7
			c0,12,9.7,24.1,29.7,24.4V64.8z M551.3,115.5v-1.6h-31.3v1.6H551.3z M537.7,14h26.9v-1.6h-26.9V14z M537.7,64.8h13.5v-1.6h-13.5
			V64.8z M554.6,115.5v-1.6c19.3,0,29.4-12.5,29.5-24.9c0.2-12.2-9.7-24.3-29.5-24.1v-1.6c20.8,0,31.2,13,31.2,26.1
			C585.7,102.3,575.2,115.5,554.6,115.5z"/>
	</g>
	<g>
		<path d="M18.5,148.4c0,1.7,0.2,3.4,0.3,5c4.7-12.7,16.6-19.8,22.8-19.8v2.4c-6.2,0-18.5,6.8-22.2,20.6c3.6,14.3,16,22.4,22.2,22.4
			v0.8c-6.2,0-18.1-7.3-22.8-20.1c-0.2,1.5-0.3,3.2-0.3,4.9c0,19.3,15.8,30.5,23.2,30.5v0.8c-7.9,0-24.8-11.7-24.8-31.3
			c0-2.8,0.3-5.6,1-8.1c-0.6-2.5-1-5.2-1-8.1c0-19.6,16.8-31,24.8-31v2.4C34.2,119.8,18.5,129.2,18.5,148.4z"/>
		<path d="M98.1,176.5v6.5H83.3c-2.8,3.1-6.8,4.9-10.8,4.9c-7.5,0-15-6.2-15-16.1c0-10,7.5-16.1,15-16.1c3,0,6,1,8.5,2.8v-9.5H57.6
			v-6.5h30v34H98.1z M81.1,171.7c0-4.5-3.1-9.6-8.5-9.6c-5.5,0-8.5,5.1-8.5,9.6c0,4.5,3,9.6,8.5,9.6C78,181.3,81.1,176.2,81.1,171.7
			z"/>
		<path d="M195.3,183h-6.5v-33.8L178.3,183h-6.5l-10.5-33.8V183h-6.5v-50.6h7.7l12.6,40.3l12.6-40.3h7.7V183z"/>
		<path d="M243.9,162.7c0,12.7-10,21.1-20.2,21.1c-10.1,0-20.3-8.4-20.3-21.1c0-12.6,10.2-21.1,20.3-21.1
			C233.8,141.7,243.9,150,243.9,162.7z M237.4,162.7c0-6.5-4.9-14.7-13.7-14.6c-9,0.1-13.8,8.1-13.8,14.6c0,7.3,4.9,14.5,13.8,14.6
			C232.5,177.4,237.4,170,237.4,162.7z"/>
		<path d="M289.6,157v26h-6.5v-26c0-3.3-2.3-8.8-9.3-8.8c-7.1,0-9.3,5.5-9.3,8.8h-3.2v26h-6.5v-40.5h6.5v5.3c3.1-3.9,8-6.2,12.6-6.2
			C281.4,141.7,289.6,147.9,289.6,157z"/>
		<path d="M341.1,162.7c0,12.7-10,21.1-20.2,21.1c-10.1,0-20.3-8.4-20.3-21.1c0-12.6,10.2-21.1,20.3-21.1
			C331,141.7,341.1,150,341.1,162.7z M334.6,162.7c0-6.5-4.9-14.7-13.7-14.6c-9,0.1-13.9,8.1-13.9,14.6c0,7.3,4.9,14.5,13.9,14.6
			C329.7,177.4,334.6,170,334.6,162.7z"/>
		<path d="M374.4,183h-17v-6.6h17c4.6,0,9-2.3,9-7.5c0-5.5-4.4-8-9-7.9h-9.9c-10.2,0-15.3-7.8-15.3-14.3c0-6.7,5.2-14.3,15.3-14.3
			h14.8v6.4h-14.8c-4.6,0-9,2.3-9,7.9c0,5.3,4.4,7.7,9,7.9h9.9c10,0,15.2,7.9,15.3,14.4C389.8,175.6,384.7,183,374.4,183z"/>
		<path d="M409.9,199.2h-12.1v-6.5h5.7v-43.7h-5.7v-6.5h12.1V199.2z M438.3,162.7c0,14.6-7,20.9-14,21c-7.1,0.1-14.3-6.5-14.3-21
			c0-14.5,7.2-21,14.3-21C431.3,141.7,438.3,148.1,438.3,162.7z M431.8,162.7c0-7.5-2.5-14.6-7.5-14.6c-5.1,0-7.9,7-7.9,14.6
			c0,7.5,2.8,15.5,7.9,15.4C429.3,178,431.8,170.2,431.8,162.7z"/>
		<path d="M486.9,176.5v6.5h-14.7c-2.8,3.1-6.8,4.9-10.8,4.9c-7.5,0-15-6.2-15-16.1c0-10,7.5-16.1,15-16.1c3,0,6,1,8.5,2.8v-9.5
			h-23.5v-6.5h30v34H486.9z M469.9,171.7c0-4.5-3.1-9.6-8.5-9.6c-5.5,0-8.5,5.1-8.5,9.6c0,4.5,3,9.6,8.5,9.6
			C466.8,181.3,469.9,176.2,469.9,171.7z"/>
		<path d="M535.5,168c-1.3,9.5-11.3,15.8-20.2,15.8c-10.1,0-20.3-8.6-20.3-21.1c0-12.6,10.2-21.1,20.3-21.1c8.7,0,18,6.2,19.4,15.4
			h-6.9c-1.2-3.6-4.6-8.9-12.6-8.9c-9,0-13.8,7.5-13.8,14.6s4.9,14.5,13.8,14.6c8.4,0.1,12.3-3.8,13.7-9.3H535.5z"/>
		<path d="M586.5,176.5v6.5H546v-23.6h6.5v17.1H586.5z M552.4,157c0-9.9,7.5-16.1,15-16.1c7.5,0,15,6.2,15,16.1s-7.5,16.1-15,16.1
			C559.8,173.1,552.4,166.8,552.4,157z M558.9,157c0,3.7,2.3,9.6,8.5,9.6c6.3,0,8.5-5.9,8.5-9.6s-2.2-9.6-8.5-9.6
			C561.1,147.3,558.9,153.2,558.9,157z"/>
		<path d="M28.4,213.9l-7,19.5c0,3.3,2.3,8.8,11,8.8c7.9,0,10.5-5.5,10.5-8.8h6.5c0,9.1-7.9,15.3-17,15.3c-9.9,0-17.5-6.2-17.5-15.3
			l7-19.5H9v-6.5h15.3l5.8-16.2h6.5l-5.8,16.2h18.7v6.5H28.4z"/>
		<path d="M98.1,207.5L72,264.2h-7.3l9.5-20.7l-16.6-36h7.3l13,28.2l13-28.2H98.1z"/>
		<path d="M118.3,264.2h-12.1v-6.5h5.7v-43.7h-5.7v-6.5h12.1V264.2z M146.7,227.7c0,14.6-7,20.9-14,21c-7.1,0.1-14.3-6.5-14.3-21
			c0-14.5,7.2-21,14.3-21C139.7,206.7,146.7,213.1,146.7,227.7z M140.2,227.7c0-7.5-2.5-14.6-7.5-14.6c-5.1,0-7.9,7-7.9,14.6
			c0,7.5,2.8,15.5,7.9,15.4C137.7,243,140.2,235.2,140.2,227.7z"/>
		<path d="M187.1,235.1l5,4c-3.7,6.1-10.4,9.6-17,9.6c-10.1,0-20.3-8.4-20.3-21.1c0-12.6,10.2-21.1,20.3-21.1
			c10.1,0,20.2,8.3,20.2,24.3h-33.7c1.2,6.1,5.9,11.3,13.5,11.3C180.9,242.4,184.9,239.2,187.1,235.1z M161.7,224.5H188
			c-1.7-6.6-6.1-11.4-12.9-11.3C167.6,213.2,163,218.8,161.7,224.5z"/>
		<path d="M270.6,218.8h15.7v6.5h-15.7V248h-6.5v-22.7H252v-6.5h12.1v-7.4c0-13.7,7-20.2,14.2-20.2c7,0,14.2,6.4,14.2,20.2H286
			c0-7.5-1.9-13.8-7.7-13.8c-5.9,0-7.7,6.2-7.7,13.8V218.8z"/>
		<path d="M341.1,207.5V248h-6.5v-10.9c-2.8,7.3-8.7,11.7-16.1,11.7c-10.1,0-17.9-8.4-17.9-21.1c0-12.6,7.8-21.1,17.9-21.1
			c7.4,0,13.4,4.4,16.1,11.7v-10.9H341.1z M329.7,227.7c0-6.5-3.2-14.7-11.3-14.6c-8.2,0.1-11.4,8.1-11.4,14.6
			c0,7.3,3.2,14.5,11.4,14.6C326.5,242.4,329.7,235,329.7,227.7z"/>
		<path d="M389.7,248h-6.5v-34h-10.1v34h-6.5v-25.7c0-4.2-1.5-8.3-5.5-8.3s-5.4,4-5.4,8.3V248h-6.5v-40.5h6.5v1.5
			c1.8-1.1,3.6-1.5,5.4-1.5c1.8,0,3.7,0.5,5.5,1.5v-1.5h23.1V248z"/>
		<path d="M438.3,241.5v6.5h-40.5v-6.5H416v-27.5h-18.2v-6.5h24.7v34H438.3z M423.3,203h-8.1v-6.5h8.1V203z"/>
		<path d="M486.9,241.5v6.5h-40.5v-6.5h17.5v-43.7h-17.5v-6.5h23.9v50.2H486.9z"/>
		<path d="M535.5,207.5l-26.1,56.7h-7.3l9.5-20.7l-16.6-36h7.3l13,28.2l13-28.2H535.5z"/>
		<path d="M575.2,221.5c0.6,2.5,1,5.3,1,8.1c0,19.7-16.9,31.3-24.8,31.3v-2.4c7.4,0,23.2-9.6,23.2-28.9c0-1.7-0.2-3.4-0.3-4.9
			c-4.7,12.8-16.6,20.1-22.8,20.1v-2.4c6.2,0,18.5-7,22.2-20.8c-3.6-14.2-16-22.1-22.2-22.1v-0.8c6.2,0,18.1,7.1,22.8,19.8
			c0.2-1.5,0.4-3.2,0.4-4.9c0-19.2-15.8-30.2-23.2-30.2v-0.8c7.9,0,24.8,11.4,24.8,31C576.2,216.3,575.9,219,575.2,221.5z"/>
	</g>
	<g>
		<path d="M17.7,270.9H7.7v-0.4h9.9V270.9z M18.5,298.1H19v-27.6h-0.4V298.1z M29.8,270.9h-9.9v-0.4h9.9V270.9z"/>
		<path d="M36.7,267.2v30.9h-0.4v-30.9H36.7z M37.1,298.1h0.4v-0.4h-0.4V298.1z M53.9,283.9c0-4.7-3.9-7.9-7.7-7.9
			c-3.9,0-7.7,3.2-7.7,7.9H38c0-5,4.1-8.4,8.2-8.4c4.1,0,8.2,3.4,8.2,8.4H53.9z M38.4,284.8v13.3H38v-13.3H38.4z M53.9,298.1h0.4
			v-13.3h-0.4V298.1z"/>
		<path d="M60.7,276.5V276h10.2v0.4H60.7z M60.7,298.1v-0.4h10.2v0.4H60.7z M74.2,271.6h-4.4v-0.4h4.4V271.6z M71.8,276h0.4v22.1
			h-0.4V276z M73.1,298.1v-0.4h9.7v0.4H73.1z"/>
		<path d="M89.7,276v22.1h-0.4V276H89.7z M106.5,283.9c0-4.7-3.9-7.9-7.7-7.9c-3.9,0-7.7,3.2-7.7,7.9h-0.4c0-5,4.1-8.4,8.2-8.4
			c4.1,0,8.2,3.4,8.2,8.4H106.5z M106.5,284.8h0.4v13.3h-0.4V284.8z"/>
		<path d="M88.6,302.5l-0.9,27.6h-0.4v-27.6H88.6z M109.4,330.1H88.6v-0.4l20.8-0.9V330.1z"/>
		<path d="M113.8,308.5V308H124v1.3L113.8,308.5z M113.8,330.1v-0.4l10.2-0.9v1.3H113.8z M127.3,303.6l-4.4,0.9v-1.3h4.4V303.6z
			 M124.8,308h1.3l-0.9,22.1h-0.4V308z M126.2,330.1v-1.3l9.7,0.9v0.4H126.2z"/>
		<path d="M153,339v0.4h-4.2c-5.7,0-8.5-2.9-8.5-5.7v-0.1h1.3v0.1c0,2.7,1.8,5.3,7.2,5.3H153z M141,327.3l1.2,0.3l3.4-3.4l-0.3-0.3
			L141,327.3z M142.9,327.9v0.4l11.4,0.9v-1.3H142.9z M151.1,307.6c-4.1,0-8.2,3.4-8.2,8.4h1.3c0-4.7,3-7.5,6.9-7.5
			c3.8,0,7.7,2.8,7.7,7.5h0.4C159.3,311,155.2,307.6,151.1,307.6z M158,316.8c0,4.7-3,7.5-6.9,7.5c-3.9,0-7.7-2.8-7.7-7.5H143
			c0,5,4.1,8.4,8.2,8.4c4.1,0,8.2-3.4,8.2-8.4H158z M153.9,338.1c5.4,0,7.6-1.8,7.6-4.4c0-2.7-2.2-5.3-6.3-5.3v-0.4
			c4.4,0,7.2,2.9,7.2,5.7c0,2.9-2.8,5.7-8.5,5.7V338.1z M158.4,310.4l0.3,0.3l2.4-2.4l-1.2-0.3L158.4,310.4z"/>
		<path d="M168.1,299.2l-0.9,30.9h-0.4v-30.9H168.1z M171.7,330.1h-3.5v-1.3l3.5,0.9V330.1z M188.5,315.9c0-4.2-3.9-7.5-7.7-7.5
			c-3.4,0-6.9,3.2-6.9,7.5h-1.3c0-5,4.1-8.4,8.2-8.4c4.1,0,8.2,3.4,8.2,8.4H188.5z M173.9,316.8l-0.9,13.3h-0.4v-13.3H173.9z
			 M187.6,330.1h1.3v-13.3h-0.4L187.6,330.1z"/>
		<path d="M193.3,309.3V308h7.1v0.4L193.3,309.3z M204.4,299.2h1.3l-8.8,22.1h-0.4L204.4,299.2z M215,322.2c0,4.2-4.6,7.5-8.4,7.5
			c-5.2,0-8.4-3.2-8.4-7.5h-1.3c0,5,4.3,8.4,9.7,8.4c4.1,0,8.8-3.4,8.8-8.4H215z M202.6,308.5V308h12.8v1.3L202.6,308.5z"/>
		<path d="M202.6,350.8l10.3,10.3l-0.9,0.9l-11.3-11.3h-3.9v11.3h-1.3v-27.6h9.3c5,0,8.4,4.1,8.4,8.2c0,4.1-3.4,8.2-8.4,8.2H202.6z
			 M196.9,349.5h8c3.8,0,7-3,7-6.9c0-3.9-3.2-6.9-7-6.9h-8V349.5z"/>
		<path d="M242.8,360.8v1.3h-22.1v-8.9h1.3c-0.8-1.3-1.3-3-1.3-4.9c0-5.4,4.1-8.8,8.2-8.8c4.1,0,8.2,3.4,8.2,8.8
			c0,5.4-4.1,8.8-8.2,8.8c-2.7,0-5.3-1.4-6.9-3.9v7.6H242.8z M222.1,348.4c0,4.7,3,7.5,6.9,7.5c3.9,0,6.9-2.8,6.9-7.5
			c0-4.7-3-7.5-6.9-7.5C225.1,340.9,222.1,343.7,222.1,348.4z"/>
		<path d="M268.5,365.7c0,2.9-2.8,5.7-8.5,5.7h-5c-5.7,0-8.5-2.9-8.5-5.7v-0.1h1.3v0.1c0,2.7,4,4.4,7.2,4.4h5c3.2,0,7.2-1.8,7.2-4.4
			c0-2.7-3-4.4-5.9-4.4h-14.9v-1.3l5.2-5.1c-1.5-1.5-2.6-3.7-2.6-6.5c0-5.4,4.1-8.8,8.2-8.8c2.3,0,4.5,1.1,6.1,2.9l2.4-2.4l0.9,0.8
			l-2.6,2.6c0.8,1.3,1.4,3,1.4,4.9c0,5.4-4.1,8.8-8.2,8.8c-1.6,0-3.3-0.5-4.7-1.5l-4.4,4.3h13.1
			C265.7,359.9,268.5,362.8,268.5,365.7z M257.2,355.8c3.8,0,6.9-2.8,6.9-7.5c0-4.7-3-7.5-6.9-7.5c-3.9,0-6.9,2.8-6.9,7.5
			C250.4,353.1,253.3,355.8,257.2,355.8z"/>
		<path d="M295.9,360.8v1.3h-7.1v-3.4c-1.5,2.4-4.2,3.8-6.9,3.8c-4.1,0-8.2-3.4-8.2-8.4V340h1.3v14.2c0,3.8,3,7,6.9,7
			c3.9,0,6.9-3.2,6.9-7V340h1.3v20.8H295.9z"/>
		<path d="M321.5,360.8v1.3h-22.1v-1.3H310v-28.3h-10.6v-1.3h11.9v29.6H321.5z"/>
		<path d="M348,360.8v1.3h-5.7v-20.8h-16.4V340h17.7v20.8H348z M342.3,353.8c0,5.4-4.1,8.8-8.2,8.8c-4.1,0-8.2-3.4-8.2-8.8
			c0-5.4,4.1-8.8,8.2-8.8C338.2,345,342.3,348.4,342.3,353.8z M341,353.8c0-4.7-3.4-7.5-6.9-7.5c-3.4,0-6.9,2.8-6.9,7.5
			c0,4.7,3.4,7.5,6.9,7.5C337.5,361.2,341,358.4,341,353.8z"/>
		<path d="M372.4,347.9H371c0-3.8-3-7-6.9-7c-3.9,0-6.9,3.2-6.9,7v14.2H356V340h1.3v3.4c1.5-2.4,4.2-3.8,6.9-3.8
			C368.3,339.6,372.4,343,372.4,347.9z"/>
		<path d="M374.6,394.1H371v-18.4l-5.7,18.4h-3.5l-5.7-18.4v18.4h-3.5v-27.6h4.2l6.9,22l6.9-22h4.2V394.1z"/>
		<path d="M402.4,390.6v3.5h-22.1v-12.9h3.5v9.3H402.4z M383.8,379.9c0-5.4,4.1-8.8,8.2-8.8c4.1,0,8.2,3.4,8.2,8.8
			c0,5.4-4.1,8.8-8.2,8.8C387.9,388.7,383.8,385.3,383.8,379.9z M387.3,379.9c0,2,1.2,5.3,4.6,5.3c3.4,0,4.6-3.2,4.6-5.3
			c0-2-1.2-5.3-4.6-5.3C388.6,374.7,387.3,377.9,387.3,379.9z"/>
		<path d="M421,383.1c0,7.5-3.8,11.4-7.7,11.4c-3.8,0-7.7-3.9-7.7-11.4s3.9-11.4,7.7-11.4C417.1,371.6,421,375.6,421,383.1z
			 M417.4,383.1c0-3.7-1.4-8-4.2-8c-2.7,0-4.2,4.3-4.2,8s1.5,8,4.2,8C416,391,417.4,386.7,417.4,383.1z M427.6,390.6v3.5H421v-30.9
			h3.5v27.4H427.6z"/>
		<path d="M454.1,390.6v3.5H432v-3.5h9.9v-15H432V372h13.5v18.6H454.1z M445.9,369.6h-4.4V366h4.4V369.6z"/>
		<path d="M481.5,390.6v3.5h-9.3v-1.1c-1.4,1-3,1.5-4.6,1.5c-4.1,0-8.2-3.4-8.2-8.4V372h3.5v14.2c0,1.6,0.8,4.8,4.6,4.8
			c3.9,0,4.6-3.2,4.6-4.8V372h3.5v18.6H481.5z"/>
		<path d="M507.2,380.1v14h-3.5v-14c0-2.3-0.7-5-2.9-5c-2.2,0-2.9,2.7-2.9,5v14h-3.5v-14c0-2.3-0.7-5-2.9-5c-2.2,0-2.8,2.7-2.8,5v14
			h-3.5v-14v-0.4V372h3.5v0.4c0.9-0.6,1.9-0.9,2.8-0.9c1.6,0,3.4,0.8,4.7,2.6c1.3-1.7,3-2.6,4.6-2.6
			C503.6,371.6,507.2,374.4,507.2,380.1z"/>
		<path d="M507.2,417.6c0,4.1-3,8.5-8.4,8.5h-13.7v-27.6h9.3c5,0,8.4,4.7,8.4,8.8c0,0.9-0.2,1.9-0.5,2.8
			C505.6,411.7,507.2,415.4,507.2,417.6z M490.8,410.2h3.6c1.6,0,2.6-1.3,2.6-3c0-1.7-1-3-2.6-3h-3.6V410.2z M501.4,417.6
			c0-1.9-1-2.8-2.9-2.8c-1.1,0.8-2.6,1.2-4.1,1.2h-3.6v4.4h8C500.4,420.3,501.4,419.2,501.4,417.6z"/>
		<path d="M533.7,415.1c0,6.9-5.5,11.5-11,11.5s-11.1-4.6-11.1-11.5s5.6-11.5,11.1-11.5S533.7,408.1,533.7,415.1z M527.9,415.1
			c0-3.5-2.7-5.7-5.3-5.7c-2.7,0-5.3,2.2-5.3,5.7c0,4,2.7,5.7,5.3,5.7C525.3,420.8,527.9,419,527.9,415.1z"/>
		<path d="M560.2,420.4v5.7h-22.1v-5.7h8.4v-19.5h-8.4v-5.7h14.1v25.2H560.2z"/>
		<path d="M580.1,415.1c0,7.5-3.8,11.4-7.7,11.4c-3.8,0-7.7-3.9-7.7-11.4s3.9-11.4,7.7-11.4C576.2,403.6,580.1,407.6,580.1,415.1z
			 M574.3,415.1c0-3.7-1-5.7-2-5.7c-1,0-2,2.1-2,5.7s1,5.7,2,5.7C573.4,420.8,574.3,418.7,574.3,415.1z M586.7,395.2v30.9h-6.6
			v-30.9H586.7z"/>
	</g>
	<g>
		<path d="M13.8,461.4h-3.5l-1,3.3H6.4l4.2-14.1h2.9l4.2,14.1h-2.9L13.8,461.4z M12.9,458.5l-0.9-2.9l-0.9,2.9H12.9z"/>
		<path d="M31.2,461.7v2.9H19.9v-2.9h4.3v-9.9h-4.3v-2.9h7.2v12.8H31.2z"/>
		<path d="M39.9,461.7h4.8v2.9H33.4v-2.9H37l3.7-9.9h-2.5v-2.9h6.5L39.9,461.7z"/>
		<path d="M53.1,456.3l-1.5,4.3c0,0.7,0.9,1.3,1.9,1.3c0.8,0,1.8-0.6,1.8-1.3h2.9c0,2.5-2.2,4.3-4.7,4.3c-2.7,0-4.9-1.7-4.9-4.3
			l1.5-4.3h-3.2v-2.9h4.3l1.6-4.5h2.9l-1.6,4.5h4.1v2.9H53.1z"/>
		<path d="M71.7,461.7v2.9H60.4v-6.5h1.9c-0.1-0.4-0.1-0.7-0.1-1.1c0-2.7,2.1-4.5,4.2-4.5c2.1,0,4.2,1.7,4.2,4.5s-2.1,4.5-4.2,4.5
			c-1.1,0-2.2-0.5-3-1.4v1.6H71.7z M65.1,457c0,0.9,0.6,1.6,1.2,1.6c0.6,0,1.2-0.6,1.2-1.6s-0.6-1.6-1.2-1.6
			C65.8,455.4,65.1,456,65.1,457z"/>
		<path d="M81.5,461.2l1.9,2.1c-1,1-2.4,1.6-3.8,1.6c-2.8,0-5.6-2.3-5.6-5.9c0-3.5,2.8-5.9,5.6-5.9c2.8,0,5.6,2.3,5.6,7.3h-8
			c0.5,1,1.4,1.5,2.4,1.5C80.3,461.9,81,461.7,81.5,461.2z M77.2,457.6h4.5c-0.5-1.1-1.3-1.5-2.1-1.5
			C78.6,456.1,77.7,456.6,77.2,457.6z"/>
		<path d="M98.7,457.4h-2.9c0-0.6-0.4-1.3-1.2-1.3c-0.9,0-1.2,0.7-1.2,1.3v7.2h-5.9v-11.3h2.9v4c0-2.5,2.1-4.3,4.2-4.3
			C96.6,453.2,98.7,454.9,98.7,457.4z"/>
		<path d="M112.2,457.4v7.2h-2.9v-7.2c0-0.9-0.6-1.4-1.2-1.4c-0.6,0-1.2,0.5-1.2,1.4v7.2h-5.9v-11.3h2.9v4c0-2.8,2.1-4.2,4.2-4.2
			C110.1,453.2,112.2,454.6,112.2,457.4z"/>
		<path d="M125.7,461.7v2.9h-4.1c-0.8,0.9-1.9,1.4-3,1.4c-2.1,0-4.2-1.7-4.2-4.5c0-2.8,2.1-4.5,4.2-4.5c0.9,0,1.8,0.3,2.5,0.9v-1.6
			h-6.7v-2.9h9.6v8.3H125.7z M119.8,461.5c0-1-0.6-1.6-1.2-1.6c-0.6,0-1.2,0.5-1.2,1.6c0,1,0.6,1.6,1.2,1.6
			C119.2,463.1,119.8,462.6,119.8,461.5z"/>
		<path d="M139.2,453.4v11.3h-2.9v-1.9c-0.8,1.3-2.1,2.1-3.7,2.1c-2.8,0-4.6-2.3-4.6-5.9c0-3.5,1.8-5.9,4.6-5.9
			c1.6,0,2.9,0.8,3.7,2.1v-1.9H139.2z M134.2,459c0-1.8-0.8-2.9-1.7-2.9c-0.9,0-1.7,1.1-1.7,2.9c0,2,0.8,2.9,1.7,2.9
			C133.4,461.9,134.2,461,134.2,459z"/>
		<path d="M147.6,456.3l-1.5,4.3c0,0.7,0.9,1.3,1.9,1.3c0.8,0,1.8-0.6,1.8-1.3h2.9c0,2.5-2.2,4.3-4.7,4.3c-2.7,0-4.9-1.7-4.9-4.3
			l1.5-4.3h-3.2v-2.9h4.3l1.6-4.5h2.9l-1.6,4.5h4.1v2.9H147.6z"/>
		<path d="M160.8,456.3l-1.9,5.4h7.3v2.9h-11.3l3-8.3h-3v-2.9h4l1.6-4.5h2.9l-1.6,4.5h4.3v2.9H160.8z"/>
		<path d="M173.7,456.3v5.4h4.8v2.9h-7.7v-8.3h-3.5v-2.9h3.5v-4.5h2.9v4.5h4.8v2.9H173.7z"/>
		<path d="M193.2,461.7v2.9h-11.3v-6.5h1.9c-0.1-0.4-0.1-0.7-0.1-1.1c0-2.7,2.1-4.5,4.2-4.5c2.1,0,4.2,1.7,4.2,4.5s-2.1,4.5-4.2,4.5
			c-1.1,0-2.2-0.5-3-1.4v1.6H193.2z M186.6,457c0,0.9,0.6,1.6,1.2,1.6c0.6,0,1.2-0.6,1.2-1.6s-0.6-1.6-1.2-1.6
			C187.3,455.4,186.6,456,186.6,457z"/>
		<path d="M203.6,463.3c-0.7,1-1.9,1.8-3.5,1.8c-2.2,0-4.7-2-4.7-5h2.9c0,1.1,1,2,1.8,2.1c0.4,0,0.7-0.1,0.9-0.4
			c0.3-0.5-0.2-1.1-1.5-2c-2-1.5-2.2-3.8-0.8-5.5c0.7-0.8,1.8-1.4,3.1-1.4c2.3,0,4.7,2,4.7,4.9h-2.9c0-0.7-0.4-1.8-1.8-1.8
			c-0.8,0-0.9,0.4-0.9,0.7c0,0.5,0.5,1,1.6,1.8C204.4,459.9,204.5,461.8,203.6,463.3z"/>
		<path d="M213.7,457.6h3.8v7h-9.6v-2.9h6.7v-1.1h-3.8v-2.9c0-2.8,2.1-4.5,4.2-4.5c2.1,0,4.2,1.1,4.2,3.6h-2.9
			c0-0.4-0.5-0.8-1.2-0.8C214.2,456,213.7,456.7,213.7,457.6z"/>
		<path d="M226.5,456.3v1.2h3.8v7.1h-9v-2.9h6v-1.2h-3.8v-7.1h9v2.9H226.5z"/>
		<path d="M357.7,450.6v14.1h-0.2v-14.1H357.7z M368.7,450.8h-10.6v-0.2h10.6V450.8z M368.7,458.9h-10.6v-0.2h10.6V458.9z"/>
		<path d="M371.6,460.2h-0.2v-6.8h0.2V460.2z M371.4,460.6h0.2c0,2.4,2,4,3.9,4c2,0,3.9-1.6,3.9-4h0.2c0,2.5-2.1,4.3-4.2,4.3
			C373.5,464.9,371.4,463.1,371.4,460.6z M379.6,446.5l-0.1-0.2l-3.9,3l-4-3l-0.1,0.2l4.1,3.1L379.6,446.5z M373.3,451.1
			c0.2,0,0.4-0.2,0.4-0.4c0-0.2-0.2-0.4-0.4-0.4c-0.2,0-0.4,0.2-0.4,0.4C372.9,451,373.1,451.1,373.3,451.1z M377.8,451.1
			c0.2,0,0.4-0.2,0.4-0.4c0-0.2-0.2-0.4-0.4-0.4c-0.2,0-0.4,0.2-0.4,0.4C377.4,451,377.6,451.1,377.8,451.1z M379.7,460.2v-6.8h-0.2
			v6.8H379.7z M379.5,462.8h0.2v1.8h-0.2V462.8z M380.2,464.6h2.5v-0.2h-2.5V464.6z"/>
		<path d="M389.2,448.9h0.2l-5.9,15.8h-0.2L389.2,448.9z M383.5,449.1v-0.2h5v0.2H383.5z M384,464.6v-0.2h3.2v0.2H384z M394.3,448.9
			h0.2l-5.9,15.8h-0.2L394.3,448.9z M389.2,464.6v-0.2h5.4v0.2H389.2z M390.7,449.1v-0.2h2.9v0.2H390.7z"/>
		<path d="M411.4,450.6h0.2v14.1h-0.2V450.6z M422.7,464.4v0.2h-5.5l-1.6,3.1h-0.2l1.6-3.1h-4.8v-0.2H422.7z"/>
		<path d="M433.3,453.4v0.2h-8.3v-0.2H433.3z M433.3,460.2H433c0-2.4-2-4-3.9-4c-2,0-3.9,1.6-3.9,4h-0.2c0-2.5,2.1-4.3,4.2-4.3
			C431.2,455.9,433.3,457.6,433.3,460.2z M433.3,460.6c0,2.5-2.1,4.3-4.2,4.3c-2.1,0-4.2-1.7-4.2-4.3h0.2c0,2.4,2,4,3.9,4
			c2,0,3.9-1.6,3.9-4H433.3z M429.1,453.4c1.1,0,2.2-1,2.2-2.3c0-1.2-1.1-2.2-2.2-2.2s-2.2,1-2.2,2.2
			C426.9,452.4,427.9,453.4,429.1,453.4z M429.1,453.1c-0.8,0-2-0.7-2-2c0-1.3,1.2-2,2-2s2,0.7,2,2
			C431.1,452.4,429.9,453.1,429.1,453.1z M433.7,464.6v-11.3h0.2v11.3H433.7z M436.2,464.4v0.2h-1.8v-0.2H436.2z"/>
		<path d="M438.4,453.6v-0.2h3.6v0.2H438.4z M444.1,448.9h0.2l-4,11.2h-0.2L444.1,448.9z M449.5,460.6c0,2.4-2.3,4-4.3,4
			c-2.7,0-4.3-1.6-4.3-4h-0.2c0,2.5,1.8,4.3,4.5,4.3c2.1,0,4.5-1.7,4.5-4.3H449.5z M443.2,453.6v-0.2h6.5v0.2H443.2z"/>
		<path d="M451.9,453.6v-0.2h5.2v0.2H451.9z M451.9,464.6v-0.2h5.2v0.2H451.9z M453.2,450.6v0.3c3-4.5,6,4.5,9,0v-0.3
			C459.2,455.1,456.2,446.1,453.2,450.6z M457.6,453.4h0.2v11.3h-0.2V453.4z M458.2,464.6v-0.2h5v0.2H458.2z"/>
		<path d="M466.7,453.4v11.3h-0.2v-11.3H466.7z M475.2,457.4c0-2.4-2-4-3.9-4c-2,0-3.9,1.6-3.9,4h-0.2c0-2.5,2.1-4.3,4.2-4.3
			c2.1,0,4.2,1.7,4.2,4.3H475.2z M475.2,457.9h0.2v6.8h-0.2V457.9z"/>
		<path d="M496.7,457.7c-2.9,0-4.3-1.8-4.3-3.6c0-1.8,1.4-3.6,4.3-3.6v0.2c-2.7,0-4.1,1.7-4.1,3.4c0,1.6,1.3,3.3,4.1,3.3V457.7z
			 M499,464.6v-0.2h-4.3v0.2H499z M497.1,450.8h3.7v-0.2h-3.7V450.8z M497.1,457.7h1.8v-0.2h-1.8V457.7z M499.4,464.6v-0.2
			c2.6,0,4-1.7,4-3.4c0-1.7-1.3-3.3-4-3.3v-0.2c2.8,0,4.3,1.8,4.3,3.6S502.2,464.6,499.4,464.6z"/>
		<path d="M506.6,460.2h-0.2v-6.8h0.2V460.2z M506.4,460.6h0.2c0,2.4,2,4,3.9,4c2,0,3.9-1.6,3.9-4h0.2c0,2.5-2.1,4.3-4.2,4.3
			C508.5,464.9,506.4,463.1,506.4,460.6z M508.3,451.1c0.2,0,0.4-0.2,0.4-0.4c0-0.2-0.2-0.4-0.4-0.4c-0.2,0-0.4,0.2-0.4,0.4
			C507.9,451,508.1,451.1,508.3,451.1z M512.8,451.1c0.2,0,0.4-0.2,0.4-0.4c0-0.2-0.2-0.4-0.4-0.4c-0.2,0-0.4,0.2-0.4,0.4
			C512.4,451,512.6,451.1,512.8,451.1z M514.7,460.2v-6.8h-0.2v6.8H514.7z M514.5,462.8h0.2v1.8h-0.2V462.8z M515.2,464.6h2.5v-0.2
			h-2.5V464.6z"/>
		<path d="M521.7,453.6h-2.3v-0.2h2.3V453.6z M521.7,469.1h-2.3v-0.2h2.3V469.1z M522.4,453.4v15.8h-0.2v-15.8H522.4z M523,458.8
			c0-3.7,1.9-5.4,3.8-5.4c1.8,0,3.7,1.7,3.7,5.4h0.2c0-3.8-1.9-5.6-3.9-5.6c-2,0-4,1.8-4,5.6H523z M526.8,464.8c2,0,3.9-1.8,3.9-5.6
			h-0.2c0,3.7-1.8,5.4-3.7,5.4c-1.9,0-3.8-1.7-3.8-5.4h-0.2C522.8,463,524.8,464.9,526.8,464.8z"/>
		<path d="M535.2,453.6h-2.3v-0.2h2.3V453.6z M535.2,469.1h-2.3v-0.2h2.3V469.1z M535.9,453.4v15.8h-0.2v-15.8H535.9z M536.5,458.8
			c0-3.7,1.9-5.4,3.8-5.4c1.8,0,3.7,1.7,3.7,5.4h0.2c0-3.8-1.9-5.6-3.9-5.6c-2,0-4,1.8-4,5.6H536.5z M540.3,464.8
			c2,0,3.9-1.8,3.9-5.6H544c0,3.7-1.8,5.4-3.7,5.4c-1.9,0-3.8-1.7-3.8-5.4h-0.2C536.3,463,538.3,464.9,540.3,464.8z"/>
		<path d="M555.3,454.5l-6.4,9.1c0.9,0.6,2,1,3.1,1c2.7,0,5.4-2.2,5.4-5.4h0.2c0,3.3-2.8,5.6-5.6,5.6c-1.1,0-2.3-0.4-3.2-1.1
			l-2.1,3.1h-0.3l2.2-3.2c-1.3-1-2.2-2.5-2.2-4.4h0.2c0,1.8,0.9,3.3,2.1,4.2l6.4-9.1c-0.9-0.6-2-1-3.1-1c-2.7,0-5.4,2.3-5.4,5.4
			h-0.2c0-3.3,2.8-5.6,5.6-5.6c1.1,0,2.3,0.4,3.2,1l2.1-3.1h0.3l-2.2,3.2c1.3,1,2.2,2.5,2.2,4.4h-0.2
			C557.5,457,556.6,455.5,555.3,454.5z"/>
		<path d="M561.6,464.6L561.6,464.6l-1.5,3.1h-0.2l1.6-3.1v-0.2h0.2V464.6z M561.2,464.6h-0.2v-11.3h0.2V464.6z M570.2,457.4h-0.2
			c0-2.4-2-4-3.9-4c-2,0-3.9,1.6-3.9,4h-0.2c0-2.5,2.1-4.3,4.2-4.3C568.1,453.2,570.2,454.9,570.2,457.4z M561.8,457.9h0.2v6.8h-0.2
			V457.9z"/>
		<path d="M575.7,458.9h9v0.2h-9l-0.4,1h-0.2l0.4-1h-2v-0.2h2l3.6-10h0.2L575.7,458.9z M577,453.6h-3.6v-0.2h3.6V453.6z
			 M584.5,460.6h0.2c0,2.5-2.4,4.3-4.5,4.3c-2.7,0-4.5-1.7-4.5-4.3h0.2c0,2.4,1.6,4,4.3,4C582.1,464.6,584.5,463,584.5,460.6z
			 M584.7,453.4v0.2h-6.5v-0.2H584.7z"/>
		<path d="M14.5,482.4h-5l-1.4,4.4H6.4l4.3-14.1h2.6l4.3,14.1h-1.8L14.5,482.4z M14,480.6l-1.9-6.2l-1.9,6.2H14z"/>
		<path d="M31.2,484.9v1.8H19.9v-1.8h4.9v-12.2h-4.9V471h6.6v14H31.2z"/>
		<path d="M39.5,484.9h5.2v1.8H33.4v-1.8h4.3l4.5-12.2h-4.1V471h6.5L39.5,484.9z"/>
		<path d="M52.3,477.3l-1.9,5.4c0,0.9,0.6,2.5,3.1,2.5c2.2,0,2.9-1.5,2.9-2.5h1.8c0,2.5-2.2,4.3-4.7,4.3c-2.7,0-4.9-1.7-4.9-4.3
			l1.9-5.4h-3.6v-1.8h4.3l1.6-4.5h1.8l-1.6,4.5h5.2v1.8H52.3z"/>
		<path d="M71.7,484.9v1.8H60.4v-6.5h1.8v4.7H71.7z M62.2,479.5c0-2.7,2.1-4.5,4.2-4.5c2.1,0,4.2,1.7,4.2,4.5c0,2.8-2.1,4.5-4.2,4.5
			C64.3,484,62.2,482.3,62.2,479.5z M64,479.5c0,1,0.6,2.7,2.4,2.7c1.8,0,2.4-1.6,2.4-2.7s-0.6-2.7-2.4-2.7
			C64.6,476.8,64,478.5,64,479.5z"/>
		<path d="M82.9,483.2l1.4,1.1c-1,1.7-2.9,2.7-4.7,2.7c-2.8,0-5.6-2.3-5.6-5.9c0-3.5,2.8-5.9,5.6-5.9c2.8,0,5.6,2.3,5.6,6.8h-9.4
			c0.3,1.7,1.6,3.1,3.8,3.2C81.2,485.2,82.3,484.3,82.9,483.2z M75.8,480.2h7.3c-0.5-1.8-1.7-3.2-3.6-3.2
			C77.5,477.1,76.2,478.6,75.8,480.2z"/>
		<path d="M97.7,479.5h-1.8c0-0.8-0.6-2.5-2.4-2.5c-1.8,0-2.4,1.6-2.4,2.5h-0.9v7.2h-1.8v-11.3h1.8v1.4c0.8-1,2-1.6,3.3-1.6
			C95.6,475.3,97.7,477,97.7,479.5z"/>
		<path d="M111.4,479.5v7.2h-1.8v-7.2c0-0.9-0.6-2.5-2.6-2.5c-2,0-2.6,1.5-2.6,2.5h-0.9v7.2h-1.8v-11.3h1.8v1.5
			c0.9-1.1,2.2-1.7,3.5-1.7C109.1,475.3,111.4,477,111.4,479.5z"/>
		<path d="M125.7,484.9v1.8h-4.1c-0.8,0.9-1.9,1.4-3,1.4c-2.1,0-4.2-1.7-4.2-4.5s2.1-4.5,4.2-4.5c0.8,0,1.7,0.3,2.4,0.8v-2.6h-6.5
			v-1.8h8.3v9.5H125.7z M121,483.6c0-1.3-0.9-2.7-2.4-2.7c-1.5,0-2.4,1.4-2.4,2.7c0,1.2,0.8,2.7,2.4,2.7
			C120.1,486.3,121,484.9,121,483.6z"/>
		<path d="M139.2,475.5v11.3h-1.8v-3c-0.8,2-2.4,3.2-4.5,3.2c-2.8,0-5-2.3-5-5.9c0-3.5,2.2-5.9,5-5.9c2,0,3.7,1.2,4.5,3.2v-3H139.2z
			 M136,481.1c0-1.8-0.9-4.1-3.1-4.1c-2.3,0-3.2,2.3-3.2,4.1c0,2,0.9,4,3.2,4.1C135.1,485.2,136,483.1,136,481.1z"/>
		<path d="M146.8,477.3l-1.9,5.4c0,0.9,0.6,2.5,3.1,2.5c2.2,0,2.9-1.5,2.9-2.5h1.8c0,2.5-2.2,4.3-4.7,4.3c-2.7,0-4.9-1.7-4.9-4.3
			l1.9-5.4h-3.6v-1.8h4.3l1.6-4.5h1.8l-1.6,4.5h5.2v1.8H146.8z"/>
		<path d="M160.1,477.3l-2.7,7.7h8.8v1.8h-11.3l3.4-9.5h-3.4v-1.8h4l1.6-4.5h1.8l-1.6,4.5h5.4v1.8H160.1z"/>
		<path d="M173.2,477.3v7.7h5.4v1.8h-7.2v-9.5h-4.1v-1.8h4.1V471h1.8v4.5h5.4v1.8H173.2z"/>
		<path d="M193.2,484.9v1.8h-11.3v-6.5h1.8v4.7H193.2z M183.7,479.5c0-2.7,2.1-4.5,4.2-4.5c2.1,0,4.2,1.7,4.2,4.5
			c0,2.8-2.1,4.5-4.2,4.5C185.8,484,183.7,482.3,183.7,479.5z M185.5,479.5c0,1,0.6,2.7,2.4,2.7c1.8,0,2.4-1.6,2.4-2.7
			s-0.6-2.7-2.4-2.7C186.1,476.8,185.5,478.5,185.5,479.5z"/>
		<path d="M206.7,479.5h-1.8c0-1.6-0.7-2.7-2.9-2.7c-1.3,0-2,0.5-2,1.4c0,0.9,0.4,1.4,1.6,2.2c2.3,1.5,3.2,3.5,1.5,5.6
			c-0.7,0.8-1.8,1.2-2.9,1.2c-2.2,0-4.7-1.6-4.7-4.5h1.8c0,1.5,0.8,2.8,2.9,2.7c0.9,0,2.1-0.6,2.1-1.7c0-0.3,0.1-0.9-1.7-2.1
			c-2.6-1.7-2.9-4-1.1-5.6c0.7-0.6,1.6-0.9,2.6-0.9C204.2,475,206.7,476.6,206.7,479.5z"/>
		<path d="M212.5,480.6h4.9v6.1h-9.6v-1.8h7.8v-2.5h-5.1v-1.8c0-3.7,2.3-5.4,4.4-5.4c2.1,0,4.2,1.7,4.2,4.3h-2
			c0-0.6-0.2-2.5-2.1-2.5C212.9,477.1,212.5,478.9,212.5,480.6z"/>
		<path d="M224.7,477.3v2.9h6.7v6.5h-10.1v-1.8h8.3V482h-6.7v-6.5h9.6v1.8H224.7z"/>
		<path d="M358.1,472.7l-0.5,14.1h-0.2v-14.1H358.1z M368.7,481h-10.6v-0.7l10.6,0.5V481z M368.7,473.4l-10.1-0.5v-0.2h10.1V473.4z"
			/>
		<path d="M371.6,482.3h-0.2v-6.8h0.7L371.6,482.3z M371.4,482.7h0.7c0,2.4,1.5,3.8,3.5,3.8c2,0,3.9-1.4,3.9-3.8h0.2
			c0,2.5-2.1,4.3-4.2,4.3C373.5,487,371.4,485.2,371.4,482.7z M379.6,471.6l-0.1-0.2l-3.9,2.6l-4-2.6l-0.1,0.2l4.1,3.1L379.6,471.6z
			 M379.7,482.3v-6.8h-0.2l-0.5,6.8H379.7z M379.5,484.9h0.2v1.8H379L379.5,484.9z M380.2,486.7h2.5v-0.2l-2.5-0.5V486.7z"/>
		<path d="M388.7,471h0.7l-5.9,15.8h-0.2L388.7,471z M383.5,471.7V471h4.5v0.2L383.5,471.7z M384,486.7v-0.7l3.2,0.5v0.2H384z
			 M393.9,471h0.7l-5.9,15.8h-0.2L393.9,471z M389.2,486.7v-0.7l5.4,0.5v0.2H389.2z M390.7,471.7V471h2.5v0.2L390.7,471.7z"/>
		<path d="M412.1,472.7l-0.5,14.1h-0.2v-14.1H412.1z M422.7,486.7h-10.6v-0.2l10.6-0.5V486.7z"/>
		<path d="M433,475.5v0.2l-8.1,0.5v-0.7H433z M433.3,482.3H433c0-2.4-2-3.8-3.9-3.8c-2,0-3.5,1.4-3.5,3.8h-0.7
			c0-2.5,2.1-4.3,4.2-4.3C431.2,478,433.3,479.7,433.3,482.3z M433.3,482.7c0,2.5-2.1,4.3-4.2,4.3c-2.1,0-4.2-1.7-4.2-4.3h0.7
			c0,2.4,1.5,4,3.5,4c2,0,3.9-1.6,3.9-4H433.3z M425.9,471.6h0.5c0,1.1,0.8,3,2.7,3c1.9,0,3.1-1.8,3.1-3h0.1c0,2-1.6,3.3-3.2,3.3
			C427.5,474.9,425.9,473.6,425.9,471.6z M433.5,486.7v-11.3h0.2l0.5,11.3H433.5z M436.2,486.5v0.2h-1.8v-0.7L436.2,486.5z"/>
		<path d="M438.4,476.2v-0.7h3.6v0.2L438.4,476.2z M444.1,471h0.7l-4.5,11.2h-0.2L444.1,471z M449.5,482.7c0,2.2-2.3,3.8-4.3,3.8
			c-2.7,0-4.3-1.6-4.3-3.8h-0.7c0,2.5,2.2,4.3,5,4.3c2.1,0,4.5-1.7,4.5-4.3H449.5z M443.1,489.8l2-3.1h0.2l-1.6,3.1H443.1z
			 M443.2,475.7v-0.2h6.5v0.7L443.2,475.7z"/>
		<path d="M451.9,475.7v-0.2h5.2v0.7L451.9,475.7z M451.9,486.7v-0.2l5.2-0.5v0.7H451.9z M457.6,475.5h0.7l-0.4,11.3h-0.2V475.5z
			 M458.2,486.7v-0.7l5,0.5v0.2H458.2z"/>
		<path d="M466.9,475.5l-0.5,11.3h-0.2v-11.3H466.9z M466.9,486.1l1.6,0.5v0.2h-1.6V486.1z M476.3,472.3v0.7c-3,4.5-6-4.5-9,0v-0.2
			C470.3,468.3,473.3,476.8,476.3,472.3z M475.9,479.5h-0.2c0-2.2-2-3.8-3.9-3.8c-2,0-3.5,1.6-3.5,3.8h-0.7c0-2.5,2.1-4.3,4.2-4.3
			C473.8,475.3,475.9,477,475.9,479.5z M475.7,480h0.2v6.8h-0.7L475.7,480z"/>
		<path d="M496.7,480.1c-2.8,0-4.3-1.8-4.3-3.6c0-1.9,1.4-3.7,4.3-3.7v0.2c-2.4,0-3.8,2-3.8,3.5c0,1.5,1.4,2.9,3.8,3V480.1z
			 M494.7,486.5l4.3-0.5v0.7h-0.8l-1.6,3.1h-0.7l2-3.1h-3.2V486.5z M500.8,473.4l-3.7-0.5v-0.2h3.7V473.4z M497.1,479.4l1.8,0.5v0.2
			h-1.8V479.4z M499.4,486.7v-0.7c2.4,0,3.8-1.6,3.8-3c0-1.5-1.5-3-3.8-3v-0.2c2.8,0,4.2,1.4,4.3,3.2
			C503.7,484.9,502.3,486.7,499.4,486.7z"/>
		<path d="M506.6,482.3h-0.2v-6.8h0.7L506.6,482.3z M506.4,482.7h0.7c0,2.4,1.5,3.8,3.5,3.8c2,0,3.9-1.4,3.9-3.8h0.2
			c0,2.5-2.1,4.3-4.2,4.3C508.5,487,506.4,485.2,506.4,482.7z M513.3,470.1l0.1,0.6l-5.7,3.2l-0.1-0.2L513.3,470.1z M514.7,482.3
			v-6.8h-0.2l-0.5,6.8H514.7z M514.5,484.9h0.2v1.8H514L514.5,484.9z M515.2,486.7h2.5v-0.2l-2.5-0.5V486.7z"/>
		<path d="M521.7,476.2l-2.3-0.5v-0.2h2.3V476.2z M521.7,491.2h-2.3V491l2.3-0.5V491.2z M522.4,475.5l0.5,15.8h-0.7v-15.8H522.4z
			 M523,480.9c0-3.7,1.9-5.2,3.8-5.2c1.8,0,3.2,1.5,3.2,5.2h0.7c0-3.8-1.9-5.6-3.9-5.6c-2,0-4,1.8-4,5.6H523z M526.8,486.9
			c2,0,3.9-1.8,3.9-5.6h-0.2c0,3.7-1.8,5.2-3.7,5.2c-1.9,0-3.3-1.5-3.3-5.2h-0.7C522.8,485.1,524.8,487,526.8,486.9z"/>
		<path d="M535.2,476.2l-2.3-0.5v-0.2h2.3V476.2z M535.2,491.2h-2.3V491l2.3-0.5V491.2z M535.9,475.5l0.5,15.8h-0.7v-15.8H535.9z
			 M536.5,480.9c0-3.7,1.9-5.2,3.8-5.2c1.8,0,3.2,1.5,3.2,5.2h0.7c0-3.8-1.9-5.6-3.9-5.6c-2,0-4,1.8-4,5.6H536.5z M540.3,486.9
			c2,0,3.9-1.8,3.9-5.6H544c0,3.7-1.8,5.2-3.7,5.2c-1.9,0-3.3-1.5-3.3-5.2h-0.7C536.3,485.1,538.3,487,540.3,486.9z"/>
		<path d="M546.4,480.9c0-3.3,2.8-5.6,5.6-5.6s5.6,2.3,5.6,5.6h-0.2c0-2.9-2.7-5.2-5.4-5.2c-2.7,0-5,2.3-5,5.2H546.4z M546.4,481.4
			h0.2c0,2.9,2.7,5.1,5.4,5.2c2.7,0,4.9-2.2,4.9-5.2h0.7c0,3.3-2.8,5.6-5.6,5.6S546.4,484.6,546.4,481.4z M549.9,474.3h-0.2V471h0.7
			L549.9,474.3z M554.4,474.3h-0.7l0.5-3.4h0.2V474.3z"/>
		<path d="M560.6,475.5l-0.5,11.3h-0.2v-11.3H560.6z M562.4,486.7h-1.8v-0.2l1.8-0.5V486.7z M570.5,479.5c0-2.2-1.5-3.8-3.5-3.8
			c-2,0-3.9,1.6-3.9,3.8h-0.2c0-2.5,2.1-4.3,4.2-4.3c2.1,0,4.2,1.7,4.2,4.3H570.5z M563.5,480l-0.5,6.8h-0.2V480H563.5z"/>
		<path d="M573.4,476.2v-0.7h3.6v0.2L573.4,476.2z M579.1,471h0.7l-4.5,11.2h-0.2L579.1,471z M584.5,482.7c0,2.2-2.3,3.8-4.3,3.8
			c-2.7,0-4.3-1.6-4.3-3.8h-0.7c0,2.5,2.2,4.3,5,4.3c2.1,0,4.5-1.7,4.5-4.3H584.5z M578.2,475.7v-0.2h6.5v0.7L578.2,475.7z"/>
		<path d="M14.8,502.9H9.3l-2.2,6H6.4l5.2-14.1h0.8l5.2,14.1H17L14.8,502.9z M14.5,502.2l-2.5-6.7l-2.5,6.7H14.5z"/>
		<path d="M31.2,508.2v0.7H19.9v-0.7h5.4v-14.4h-5.4v-0.7H26v15.1H31.2z"/>
		<path d="M39.1,508.2h5.6v0.7H33.4v-0.7h5l5.4-14.4h-5.6v-0.7h6.5L39.1,508.2z"/>
		<path d="M51.6,498.3l-2.3,6.5c0,2,1.8,3.6,4.2,3.6c2.2,0,4.1-1.5,4.1-3.6h0.7c0,2.5-2.2,4.3-4.7,4.3c-2.7,0-4.9-1.7-4.9-4.3
			l2.3-6.5h-4v-0.7h4.3l1.6-4.5h0.7l-1.6,4.5h6.3v0.7H51.6z"/>
		<path d="M72.1,508.2v0.7H60.9v-4.5h0.7c-0.4-0.7-0.7-1.5-0.7-2.5c0-2.7,2.1-4.5,4.2-4.5c2.1,0,4.2,1.7,4.2,4.5
			c0,2.8-2.1,4.5-4.2,4.5c-1.4,0-2.7-0.7-3.5-2v3.8H72.1z M61.6,501.8c0,2.4,1.5,3.8,3.5,3.8c2,0,3.5-1.4,3.5-3.8S67,498,65,498
			C63.1,498,61.6,499.5,61.6,501.8z"/>
		<path d="M83.9,505.7l0.6,0.3c-1,1.8-3,3-5,3c-2.8,0-5.6-2.3-5.6-6.1c0-3.3,2.8-5.6,5.6-5.6c2.8,0,5.6,2.3,5.6,5.6H74.6
			c0,3.4,2.3,5.4,5,5.4C81.5,508.4,82.9,507.5,83.9,505.7z M74.7,502.3h9.8c-0.3-2.6-2.4-4.3-4.9-4.3
			C77.1,498.1,75,499.8,74.7,502.3z"/>
		<path d="M97.6,501.6h-0.7c0-1.9-1.5-3.6-3.5-3.6c-2,0-3.5,1.6-3.5,3.6v7.2h-0.7v-11.3h0.7v1.7c0.8-1.2,2.1-1.9,3.5-1.9
			C95.5,497.4,97.6,499.1,97.6,501.6z"/>
		<path d="M110.8,501.6v7.2h-0.7v-7.2c0-2-1.8-3.6-3.7-3.6c-2,0-3.7,1.5-3.7,3.6v7.2h-0.7v-11.3h0.7v1.8c0.8-1.3,2.3-2,3.7-2
			C108.5,497.4,110.8,499.1,110.8,501.6z"/>
		<path d="M125.7,508.2v0.7h-2.9v-10.6h-8.3v-0.7h9v10.6H125.7z M122.8,504.6c0,2.7-2.1,4.5-4.2,4.5c-2.1,0-4.2-1.7-4.2-4.5
			s2.1-4.5,4.2-4.5C120.7,500.1,122.8,501.8,122.8,504.6z M122.1,504.6c0-2.4-1.8-3.8-3.5-3.8c-1.8,0-3.5,1.4-3.5,3.8
			s1.7,3.8,3.5,3.8C120.3,508.4,122.1,507,122.1,504.6z"/>
		<path d="M138.5,503.2c0,3.5-2.5,5.9-5.3,5.9s-5.3-2.3-5.3-5.9c0-3.5,2.5-5.9,5.3-5.9S138.5,499.7,138.5,503.2z M137.8,503.2
			c0-2.9-2.1-5.2-4.6-5.2c-2.5,0-4.6,2.2-4.6,5.2c0,3.2,2.1,5.2,4.6,5.2C135.7,508.4,137.8,506.4,137.8,503.2z M139.2,497.6v11.3
			h-0.7v-11.3H139.2z"/>
		<path d="M146.1,498.3l-2.3,6.5c0,2,1.8,3.6,4.2,3.6c2.2,0,4.1-1.5,4.1-3.6h0.7c0,2.5-2.2,4.3-4.7,4.3c-2.7,0-4.9-1.7-4.9-4.3
			l2.3-6.5h-4v-0.7h4.3l1.6-4.5h0.7l-1.6,4.5h6.3v0.7H146.1z"/>
		<path d="M159.4,498.3l-3.5,9.9h10.3v0.7h-11.3l3.8-10.6h-3.8v-0.7h4l1.6-4.5h0.7l-1.6,4.5h6.5v0.7H159.4z"/>
		<path d="M173.2,498.3v9.9h5.4v0.7h-6.1v-10.6h-5.2v-0.7h5.2v-4.5h0.7v4.5h5.4v0.7H173.2z"/>
		<path d="M193.6,508.2v0.7h-11.3v-4.5h0.7c-0.4-0.7-0.7-1.5-0.7-2.5c0-2.7,2.1-4.5,4.2-4.5c2.1,0,4.2,1.7,4.2,4.5
			c0,2.8-2.1,4.5-4.2,4.5c-1.4,0-2.7-0.7-3.5-2v3.8H193.6z M183.1,501.8c0,2.4,1.5,3.8,3.5,3.8c2,0,3.5-1.4,3.5-3.8
			s-1.5-3.8-3.5-3.8C184.6,498,183.1,499.5,183.1,501.8z"/>
		<path d="M206.7,501.6H206c0-2.5-2.1-3.8-4.1-3.8c-0.8,0-1.6,0.2-2.1,0.7c-1.4,1.3-0.9,2.8,1.4,4.3c2.3,1.5,3.5,3.1,1.7,5.2
			c-0.7,0.8-1.8,1.2-2.9,1.2c-2.2,0-4.7-1.6-4.7-4.5h0.7c0,2.5,2.1,3.9,4,3.9c0.9,0,1.7-0.2,2.3-0.9c1.6-1.9,0.5-3.1-1.6-4.4
			c-2.7-1.8-3.2-3.7-1.4-5.3c0.7-0.6,1.6-0.9,2.6-0.9C204.2,497.1,206.7,498.7,206.7,501.6z"/>
		<path d="M211,503.9h6.9v5h-10.1v-0.7h9.4v-3.6h-6.9v-0.7c0-4.8,2.5-6.5,4.6-6.5c2.1,0,4.2,1.7,4.2,4.3h-0.7c0-2.2-1.5-3.6-3.5-3.6
			C212.9,498,211,499.5,211,503.9z"/>
		<path d="M223.2,498.3v4.6h8.2v6h-10.1v-0.7h9.4v-4.6h-8.2v-6h10.1v0.7H223.2z"/>
		<path d="M358.1,495.5v6.9h10.6v0.7h-10.6v5.8h-0.7v-14.1h11.3v0.7H358.1z"/>
		<path d="M382.6,508.2v0.7H379v-1.7c-0.8,1.2-2.1,1.9-3.5,1.9c-2.1,0-4.2-1.7-4.2-4.3v-7.2h0.7v7.2c0,1.9,1.5,3.6,3.5,3.6
			c2,0,3.5-1.6,3.5-3.6v-7.2h0.7v10.6H382.6z M375.6,494.2l-4,2.6v-0.7l4-2.6l3.9,2.6v0.7L375.6,494.2z"/>
		<path d="M384.2,508.2h2.9v0.7h-3.8l5.2-15.1h-5v-0.7h5.9L384.2,508.2z M389.4,508.2h5.2v0.7h-6.1l5.2-15.1h-2.9v-0.7h3.8
			L389.4,508.2z"/>
		<path d="M412.6,508.2h10.1v0.7h-11.3v-14.1h0.7v13l9.8-14.7h0.7L412.6,508.2z"/>
		<path d="M436.2,508.2v0.7h-2.9v-10.6h-8.3v-0.7h9v10.6H436.2z M433.3,504.6c0,2.7-2.1,4.5-4.2,4.5c-2.1,0-4.2-1.7-4.2-4.5
			s2.1-4.5,4.2-4.5C431.2,500.1,433.3,501.8,433.3,504.6z M432.6,504.6c0-2.4-1.8-3.8-3.5-3.8c-1.8,0-3.5,1.4-3.5,3.8
			s1.7,3.8,3.5,3.8C430.8,508.4,432.6,507,432.6,504.6z M425.9,493.7h0.6c0,1,0.7,2.7,2.6,2.7c1.9,0,2.5-1.6,2.5-2.7h0.6
			c0,2-1.6,3.3-3.2,3.3C427.5,497,425.9,495.7,425.9,493.7z M431.8,493.1l-5.7-3.7l0.4-0.6l5.6,3.7L431.8,493.1z"/>
		<path d="M443.1,498.3l-2.3,6.5c0,2,1.8,3.6,4.2,3.6c2.2,0,4.1-1.5,4.1-3.6h0.7c0,2.5-2.2,4.3-4.7,4.3c-2.7,0-4.9-1.7-4.9-4.3
			l2.3-6.5h-4v-0.7h4.3l1.6-4.5h0.7l-1.6,4.5h6.3v0.7H443.1z M444.6,492.1l-4-2.6v-0.7l4,2.6l3.9-2.6v0.7L444.6,492.1z"/>
		<path d="M463.2,508.2v0.7h-11.3v-0.7h5.6v-9.9h-5.6v-0.7h6.3v10.6H463.2z M461.3,496.1h-6.8v-0.7h6.8V496.1z"/>
		<path d="M475.3,501.6v7.2h-0.7v-7.2c0-2-1.8-3.6-3.7-3.6c-2,0-3.7,1.5-3.7,3.6v7.2h-0.7v-11.3h0.7v1.8c0.8-1.3,2.3-2,3.7-2
			C473,497.4,475.3,499.1,475.3,501.6z M471,496.6l-4-2.6v-0.7l4,2.6l3.9-2.6v0.7L471,496.6z"/>
		<path d="M499.4,508.8h-4.7v-0.7h4.7c2.4,0,3.6-1.6,3.6-3c0-1.5-1.2-3-3.6-3h-2.7c-2.8,0-4.3-1.8-4.3-3.6c0-1.9,1.4-3.7,4.3-3.7
			h4.1v0.7h-4.1c-2.4,0-3.6,1.5-3.6,3.1c0,1.5,1.2,2.9,3.6,3h2.7c2.8,0,4.2,1.8,4.3,3.7C503.7,507,502.3,508.8,499.4,508.8z"/>
		<path d="M517.6,508.2v0.7H514v-1.7c-0.8,1.2-2.1,1.9-3.5,1.9c-2.1,0-4.2-1.7-4.2-4.3v-7.2h0.7v7.2c0,1.9,1.5,3.6,3.5,3.6
			c2,0,3.5-1.6,3.5-3.6v-7.2h0.7v10.6H517.6z M510.6,492.9l-4-2.6v-0.7l4,2.6l3.9-2.6v0.7L510.6,492.9z M508.3,494
			c0.3,0,0.7,0.3,0.7,0.7c0,0.4-0.3,0.7-0.7,0.7c-0.3,0-0.7-0.3-0.7-0.7C507.6,494.3,508,494,508.3,494z M512.8,494
			c0.3,0,0.7,0.3,0.7,0.7c0,0.4-0.3,0.7-0.7,0.7c-0.3,0-0.7-0.3-0.7-0.7C512.1,494.3,512.5,494,512.8,494z"/>
		<path d="M522.8,513.3h-3.4v-0.7h2.7v-14.4h-2.7v-0.7h3.4V513.3z M530.7,503.2c0,4.1-1.9,5.8-3.9,5.8c-2,0-4-1.8-4-5.8
			c0-4,2-5.8,4-5.8C528.8,497.4,530.7,499.2,530.7,503.2z M530,503.2c0-3.7-1.4-5.2-3.2-5.2c-1.9,0-3.3,1.5-3.3,5.2
			c0,3.7,1.4,5.2,3.3,5.2C528.6,508.4,530,506.9,530,503.2z"/>
		<path d="M536.3,513.3h-3.4v-0.7h2.7v-14.4h-2.7v-0.7h3.4V513.3z M544.2,503.2c0,4.1-1.9,5.8-3.9,5.8c-2,0-4-1.8-4-5.8
			c0-4,2-5.8,4-5.8C542.3,497.4,544.2,499.2,544.2,503.2z M543.5,503.2c0-3.7-1.4-5.2-3.2-5.2c-1.9,0-3.3,1.5-3.3,5.2
			c0,3.7,1.4,5.2,3.3,5.2C542.1,508.4,543.5,506.9,543.5,503.2z"/>
		<path d="M558.7,505.7l0.6,0.3c-1,1.8-3,3-5,3c-0.8,0-1.5-0.2-2.3-0.5c-0.7,0.3-1.5,0.5-2.3,0.5c-2.8,0-5.6-2.3-5.6-5.9
			c0-3.5,2.8-5.9,5.6-5.9c0.8,0,1.5,0.2,2.3,0.5c0.7-0.3,1.5-0.5,2.3-0.5c2.8,0,5.6,2.3,5.6,5.6h-4.5v0.2c0,2.2-1.1,4-2.6,5
			c0.5,0.1,1,0.2,1.5,0.2C556.2,508.4,557.7,507.5,558.7,505.7z M551.3,508.1c-1.5-1-2.7-2.8-2.7-5.2c0-2,1.1-3.7,2.6-4.7
			c-0.5-0.2-1-0.2-1.5-0.2c-2.5,0-5,2.2-5,5.2c0,3.2,2.5,5.2,5,5.2C550.3,508.4,550.8,508.3,551.3,508.1z M554.8,503h-5.4
			c0,2.3,1.1,4.1,2.7,4.9c1.5-0.8,2.7-2.5,2.7-4.6V503z M554.7,502.3c-0.3-1.6-1.3-3-2.7-3.7c-1.4,0.7-2.4,2-2.6,3.7H554.7z
			 M552.8,498.3c1.3,0.9,2.3,2.3,2.5,4h3.8c-0.3-2.6-2.4-4.3-4.9-4.3C553.8,498,553.3,498.1,552.8,498.3z"/>
		<path d="M570.1,501.6h-0.7c0-1.9-1.5-3.6-3.5-3.6c-2,0-3.5,1.6-3.5,3.6v7.2h-0.7v-11.3h0.7v1.7c0.8-1.2,2.1-1.9,3.5-1.9
			C568,497.4,570.1,499.1,570.1,501.6z"/>
		<path d="M578.2,498.3v9.9h5.4v0.7h-6.1v-10.6h-5.2v-0.7h5.2v-4.5h0.7v4.5h5.4v0.7H578.2z"/>
		<path d="M11.2,516.9h0.7l-5.2,14.1H6.4L11.2,516.9z M9.4,525v-0.7l5.2,0.5v0.2H9.4z M17,530.9l-4.8-14.1h0.2l5.2,14.1H17z"/>
		<path d="M19.9,515.9v-0.7h5.2v0.2L19.9,515.9z M19.9,530.9v-0.2l5.2-0.5v0.7H19.9z M25.6,515.2h0.7l-0.5,15.8h-0.2V515.2z
			 M26.2,530.9v-0.7l5,0.5v0.2H26.2z"/>
		<path d="M33.4,530.9v-0.2l4.7-0.5v0.7H33.4z M38.2,515.9v-0.7h5.2v0.2L38.2,515.9z M44,515.2h0.7l-5.9,15.8h-0.2L44,515.2z
			 M39.3,530.9v-0.7l5.4,0.5v0.2H39.3z"/>
		<path d="M46.9,520.4v-0.7h3.6v0.2L46.9,520.4z M52.6,515.2h0.7l-4.5,11.2h-0.2L52.6,515.2z M58,526.9c0,2.2-2.3,3.8-4.3,3.8
			c-2.7,0-4.3-1.6-4.3-3.8h-0.7c0,2.5,2.2,4.3,5,4.3c2.1,0,4.5-1.7,4.5-4.3H58z M51.7,519.9v-0.2h6.5v0.7L51.7,519.9z"/>
		<path d="M61.3,530.9h-0.2v-6.5h0.7L61.3,530.9z M61.8,530.9v-0.2l10.6-0.5v0.7H61.8z M62.2,523.7c0-2.5,2.1-4.3,4.2-4.3
			c2.1,0,4.2,1.7,4.2,4.3h-0.7c0-2.4-1.5-3.8-3.5-3.8c-2,0-3.9,1.4-3.9,3.8H62.2z M62.2,524.2h0.2c0,2.4,2,3.8,3.9,3.8
			c2,0,3.5-1.4,3.5-3.8h0.7c0,2.5-2.1,4.3-4.2,4.3C64.3,528.4,62.2,526.7,62.2,524.2z"/>
		<path d="M73.9,525.1c0-3.3,2.8-5.6,5.6-5.6c2.8,0,5.6,2.3,5.6,5.6H85c0-3.2-2.7-5.2-5.4-5.2c-2.7,0-5,2.1-5,5.2H73.9z M83.9,527.8
			l0.6,0.3c-1,1.8-3,3-5,3c-2.8,0-5.6-2.3-5.6-5.6h0.2c0,3.1,2.7,5.1,5.4,5.2C81.5,530.7,82.9,529.6,83.9,527.8z M84.5,525.1h-9.5
			v-0.2l9.5-0.5V525.1z"/>
		<path d="M88.1,519.7l-0.4,11.3h-0.2v-11.3H88.1z M89.9,530.9h-1.8v-0.2l1.8-0.5V530.9z M98,523.7c0-2.2-1.5-3.8-3.5-3.8
			c-2,0-3.9,1.6-3.9,3.8h-0.2c0-2.5,2.1-4.3,4.2-4.3c2.1,0,4.2,1.7,4.2,4.3H98z M91,524.2l-0.5,6.8h-0.2v-6.8H91z"/>
		<path d="M102.4,519.7l-0.5,11.3h-0.2v-11.3H102.4z M102.4,530.3l1.6,0.5v0.2h-1.6V530.3z M111.2,523.7c0-2.2-2-3.8-3.9-3.8
			c-2,0-3.5,1.6-3.5,3.8h-0.7c0-2.5,2.1-4.3,4.2-4.3c2.1,0,4.2,1.7,4.2,4.3H111.2z M111.2,524.2h0.2v6.8h-0.7L111.2,524.2z"/>
		<path d="M122.5,519.7v0.2l-8.1,0.5v-0.7H122.5z M122.8,526.5h-0.2c0-2.4-2-3.8-3.9-3.8c-2,0-3.5,1.4-3.5,3.8h-0.7
			c0-2.5,2.1-4.3,4.2-4.3C120.7,522.2,122.8,523.9,122.8,526.5z M122.8,526.9c0,2.5-2.1,4.3-4.2,4.3c-2.1,0-4.2-1.7-4.2-4.3h0.7
			c0,2.4,1.5,4,3.5,4c2,0,3.9-1.6,3.9-4H122.8z M123,530.9v-11.3h0.2l0.5,11.3H123z M125.7,530.7v0.2h-1.8v-0.7L125.7,530.7z"/>
		<path d="M127.9,525.1c0-3.3,2.5-5.6,5.3-5.6s5.3,2.3,5.3,5.6h-0.2c0-2.9-2.4-5.2-5-5.2c-2.7,0-4.6,2.3-4.6,5.2H127.9z
			 M127.9,525.6h0.2c0,2.9,2.4,5.1,5.1,5.2c2.7,0,4.6-2.2,4.6-5.2h0.7c0,3.3-2.5,5.6-5.3,5.6S127.9,528.8,127.9,525.6z M138.5,530.9
			l0.5-11.3h0.2v11.3H138.5z"/>
		<path d="M141.4,520.4v-0.7h3.6v0.2L141.4,520.4z M147.1,515.2h0.7l-4.5,11.2h-0.2L147.1,515.2z M152.5,526.9
			c0,2.2-2.3,3.8-4.3,3.8c-2.7,0-4.3-1.6-4.3-3.8h-0.7c0,2.5,2.2,4.3,5,4.3c2.1,0,4.5-1.7,4.5-4.3H152.5z M146.2,519.9v-0.2h6.5v0.7
			L146.2,519.9z"/>
		<path d="M160.6,515.2h0.7l-6.1,15.8h-0.2L160.6,515.2z M154.9,520.4v-0.7h3.6v0.2L154.9,520.4z M155.8,530.9v-0.2l10.4-0.5v0.7
			H155.8z M159.7,519.9v-0.2h6.5v0.7L159.7,519.9z"/>
		<path d="M167.3,520.4v-0.7h5.2v0.2L167.3,520.4z M172.9,515.2h0.2v15.8h-0.7L172.9,515.2z M173.6,519.9v-0.2h5v0.7L173.6,519.9z
			 M173.6,530.9v-0.2l5-0.5v0.7H173.6z"/>
		<path d="M182.8,530.9h-0.2v-6.5h0.7L182.8,530.9z M183.3,530.9v-0.2l10.6-0.5v0.7H183.3z M183.7,523.7c0-2.5,2.1-4.3,4.2-4.3
			c2.1,0,4.2,1.7,4.2,4.3h-0.7c0-2.4-1.5-3.8-3.5-3.8c-2,0-3.9,1.4-3.9,3.8H183.7z M183.7,524.2h0.2c0,2.4,2,3.8,3.9,3.8
			c2,0,3.5-1.4,3.5-3.8h0.7c0,2.5-2.1,4.3-4.2,4.3C185.8,528.4,183.7,526.7,183.7,524.2z"/>
		<path d="M203,530.2c-0.7,0.8-1.8,1.2-2.9,1.2c-2.2,0-4.7-1.6-4.7-4.5h0.7c0,2.5,2.1,4.3,4,4.2c0.9,0,2-0.6,2.5-1.2
			c1.7-1.9,0.4-2.9-1.6-4.3l0.2-0.2C203.5,526.9,204.8,528,203,530.2z M199.3,520.1c0.7-0.6,1.6-0.9,2.6-0.9c2.3,0,4.7,1.6,4.7,4.5
			H206c0-2.5-2.1-4.1-4.1-4.1c-0.8,0-1.7,0.4-2.3,0.9c-1.5,1.3-0.8,2.9,1.4,4.4l-0.4,0.5C198,523.5,197.6,521.7,199.3,520.1z"/>
		<path d="M216.8,530.7v0.2h-9v-0.7L216.8,530.7z M219.1,523.7h-0.7c0-2.4-1.5-3.8-3.5-3.8c-2,0-4.4,1.4-4.4,5.6h-0.2
			c0-4.3,2.5-6.1,4.6-6.1C217,519.5,219.1,521.2,219.1,523.7z M216.8,526v0.2l-6.5,0.5V526H216.8z M217.4,530.9h-0.2v-5h0.7
			L217.4,530.9z"/>
		<path d="M230.3,530.7v0.2h-9v-0.7L230.3,530.7z M222.9,519.7h0.2v5.7h-0.7L222.9,519.7z M223.6,519.9v-0.2h9v0.7L223.6,519.9z
			 M230.3,525.2v0.2h-6.7v-0.7L230.3,525.2z M230.9,530.9h-0.2v-5.7h0.7L230.9,530.9z"/>
		<path d="M358.1,517.6v6.9h10.6v0.7h-10.6v5.8h-0.7v-14.1h11.3v0.7H358.1z"/>
		<path d="M382.6,530.3v0.7H379v-1.7c-0.8,1.2-2.1,1.9-3.5,1.9c-2.1,0-4.2-1.7-4.2-4.3v-7.2h0.7v7.2c0,1.9,1.5,3.6,3.5,3.6
			c2,0,3.5-1.6,3.5-3.6v-7.2h0.7v10.6H382.6z"/>
		<path d="M384.2,530.3h2.9v0.7h-3.8l5.2-15.1h-5v-0.7h5.9L384.2,530.3z M389.4,530.3h5.2v0.7h-6.1l5.2-15.1h-2.9v-0.7h3.8
			L389.4,530.3z"/>
		<path d="M422.7,530.3v0.7h-11.3v-14.1h0.7v13.4H422.7z"/>
		<path d="M436.2,530.3v0.7h-2.9v-10.6h-8.3v-0.7h9v10.6H436.2z M433.3,526.7c0,2.7-2.1,4.5-4.2,4.5c-2.1,0-4.2-1.7-4.2-4.5
			s2.1-4.5,4.2-4.5C431.2,522.2,433.3,523.9,433.3,526.7z M432.6,526.7c0-2.4-1.8-3.8-3.5-3.8c-1.8,0-3.5,1.4-3.5,3.8
			s1.7,3.8,3.5,3.8C430.8,530.5,432.6,529.1,432.6,526.7z M432.5,518.2h-6.8v-0.7h6.8V518.2z"/>
		<path d="M443.1,520.4l-1.6,4.6h8.2v0.7h-8.5l-0.5,1.3c0,2,1.8,3.6,4.2,3.6c2.2,0,4.1-1.5,4.1-3.6h0.7c0,2.5-2.2,4.3-4.7,4.3
			c-2.7,0-4.9-1.7-4.9-4.3l0.5-1.3h-2.1V525h2.4l1.6-4.6h-4v-0.7h4.3l1.6-4.5h0.7l-1.6,4.5h6.3v0.7H443.1z"/>
		<path d="M461.7,519.7h0.7v11.3c0,2.8-2.9,4.7-5.4,4.7c-2.6,0-5-1.8-5-4.7v-0.7h5.6v-9.9h-5.6v-0.7h6.3v11.3h-5.6
			c0,2.2,1.9,4,4.4,4c2.4,0,4.7-1.8,4.7-4V519.7z M458.8,517.9h-2.3v-0.7h2.3V517.9z M463.2,517.2v0.7h-2.3v-0.7H463.2z"/>
		<path d="M475.3,523.7v7.2h-0.7v-7.2c0-2-1.8-3.6-3.7-3.6c-2,0-3.7,1.5-3.7,3.6v7.2h-0.7v-11.3h0.7v1.8c0.8-1.3,2.3-2,3.7-2
			C473,519.5,475.3,521.2,475.3,523.7z M470.7,530.9h0.7l-1.6,3.1h-0.7L470.7,530.9z"/>
		<path d="M499.4,530.9h-4.7v-0.7h4.7c2.4,0,3.6-1.6,3.6-3c0-1.5-1.2-3-3.6-3h-2.7c-2.8,0-4.3-1.8-4.3-3.6c0-1.9,1.4-3.7,4.3-3.7
			h4.1v0.7h-4.1c-2.4,0-3.6,1.5-3.6,3.1c0,1.5,1.2,2.9,3.6,3h2.7c2.8,0,4.2,1.8,4.3,3.7C503.7,529.1,502.3,530.9,499.4,530.9z
			 M498.2,516.2l-4-2.6v-0.7l4,2.6l3.9-2.6v0.7L498.2,516.2z"/>
		<path d="M517.6,530.3v0.7H514v-1.7c-0.8,1.2-2.1,1.9-3.5,1.9c-2.1,0-4.2-1.7-4.2-4.3v-7.2h0.7v7.2c0,1.9,1.5,3.6,3.5,3.6
			c2,0,3.5-1.6,3.5-3.6v-7.2h0.7v10.6H517.6z M508.9,518.5h-0.7v-3.4h0.7V518.5z M512.9,518.5h-0.7v-3.4h0.7V518.5z"/>
		<path d="M522.8,535.4h-3.4v-0.7h2.7v-14.4h-2.7v-0.7h3.4V535.4z M530.7,525.3c0,4.1-1.9,5.8-3.9,5.8c-2,0-4-1.8-4-5.8
			c0-4,2-5.8,4-5.8C528.8,519.5,530.7,521.3,530.7,525.3z M530,525.3c0-3.7-1.4-5.2-3.2-5.2c-1.9,0-3.3,1.5-3.3,5.2
			c0,3.7,1.4,5.2,3.3,5.2C528.6,530.5,530,529,530,525.3z"/>
		<path d="M536.3,535.4h-3.4v-0.7h2.7v-18.9h-2.7v-0.7h3.4V535.4z M544.2,525.3c0,4.1-1.9,5.8-3.9,5.8c-2,0-4-1.8-4-5.8
			c0-4,2-5.8,4-5.8C542.3,519.5,544.2,521.3,544.2,525.3z M543.5,525.3c0-3.7-1.4-5.2-3.2-5.2c-1.9,0-3.3,1.5-3.3,5.2
			c0,3.7,1.4,5.2,3.3,5.2C542.1,530.5,543.5,529,543.5,525.3z"/>
		<path d="M557.7,525.3c0,3.5-2.8,5.9-5.6,5.9s-5.6-2.3-5.6-5.9c0-3.5,2.8-5.9,5.6-5.9S557.7,521.8,557.7,525.3z M557,525.3
			c0-2.9-2.5-5.2-4.9-5.2c-2.5,0-5,2.2-5,5.2c0,3.2,2.5,5.2,5,5.2C554.5,530.5,557,528.5,557,525.3z"/>
		<path d="M570.1,523.7h-0.7c0-1.9-1.5-3.6-3.5-3.6c-2,0-3.5,1.6-3.5,3.6v7.2h0.1l-1.6,3.1h-0.7l1.6-3.1h0v-11.3h0.7v1.7
			c0.8-1.2,2.1-1.9,3.5-1.9C568,519.5,570.1,521.2,570.1,523.7z"/>
		<path d="M578.1,520.4l-2.3,6.5c0,2,1.8,3.6,4.2,3.6c2.2,0,4.1-1.5,4.1-3.6h0.7c0,2.5-2.2,4.3-4.7,4.3c-2.7,0-4.9-1.7-4.9-4.3
			l2.3-6.5h-4v-0.7h4.3l1.6-4.5h0.7l-1.6,4.5h6.3v0.7H578.1z M579.6,514.2l-4-2.6v-0.7l4,2.6l3.9-2.6v0.7L579.6,514.2z"/>
		<path d="M11.7,539h0.2L6.7,553H6.4L11.7,539z M9.4,547.1v-0.2h5.2v0.2H9.4z M17.5,553L12.2,539h0.2l5.2,14.1H17.5z"/>
		<path d="M19.9,537.5v-0.2h5.2v0.2H19.9z M19.9,553v-0.2h5.2v0.2H19.9z M25.6,537.3h0.2V553h-0.2V537.3z M26.2,553v-0.2h5v0.2H26.2
			z"/>
		<path d="M33.4,553v-0.2h4.7v0.2H33.4z M44.5,537.3h0.2L38.8,553h-0.2L44.5,537.3z M38.8,537.5v-0.2h5v0.2H38.8z M39.3,553v-0.2
			h5.4v0.2H39.3z"/>
		<path d="M46.9,542v-0.2h3.6v0.2H46.9z M52.6,537.3h0.2l-4,11.2h-0.2L52.6,537.3z M58,549c0,2.4-2.3,4-4.3,4c-2.7,0-4.3-1.6-4.3-4
			h-0.2c0,2.5,1.8,4.3,4.5,4.3c2.1,0,4.5-1.7,4.5-4.3H58z M51.7,542v-0.2h6.5v0.2H51.7z"/>
		<path d="M61.1,553h-0.2v-6.5h0.2V553z M61.6,545.8c0-2.5,2.1-4.3,4.2-4.3c2.1,0,4.2,1.7,4.2,4.3h-0.2c0-2.4-2-4-3.9-4
			c-2,0-3.9,1.6-3.9,4H61.6z M61.6,546.3h0.2c0,2.4,2,4,3.9,4c2,0,3.9-1.6,3.9-4h0.2c0,2.5-2.1,4.3-4.2,4.3
			C63.6,550.5,61.6,548.8,61.6,546.3z M61.6,553v-0.2h10.6v0.2H61.6z"/>
		<path d="M73.9,547.2c0-3.3,2.8-5.6,5.6-5.6c2.8,0,5.6,2.3,5.6,5.6H85c0-3.2-2.7-5.4-5.4-5.4c-2.7,0-5.4,2.3-5.4,5.4H73.9z
			 M84.4,550.2l0.2,0.1c-1,1.8-3,3-5,3c-2.8,0-5.6-2.3-5.6-5.6h0.2c0,3.1,2.7,5.4,5.4,5.4C81.5,553.1,83.4,551.9,84.4,550.2z
			 M84.5,547.2h-9.9v-0.2h9.9V547.2z"/>
		<path d="M88.7,541.8V553h-0.2v-11.3H88.7z M88.9,553h0.2v-0.2h-0.2V553z M97.4,545.8c0-2.4-2-4-3.9-4c-2,0-3.9,1.6-3.9,4h-0.2
			c0-2.5,2.1-4.3,4.2-4.3c2.1,0,4.2,1.7,4.2,4.3H97.4z M89.6,546.3v6.8h-0.2v-6.8H89.6z"/>
		<path d="M102.2,541.8V553h-0.2v-11.3H102.2z M110.7,545.8c0-2.4-2-4-3.9-4c-2,0-3.9,1.6-3.9,4h-0.2c0-2.5,2.1-4.3,4.2-4.3
			c2.1,0,4.2,1.7,4.2,4.3H110.7z M110.7,546.3h0.2v6.8h-0.2V546.3z"/>
		<path d="M122.8,541.8v0.2h-8.3v-0.2H122.8z M122.8,548.6h-0.2c0-2.4-2-4-3.9-4c-2,0-3.9,1.6-3.9,4h-0.2c0-2.5,2.1-4.3,4.2-4.3
			C120.7,544.3,122.8,546,122.8,548.6z M122.8,549c0,2.5-2.1,4.3-4.2,4.3c-2.1,0-4.2-1.7-4.2-4.3h0.2c0,2.4,2,4,3.9,4
			c2,0,3.9-1.6,3.9-4H122.8z M123.2,553v-11.3h0.2V553H123.2z M125.7,552.8v0.2h-1.8v-0.2H125.7z"/>
		<path d="M127.9,547.2c0-3.3,2.5-5.6,5.3-5.6c2.8,0,5.3,2.3,5.3,5.6h-0.2c0-3.2-2.4-5.4-5.1-5.4c-2.7,0-5.1,2.3-5.1,5.4H127.9z
			 M127.9,547.7h0.2c0,3.1,2.3,5.4,5.1,5.4c2.7,0,5.1-2.2,5.1-5.4h0.2c0,3.3-2.5,5.6-5.3,5.6C130.4,553.3,127.9,550.9,127.9,547.7z
			 M139,553v-11.3h0.2V553H139z"/>
		<path d="M141.4,542v-0.2h3.6v0.2H141.4z M147.1,537.3h0.2l-4,11.2h-0.2L147.1,537.3z M152.5,549c0,2.4-2.3,4-4.3,4
			c-2.7,0-4.3-1.6-4.3-4h-0.2c0,2.5,1.8,4.3,4.5,4.3c2.1,0,4.5-1.7,4.5-4.3H152.5z M146.2,542v-0.2h6.5v0.2H146.2z"/>
		<path d="M160.6,537.3h0.2l-5.6,15.8h-0.2L160.6,537.3z M154.9,542v-0.2h3.6v0.2H154.9z M155.8,553v-0.2h10.4v0.2H155.8z
			 M159.7,542v-0.2h6.5v0.2H159.7z"/>
		<path d="M167.3,542v-0.2h5.2v0.2H167.3z M172.9,537.3h0.2V553h-0.2V537.3z M173.6,542v-0.2h5v0.2H173.6z M173.6,553v-0.2h5v0.2
			H173.6z"/>
		<path d="M182.6,553h-0.2v-6.5h0.2V553z M183.1,545.8c0-2.5,2.1-4.3,4.2-4.3c2.1,0,4.2,1.7,4.2,4.3h-0.2c0-2.4-2-4-3.9-4
			c-2,0-3.9,1.6-3.9,4H183.1z M183.1,546.3h0.2c0,2.4,2,4,3.9,4c2,0,3.9-1.6,3.9-4h0.2c0,2.5-2.1,4.3-4.2,4.3
			C185.1,550.5,183.1,548.8,183.1,546.3z M183.1,553v-0.2h10.6v0.2H183.1z"/>
		<path d="M203,552.3c-0.7,0.8-1.8,1.2-2.9,1.2c-2.2,0-4.7-1.6-4.7-4.5h0.2c0,2.9,2.4,4.3,4.4,4.3c0.9,0,1.9-0.2,2.7-1.1
			c1.7-2,0.7-3.1-1.6-4.6l0.2-0.2C203.7,548.8,204.8,550.1,203,552.3z M199.3,542.2c0.7-0.6,1.6-0.9,2.6-0.9c2.3,0,4.7,1.6,4.7,4.5
			h-0.2c0-2.7-2.3-4.3-4.5-4.3c-0.8,0-1.9,0.3-2.5,0.9c-1.6,1.5-1,3.2,1.6,4.8l-0.2,0.2C198.2,545.6,197.6,543.8,199.3,542.2z"/>
		<path d="M216.8,552.8v0.2h-9v-0.2H216.8z M219.1,545.8h-0.2c0-2.4-2-4-3.9-4c-2,0-4.4,1.6-4.4,5.8h-0.2c0-4.3,2.5-6.1,4.6-6.1
			C217,541.6,219.1,543.3,219.1,545.8z M216.8,548.1v0.2h-6.5v-0.2H216.8z M217.4,553h-0.2v-5h0.2V553z"/>
		<path d="M230.3,552.8v0.2h-9v-0.2H230.3z M222.9,541.8h0.2v5.7h-0.2V541.8z M223.6,542v-0.2h9v0.2H223.6z M230.3,547.3v0.2h-6.7
			v-0.2H230.3z M230.9,553h-0.2v-5.7h0.2V553z"/>
		<path d="M360.4,541.9v3.7h8.3v2.9h-8.3v4.5h-2.9V539h11.3v2.9H360.4z"/>
		<path d="M382.6,550.1v2.9h-5.8c-0.4,0.2-0.9,0.2-1.3,0.2c-2.1,0-4.2-1.7-4.2-4.3v-7.2h2.9v7.2c0,1,0.6,1.3,1.2,1.3
			c0.6,0,1.2-0.3,1.2-1.3v-7.2h2.9v8.3H382.6z M373.5,541.2l-1.6-2.5l5.6-3.7l1.6,2.5L373.5,541.2z"/>
		<path d="M391.1,550.1h3.5v2.9h-11.3l3.5-12.8h-3.3v-2.9h11L391.1,550.1z M390.8,540.2h-1.1l-2.7,9.9h1.1L390.8,540.2z"/>
		<path d="M422.7,550.1v2.9h-11.3V539h2.9v11.1H422.7z M415,538.5l-1.6-2.5l5.6-3.7l1.6,2.5L415,538.5z"/>
		<path d="M436.2,550.1v2.9h-4.1c-0.8,0.9-1.9,1.4-3,1.4c-2.1,0-4.2-1.7-4.2-4.5c0-2.8,2.1-4.5,4.2-4.5c0.9,0,1.8,0.3,2.5,0.9v-1.6
			h-6.7v-2.9h9.6v8.3H436.2z M429.8,541.8c-1.1,0-2.2-1-2.2-2.3c0-1.2,1.1-2.2,2.2-2.2c1.1,0,2.2,1,2.2,2.2
			C432,540.8,430.9,541.8,429.8,541.8z M430.3,549.9c0-1-0.6-1.6-1.2-1.6c-0.6,0-1.2,0.5-1.2,1.6c0,1,0.6,1.6,1.2,1.6
			C429.7,551.5,430.3,551,430.3,549.9z M430.4,539.5c0-0.4-0.3-0.7-0.7-0.7c-0.3,0-0.7,0.3-0.7,0.7c0,0.4,0.3,0.7,0.7,0.7
			C430.1,540.2,430.4,539.9,430.4,539.5z"/>
		<path d="M444.6,544.7L443,549c0,0.7,0.9,1.3,1.9,1.3c0.8,0,1.8-0.6,1.8-1.3h2.9c0,2.5-2.2,4.3-4.7,4.3c-2.7,0-4.9-1.7-4.9-4.3
			l1.5-4.3h-3.2v-2.9h4.3l1.6-4.5h2.9l-1.6,4.5h4.1v2.9H444.6z M443.5,553.3h2.9l-1.6,3.2h-2.9L443.5,553.3z"/>
		<path d="M463.2,550.1v2.9h-11.3v-2.9h4.5v-5.4h-4.5v-2.9h7.4v8.3H463.2z M455.8,538.4c0-1.2,1.1-2.2,2.2-2.2s2.2,1,2.2,2.2
			c0,1.3-1.1,2.3-2.2,2.3S455.8,539.7,455.8,538.4z"/>
		<path d="M476.7,545.8v7.2h-2.9v-7.2c0-0.9-0.6-1.4-1.2-1.4c-0.6,0-1.2,0.5-1.2,1.4v7.2h-5.9v-11.3h2.9v4c0-2.8,2.1-4.2,4.2-4.2
			C474.6,541.6,476.7,543,476.7,545.8z M477,537.1v2.9c-3,4.5-6-4.5-9,0v-2.9C471,532.6,474.1,541.6,477,537.1z"/>
		<path d="M499.4,553h-4.7v-2.9h4.7c0.3,0,1.4-0.2,1.4-1.3c0-1-1.1-1.3-1.4-1.3h-2.7c-2.8,0-4.3-2.5-4.3-4.3c0-1.9,1.4-4.2,4.3-4.2
			h4.1v2.9h-4.1c-0.3,0-1.4,0.2-1.4,1.3c0,1.2,1.1,1.4,1.4,1.4h2.7c2.8,0,4.2,2.4,4.3,4.2C503.7,550.6,502.3,553,499.4,553z"/>
		<path d="M506.1,538.8c0-1.2,1.1-2.2,2.2-2.2c1.1,0,2.2,1,2.2,2.2c0,1.3-1.1,2.3-2.2,2.3C507.1,541.1,506.1,540.1,506.1,538.8z
			 M517.6,550.1v2.9h-5.8c-0.4,0.2-0.9,0.2-1.3,0.2c-2.1,0-4.2-1.7-4.2-4.3v-7.2h2.9v7.2c0,1,0.6,1.3,1.2,1.3c0.6,0,1.2-0.3,1.2-1.3
			v-7.2h2.9v8.3H517.6z M510.6,538.8c0-1.2,1.1-2.2,2.2-2.2c1.1,0,2.2,1,2.2,2.2c0,1.3-1.1,2.3-2.2,2.3
			C511.6,541.1,510.6,540.1,510.6,538.8z"/>
		<path d="M522.8,541.8v15.8h-3.4v-15.8H522.8z M530.7,547.4c0,4.1-1.9,5.8-3.9,5.8c-2,0-4-1.8-4-5.8c0-4,2-5.8,4-5.8
			C528.8,541.6,530.7,543.4,530.7,547.4z M527.8,547.4c0-1.9-0.2-2.9-1-2.9c-0.7,0-1.1,1.1-1.1,2.9s0.3,3.2,1.1,3.2
			C527.5,550.6,527.8,549.3,527.8,547.4z"/>
		<path d="M536.3,541.8v15.8h-3.4v-15.8H536.3z M544.2,547.4c0,4.1-1.9,5.8-3.9,5.8c-2,0-4-1.8-4-5.8c0-4,2-5.8,4-5.8
			C542.3,541.6,544.2,543.4,544.2,547.4z M541.3,547.4c0-1.9-0.2-2.9-1-2.9c-0.7,0-1.1,1.1-1.1,2.9s0.3,3.2,1.1,3.2
			C541,550.6,541.3,549.3,541.3,547.4z"/>
		<path d="M557.7,547.4c0,3.5-2.8,5.9-5.6,5.9s-5.6-2.3-5.6-5.9c0-3.5,2.8-5.9,5.6-5.9S557.7,543.9,557.7,547.4z M547.6,534.6v-2.9
			c3-4.5,6,4.5,9,0v2.9C553.6,539.1,550.6,530.1,547.6,534.6z M552.1,536.3l3.9,2.2v2.9l-3.9-2.1l-4,2.1v-2.9L552.1,536.3z
			 M554.8,547.4c0-1.8-1.4-2.9-2.7-2.9c-1.4,0-2.7,1.1-2.7,2.9c0,2,1.4,2.9,2.7,2.9C553.4,550.3,554.8,549.4,554.8,547.4z"/>
		<path d="M571.2,545.8h-2.9c0-0.6-0.4-1.3-1.2-1.3c-0.9,0-1.2,0.7-1.2,1.3v7.2h-5.9v-11.3h2.9v4c0-2.5,2.1-4.3,4.2-4.3
			C569.1,541.6,571.2,543.3,571.2,545.8z M567,541.1l-4-2.2V536l4,2.1l3.9-2.1v2.9L567,541.1z"/>
		<path d="M578.7,544.7v5.4h4.8v2.9h-7.7v-8.3h-3.5v-2.9h3.5v-4.5h2.9v4.5h4.8v2.9H578.7z"/>
	</g>
	<g>
		<path d="M289.8,683.3h-2.3v-0.9h2.3c0.6,0,1.2-0.3,1.2-1c0-0.8-0.6-1.1-1.2-1.1h-1.4c-1.4,0-2.1-1.1-2.1-2c0-0.9,0.7-2,2.1-2h2
			v0.9h-2c-0.6,0-1.2,0.3-1.2,1.1c0,0.7,0.6,1.1,1.2,1.1h1.4c1.4,0,2.1,1.1,2.1,2C291.9,682.3,291.2,683.3,289.8,683.3z"/>
		<path d="M298.6,682.4v0.9H293v-0.9h2.5v-3.8H293v-0.9h3.4v4.7H298.6z M296.6,677.1h-1.1v-0.9h1.1V677.1z"/>
		<path d="M305.3,682.4v0.9h-5.6v-0.9h2.4v-6h-2.4v-0.9h3.3v6.9H305.3z"/>
		<path d="M274.2,736.9v5.3c0,5.3-4.5,9-9,9s-9-3.7-9-9v-5.3c0-5.2,4.5-9,9-9S274.2,731.6,274.2,736.9z M271.4,742.2v-5.3
			c0-2.5-1.8-6.1-6.1-6.1c-4.4,0-6.2,3.6-6.2,6.1v5.3c0,2.5,1.8,6,6.2,6.1C269.6,748.3,271.4,744.7,271.4,742.2z"/>
		<path d="M283.2,758h-5.4v-2.9h2.5v-19.4h-2.5v-2.9h5.4V758z M295.8,741.8c0,6.5-3.1,9.3-6.2,9.3c-3.2,0-6.4-2.9-6.4-9.3
			s3.2-9.3,6.4-9.3C292.7,732.5,295.8,735.3,295.8,741.8z M293,741.8c0-3.3-1.1-6.5-3.3-6.5c-2.3,0-3.5,3.1-3.5,6.5s1.2,6.9,3.5,6.8
			C291.8,748.6,293,745.1,293,741.8z"/>
		<path d="M313.8,745l2.2,1.8c-1.7,2.7-4.6,4.3-7.6,4.3c-4.5,0-9-3.7-9-9.4s4.5-9.4,9-9.4c4.5,0,9,3.7,9,10.8h-15c0.5,2.7,2.6,5,6,5
			C311,748.3,312.8,746.9,313.8,745z M302.5,740.3h11.7c-0.8-3-2.7-5.1-5.7-5C305.1,735.3,303.1,737.8,302.5,740.3z"/>
		<path d="M337.8,739.2v11.6h-2.9v-11.6c0-1.5-1-3.9-4.1-3.9c-3.2,0-4.1,2.4-4.1,3.9h-1.4v11.6h-2.9v-18h2.9v2.4
			c1.4-1.7,3.6-2.7,5.6-2.7C334.1,732.4,337.8,735.2,337.8,739.2z"/>
		<path d="M206.7,806.4v18.1h35.7v6.8h-35.7v21.4h-6.8v-53.1h42.5v6.8H206.7z"/>
		<path d="M293.4,831.5c0,13.3-10.5,22.1-21.2,22.1s-21.3-8.8-21.3-22.1c0-13.3,10.7-22.1,21.3-22.1S293.4,818.2,293.4,831.5z
			 M286.6,831.5c0-6.8-5.1-15.4-14.4-15.3c-9.4,0.1-14.5,8.5-14.5,15.3c0,7.7,5.1,15.2,14.5,15.3
			C281.5,846.9,286.6,839.2,286.6,831.5z"/>
		<path d="M341.4,825.5v27.3h-6.8v-27.3c0-3.5-2.4-9.3-9.8-9.3c-7.5,0-9.8,5.8-9.8,9.3h-3.4v27.3h-6.8v-42.5h6.8v5.6
			c3.2-4.1,8.4-6.5,13.2-6.5C332.7,809.4,341.4,816,341.4,825.5z"/>
		<path d="M370.7,817.1V846h20.4v6.8h-27.2v-35.7h-15.3v-6.8h15.3v-17h6.8v17h20.4v6.8H370.7z"/>
		<path d="M142.6,964.8v8h-50v-62.5h8v54.5H142.6z"/>
		<path d="M202.6,964.8v8h-50v-8h22.5v-34h-22.5v-8h30.5v42H202.6z M184.1,917.3h-10v-8h10V917.3z"/>
		<path d="M262.6,954.3c-1.6,11.7-14,19.5-24.9,19.5c-12.5,0-25.1-10.6-25.1-26c0-15.5,12.6-26,25.1-26c10.7,0,22.2,7.6,24,19h-8.5
			c-1.5-4.5-5.7-11-15.5-11c-11.1,0-17.1,9.3-17.1,18c0,8.7,6,17.9,17.1,18c10.4,0.1,15.2-4.7,16.9-11.5H262.6z"/>
		<path d="M312.5,956.9l6.2,5c-4.6,7.5-12.8,11.9-21,11.9c-12.5,0-25.1-10.4-25.1-26c0-15.6,12.6-26,25.1-26
			c12.5,0,24.9,10.3,24.9,30H281c1.5,7.5,7.3,13.9,16.7,14C304.8,965.9,309.8,962,312.5,956.9z M281.1,943.8h32.5
			c-2.1-8.2-7.5-14.1-15.9-14C288.4,929.9,282.7,936.8,281.1,943.8z"/>
		<path d="M379.1,940.7v32.1h-8v-32.1c0-4.1-2.8-10.9-11.5-10.9c-8.8,0-11.5,6.8-11.5,10.9h-4v32.1h-8v-50h8v6.6
			c3.8-4.8,9.9-7.6,15.5-7.6C368.9,921.8,379.1,929.5,379.1,940.7z"/>
		<path d="M402.8,930.8v13h29.6v29h-44.8v-8h36.8v-13h-29.6v-29h42.8v8H402.8z"/>
		<path d="M492.5,956.9l6.2,5c-4.6,7.5-12.8,11.9-21,11.9c-12.5,0-25.1-10.4-25.1-26c0-15.6,12.6-26,25.1-26s24.9,10.3,24.9,30H461
			c1.5,7.5,7.3,13.9,16.7,14C484.8,965.9,489.8,962,492.5,956.9z M461.1,943.8h32.5c-2.1-8.2-7.5-14.1-15.9-14
			C468.4,929.9,462.7,936.8,461.1,943.8z"/>
	</g>
</g>
<g id="Calque_3">
</g>
</svg>
