<?xml version="1.0" encoding="utf-8"?>
<!-- Generator: Adobe Illustrator 24.1.0, SVG Export Plug-In . SVG Version: 6.00 Build 0)  -->
<svg version="1.1" id="Calque_1" xmlns="http://www.w3.org/2000/svg" xmlns:xlink="http://www.w3.org/1999/xlink" x="0px" y="0px"
	 viewBox="0 0 1366 3000" style="enable-background:new 0 0 1366 3000;" xml:space="preserve">
<style type="text/css">
	.st0{fill:none;}
</style>
<g>
	<path d="M136.6,167.4v125.3h-17.4V184H99.7c1.2,73-15.8,108.6-49.9,108.6C16.2,292.6,0,253.7,0,209.5v-66.1
		c0-44.2,16.2-83.1,49.9-83.1c32.8,0,49.9,38.9,49.9,83.1H83.1c0-32.8-11.8-66.5-33.2-66.5s-33.2,33.6-33.2,66.5v66.1
		c0,32.8,11.8,66.1,33.2,66.5c22.3,0,34-30.8,33.2-92H49.9v-16.6H136.6z"/>
	<path d="M252.9,143v24.3h-16.6V143c0-44.2-10.9-66.1-33.2-66.1s-33.2,21.9-33.2,66.1v149.6h-16.6V77h-16.6V60.3h33.2v15
		c8.1-10.1,19.5-15,33.2-15C236.7,60.3,252.9,87.9,252.9,143z"/>
	<path d="M402.5,60.3v232.3h-16.6V77h-99.7v90.4h-16.6v-107H402.5z M385.9,209.5c0,44.2-16.2,83.1-49.9,83.1
		c-32.8,0-49.9-38.9-49.9-83.1s17-83.1,49.9-83.1C369.7,126.4,385.9,165.3,385.9,209.5z M369.3,209.5c0-32.8-10.9-66.5-33.2-66.5
		c-21.5,0-33.2,33.6-33.2,66.5c0,33.6,10.9,66.5,33.2,66.5S369.3,243.2,369.3,209.5z"/>
	<path d="M518.8,143v149.6h-16.6V143c0-44.2-10.9-66.1-33.2-66.1s-33.2,21.9-33.2,66.1v149.6h-16.6V60.3h16.6v15
		c8.1-10.1,19.5-15,33.2-15C502.6,60.3,518.8,87.9,518.8,143z"/>
	<path d="M552.1,93.6v115.9c0,44.2,10.9,66.5,33.2,66.5s33.2-22.3,33.2-66.5v-42.2h16.6v42.2c0,55.5-16.2,83.1-49.9,83.1
		c-32.8,0-49.9-27.6-49.9-83.1V8.9h16.6V77h99.7v16.6H552.1z"/>
	<path d="M701.6,292.6c-32.8,0-49.9-27.6-49.9-83.1V60.3h16.6v149.2c0,44.2,10.9,66.5,33.2,66.5s33.2-22.3,33.2-66.5V60.3h16.6
		v149.2C751.5,265,735.3,292.6,701.6,292.6z"/>
	<path d="M867.8,143v24.3h-16.6V143c0-44.2-10.9-66.1-33.2-66.1s-33.2,21.9-33.2,66.1v149.6h-16.6V77h-16.6V60.3h33.2v15
		c8.1-10.1,19.5-15,33.2-15C851.6,60.3,867.8,87.9,867.8,143z"/>
	<path d="M905.9,13.3c0,13.4-4.5,26.8-13.4,26.8c-8.9,0-13.4-13.4-13.4-26.8s4.5-26.8,13.4-26.8C901.9-13.4,905.9-0.1,905.9,13.3z
		 M901.1,292.6h-16.6V60.3h16.6V292.6z"/>
	<path d="M1050.2,167.4V143c0-40.9-22.7-67.7-53.9-67.7c-6.9,0.4-14.6,1.6-22.3,4.9c-25.9,9.3-30,38.1-15.8,58
		c6.5,9.7,16.2,16.2,26.8,22.3c8.1,4.9,16.6,9.7,23.9,15.8c13.8,10.9,24.7,25.9,24.7,53.5c0,35.3-25.5,62.8-66.5,62.8
		c-33.6,0-66.5-27.6-66.5-83.1v-42.2h16.6v42.2c0,43.8,27.6,66.5,49.9,66.5c30.4,0,49.9-22.3,49.9-46.2c0-12.6-3.2-21.9-8.9-29.2
		c-6.9-9.7-17-16.2-27.6-22.7c-11.3-6.9-23.5-13.8-32.4-24.7c-24.7-28.4-18.6-60.8,6.1-79c11.8-8.5,27.6-13.8,46.2-13.8
		c32.8,0,66.5,27.6,66.5,82.7v24.3H1050.2z"/>
	<path d="M1249.7,143v149.6H1233V143c0-44.2-10.9-66.1-33.2-66.1c-22.3,0-33.2,21.9-33.2,66.1v149.6H1150V143
		c0-44.2-10.9-66.1-33.2-66.1c-22.3,0-33.2,21.9-33.2,66.1v149.6h-16.6V60.3h16.6v15c8.1-10.1,19.5-15,33.2-15
		c19.9,0,33.6,9.7,41.8,28.8c8.1-19.1,21.9-28.8,41.3-28.8C1233.5,60.3,1249.7,87.9,1249.7,143z"/>
	<path d="M1366,143v66.5c0,55.5-17,83.1-49.9,83.1c-33.6,0-49.9-27.6-49.9-83.1V143c0-55.1,16.2-82.7,49.9-82.7
		C1349,60.3,1366,87.9,1366,143z M1349.4,209.5V143c0-44.2-10.9-66.1-33.2-66.1c-22.3,0-33.2,21.9-33.2,66.1v66.5
		c0,44.2,10.9,66.5,33.2,66.5C1338.4,276,1349.4,253.7,1349.4,209.5z"/>
</g>
<g>
	<path d="M22.6,420.4v92.3H16v-92.3H22.6z M49,506.2h13.2v6.6H42.4v-26.3c-13.4,0-19.8-15.5-19.8-33s6.4-33,19.8-33
		c13.1,0,19.8,15.5,19.8,33c0,14.3-4.5,27.2-13.2,31.6V506.2z M42.4,479.9c8.5-0.2,13.2-13.4,13.2-26.4c0-13.4-4.4-26.4-13.2-26.4
		s-13.2,13.1-13.2,26.4C29.2,466.5,33.9,479.7,42.4,479.9z"/>
	<path d="M75.5,506.2h39.6v6.6H68.9V463h6.6V506.2z M75.5,453.5c0-17.6,6.4-33,19.8-33c13.1,0,19.8,15.5,19.8,33s-6.8,33-19.8,33
		C81.9,486.5,75.5,471,75.5,453.5z M82.1,453.5c0,13.1,4.7,26.4,13.2,26.4s13.2-13.4,13.2-26.4c0-13.4-4.4-26.4-13.2-26.4
		S82.1,440.1,82.1,453.5z"/>
	<path d="M174.6,420.4v92.3h-52.9v-6.6h46.2v-48c-1.1,15.6-7.6,28.4-19.7,28.4c-13.1,0-19.8-15.5-19.8-33s6.8-33,19.8-33
		c12.1,0,18.5,12.7,19.7,28.4v-28.4H174.6z M161.5,453.5c0-13.4-4.4-26.4-13.2-26.4s-13.2,13.1-13.2,26.4c0,13.1,4.5,26.4,13.1,26.4
		h0.3C157.3,479.9,161.5,466.5,161.5,453.5z"/>
	<path d="M234,463v49.8h-19.8v-6c-3.2,4-7.7,6-13.2,6c-13.4,0-19.8-11-19.8-33v-59.3h6.6v59.3c0,17.6,4.4,26.4,13.2,26.4
		s13.2-8.9,13.2-26.4v-59.3h6.6v85.7h6.6V463H234z"/>
	<path d="M247.2,512.8h-6.6V400h6.6V512.8z"/>
	<path d="M306.7,420.4v92.3h-6.6V427h-39.6V463h-6.6v-42.5H306.7z M300.1,479.7c0,17.6-6.4,33-19.8,33c-13.1,0-19.8-15.5-19.8-33
		s6.8-33,19.8-33C293.6,446.7,300.1,462.2,300.1,479.7z M293.5,479.7c0-13.1-4.4-26.4-13.2-26.4c-8.5,0-13.2,13.4-13.2,26.4
		c0,13.4,4.4,26.4,13.2,26.4S293.5,493.1,293.5,479.7z"/>
	<path d="M352.9,453.3v9.7h-6.6v-9.7c0-17.6-4.4-26.3-13.2-26.3s-13.2,8.7-13.2,26.3v59.5h-6.6V427h-6.6v-6.6h13.2v6
		c3.2-4,7.7-6,13.2-6C346.5,420.4,352.9,431.4,352.9,453.3z"/>
	<path d="M430,512.8h-6.6v-26.6c0,15.6-6.4,26.6-19.8,26.6c-13.1,0-19.8-11-19.8-33v-26.4c0-21.9,6.8-32.9,19.8-32.9
		c13.4,0,19.8,11,19.8,32.9v-32.9h6.6V463h-13.2v-9.7c0-17.6-4.4-26.3-13.2-26.3s-13.2,8.7-13.2,26.3v26.4
		c0,17.6,4.4,26.4,13.2,26.4s13.2-8.9,13.2-26.4v-0.2H430V512.8z"/>
	<path d="M476.2,453.3v26.4c0,22.1-6.8,33-19.8,33c-13.4,0-19.8-11-19.8-33v-26.4c0-21.9,6.4-32.9,19.8-32.9
		C469.4,420.4,476.2,431.4,476.2,453.3z M469.6,479.7v-26.4c0-17.6-4.4-26.3-13.2-26.3s-13.2,8.7-13.2,26.3v26.4
		c0,17.6,4.4,26.4,13.2,26.4S469.6,497.3,469.6,479.7z"/>
	<path d="M522.4,453.3v59.5h-6.6v-59.5c0-17.6-4.4-26.3-13.2-26.3s-13.2,8.7-13.2,26.3v59.5h-6.6v-92.3h6.6v6c3.2-4,7.7-6,13.2-6
		C516,420.4,522.4,431.4,522.4,453.3z"/>
	<path d="M568.7,453.3V400h6.6v112.8h-6.6v-33c0,22.1-6.4,33-19.8,33c-13.1,0-19.8-11-19.8-33v-26.4c0-21.9,6.8-32.9,19.8-32.9
		C562.2,420.4,568.7,431.4,568.7,453.3z M562.1,479.7v-26.4c0-17.6-4.4-26.3-13.2-26.3s-13.2,8.7-13.2,26.3v26.4
		c0,17.6,4.4,26.4,13.2,26.4S562.1,497.3,562.1,479.7z"/>
	<path d="M588.5,506.2h39.6v6.6h-46.2V463h6.6V506.2z M588.5,453.5c0-17.6,6.4-33,19.8-33c13.1,0,19.8,15.5,19.8,33s-6.8,33-19.8,33
		C595,486.5,588.5,471,588.5,453.5z M595.1,453.5c0,13.1,4.7,26.4,13.2,26.4s13.2-13.4,13.2-26.4c0-13.4-4.4-26.4-13.2-26.4
		S595.1,440.1,595.1,453.5z"/>
	<path d="M674.4,453.3v59.5h-6.6v-59.5c0-17.6-4.4-26.3-13.2-26.3s-13.2,8.7-13.2,26.3v59.5h-6.6v-92.3h6.6v6c3.2-4,7.7-6,13.2-6
		C667.9,420.4,674.4,431.4,674.4,453.3z"/>
	<path d="M714,463v-9.7c0-17.6-4.4-26.3-13.2-26.3s-13.2,6.3-13.2,13.4c0,9.8,5.3,14.8,13.7,19.8c5.8,3.5,12.1,6.9,15.8,13.2
		c2.3,3.5,3.5,8.2,3.5,14.3v25H681V463h6.6v43.2H714v-18.4c0-10.8-6.3-15.6-13.4-20c-9.2-5.6-19.7-10.6-19.7-27.4
		c0-11.4,6.4-20,19.8-20c13.1,0,19.8,11,19.8,32.9v9.7H714z"/>
	<path d="M733.8,506.2h39.6v6.6h-46.2V463h6.6V506.2z M733.8,453.5c0-17.6,6.4-33,19.8-33c13.1,0,19.8,15.5,19.8,33s-6.8,33-19.8,33
		C740.3,486.5,733.8,471,733.8,453.5z M740.5,453.5c0,13.1,4.7,26.4,13.2,26.4s13.2-13.4,13.2-26.4c0-13.4-4.4-26.4-13.2-26.4
		S740.5,440.1,740.5,453.5z"/>
	<path d="M819.7,453.3V400h6.6v112.8h-6.6v-33c0,22.1-6.4,33-19.8,33c-13.1,0-19.8-11-19.8-33v-26.4c0-21.9,6.8-32.9,19.8-32.9
		C813.3,420.4,819.7,431.4,819.7,453.3z M813.1,479.7v-26.4c0-17.6-4.4-26.3-13.2-26.3s-13.2,8.7-13.2,26.3v26.4
		c0,17.6,4.4,26.4,13.2,26.4S813.1,497.3,813.1,479.7z"/>
	<path class="st0" d="M865.7,401.7c0,5.3-1.8,10.6-5.3,10.6s-5.3-5.3-5.3-10.6s1.8-10.6,5.3-10.6C864,391.1,865.7,396.4,865.7,401.7
		z M863.7,512.8h-6.6v-92.3h6.6V512.8z"/>
	<path class="st0" d="M876.8,433.6v46.1c0,17.6,4.4,26.4,13.2,26.4s13.2-8.9,13.2-26.4V463h6.6v16.8c0,22.1-6.4,33-19.8,33
		c-13.1,0-19.8-11-19.8-33V400h6.6V427h39.6v6.6H876.8z"/>
	<path class="st0" d="M969.3,420.4v92.3h-6.6V427H923V463h-6.6v-42.5H969.3z M962.7,479.7c0,17.6-6.4,33-19.8,33
		c-13.1,0-19.8-15.5-19.8-33s6.8-33,19.8-33C956.2,446.7,962.7,462.2,962.7,479.7z M956,479.7c0-13.1-4.4-26.4-13.2-26.4
		c-8.5,0-13.2,13.4-13.2,26.4c0,13.4,4.4,26.4,13.2,26.4S956,493.1,956,479.7z"/>
	<path class="st0" d="M982.5,512.8h-6.6V400h6.6V512.8z"/>
	<path class="st0" d="M997.6,401.7c0,5.3-1.8,10.6-5.3,10.6s-5.3-5.3-5.3-10.6s1.8-10.6,5.3-10.6C996,391.1,997.6,396.4,997.6,401.7
		z M995.7,512.8h-6.6v-92.3h6.6V512.8z"/>
	<path class="st0" d="M1041.8,420.4V463h-6.6v-9.5c0-13.1-4.5-26.4-13.1-26.4h-0.2h-0.2c-8.5,0.2-13.1,13.4-13.1,26.4v26.3
		c0,13.1,4.5,26.3,13.1,26.4h0.2h0.2c8.5,0,13.1-13.4,13.1-26.4h6.6c0,17.6-6.8,33-19.8,33c-13.4,0-19.8-15.5-19.8-33v-26.3
		c0-17.6,6.4-33,19.8-33c5.5,0,10,2.7,13.2,7.4v-7.4H1041.8z"/>
	<path d="M86.7,590.5c-5.2,14.3-14.3,27.2-24.7,31.6l-7.7,21.1h13.2l-2.4,6.6H45.3l9.7-26.3c-12.7,0-14.2-14-8.7-30.6l-20.8,56.9
		h-6.6l33.7-92.3h6.6l-11.3,30.9c6.6-16.8,18.2-30.9,31.1-30.9C92.1,557.4,93,572.9,86.7,590.5z M76.6,564c-8.9,0-18,13.1-22.9,26.4
		c-4.7,13.1-4.8,26.3,3.5,26.4c8.7-0.2,18.2-13.4,22.9-26.4C85,577.1,85.4,564,76.6,564z"/>
	<path d="M80.8,643.2h39.6l-2.4,6.6H71.8L90,600h6.6L80.8,643.2z M139.6,590.5c-6.4,17.6-18.7,33-31.7,33c-13.4,0-14.3-15.5-7.9-33
		s18.5-33,31.9-33C144.9,557.4,146,572.9,139.6,590.5z M129.4,564c-8.9,0-18,13.1-22.9,26.4c-4.7,13.1-5,26.4,3.5,26.4
		s18.2-13.4,22.9-26.4C137.8,577.1,138.3,564,129.4,564z"/>
	<path d="M211.1,557.4l-33.7,92.3h-52.9l2.4-6.6h46.2l17.6-48c-6.9,15.6-17.9,28.4-30,28.4c-13.1,0-14.3-15.5-7.9-33
		s18.9-33,31.9-33c12.1,0,13.9,12.7,9.3,28.4l10.3-28.4H211.1z M186,590.5c4.8-13.4,5.3-26.4-3.5-26.4s-18,13.1-22.9,26.4
		c-4.7,13.1-5.2,26.4,3.4,26.4h0.3C172.1,616.9,181.3,603.5,186,590.5z"/>
	<path d="M255.1,600l-18.2,49.8h-19.8l2.3-6c-4.7,4-10,6-15.5,6c-13.4,0-15.8-11-7.7-33l21.6-59.3h6.6l-21.6,59.3
		c-6.4,17.6-5.3,26.4,3.5,26.4s16.4-8.9,22.9-26.4l21.6-59.3h6.6l-31.3,85.7h6.6l15.8-43.2H255.1z"/>
	<path d="M250.1,649.8h-6.6L284.6,537h6.6L250.1,649.8z"/>
	<path d="M343.3,557.4l-33.7,92.3H303l11.1-30.5c-6.6,16.4-18.2,30.5-30.9,30.5c-13.1,0-14-15.5-7.7-33s18.7-33,31.7-33
		c12.6,0,14.2,13.9,8.9,30.1l18.2-49.8h-39.6L281.5,600h-6.6l15.5-42.5H343.3z M304.9,590.3c-8.9,0-18.2,13.4-22.9,26.4
		c-4.8,13.4-5.3,26.4,3.5,26.4s18-13.1,22.9-26.4C313.1,603.7,313.8,590.3,304.9,590.3z"/>
	<path d="M377.6,590.3L374,600h-6.6l3.5-9.7c6.4-17.6,5.2-26.3-3.7-26.3s-16.3,8.7-22.7,26.3l-21.8,59.5h-6.6l31.3-85.7h-6.6
		l2.4-6.6h13.2l-2.3,6c4.7-4,10-6,15.5-6C383.1,557.4,385.6,568.4,377.6,590.3z"/>
	<path d="M449.4,590.3c6.4-17.6,5.2-26.3-3.7-26.3s-16.3,8.7-22.7,26.3l-9.7,26.4c-6.4,17.6-5.3,26.4,3.5,26.4s22.9-7.7,22.9-26.4
		v-0.2H453l-12.1,33.2h-6.6l9.5-26.3c-5.6,15.5-16.1,26.3-29.3,26.3c-13.1,0-15.8-11-7.7-33l9.7-26.4c8.1-21.9,18.7-32.9,31.7-32.9
		c13.4,0,15.8,11,7.9,32.9l11.9-32.9h6.6L459.1,600h-13.2L449.4,590.3z"/>
	<path d="M508.9,590.3l-9.7,26.4c-8.1,22.1-18.9,33-31.9,33c-13.4,0-15.8-11-7.7-33l9.7-26.4c8.1-21.9,18.4-32.9,31.7-32.9
		C514.1,557.4,517,568.4,508.9,590.3z M492.6,616.7l9.7-26.4c6.4-17.6,5.2-26.3-3.7-26.3s-16.3,8.7-22.7,26.3l-9.7,26.4
		c-6.4,17.6-5.3,26.4,3.5,26.4S486.2,634.3,492.6,616.7z"/>
	<path d="M555.2,590.3l-21.8,59.5h-6.6l21.8-59.5c6.4-17.6,5.2-26.3-3.7-26.3s-16.4,8.7-22.7,26.3l-21.8,59.5h-6.6l33.7-92.3h6.6
		l-2.3,6c4.7-4,10-6,15.5-6C560.6,557.4,563.2,568.4,555.2,590.3z"/>
	<path d="M601.4,590.3l19.3-53.3h6.6l-41.1,112.8h-6.6l12.1-33c-8.1,22.1-18.5,33-31.9,33c-13.1,0-15.8-11-7.7-33l9.7-26.4
		c8.1-21.9,18.7-32.9,31.7-32.9C606.9,557.4,609.3,568.4,601.4,590.3z M585.1,616.7l9.7-26.4c6.4-17.6,5.2-26.3-3.7-26.3
		s-16.3,8.7-22.7,26.3l-9.7,26.4c-6.4,17.6-5.3,26.4,3.5,26.4S578.7,634.3,585.1,616.7z"/>
	<path d="M601.9,643.2h39.6l-2.4,6.6h-46.2l18.2-49.8h6.6L601.9,643.2z M660.7,590.5c-6.4,17.6-18.7,33-31.7,33
		c-13.4,0-14.3-15.5-7.9-33s18.5-33,31.9-33C666,557.4,667.1,572.9,660.7,590.5z M650.5,564c-8.9,0-18,13.1-22.9,26.4
		c-4.7,13.1-5,26.4,3.5,26.4s18.2-13.4,22.9-26.4C658.9,577.1,659.4,564,650.5,564z"/>
	<path d="M707.1,590.3l-21.8,59.5h-6.6l21.8-59.5c6.4-17.6,5.2-26.3-3.7-26.3s-16.4,8.7-22.7,26.3l-21.8,59.5h-6.6l33.7-92.3h6.6
		l-2.3,6c4.7-4,10-6,15.5-6C712.6,557.4,715.2,568.4,707.1,590.3z"/>
	<path d="M750.3,590.3l-3.5,9.7h-6.6l3.5-9.7c6.4-17.6,5.3-26.3-3.5-26.3s-15.6,6.3-18.2,13.4c-3.4,9.3-0.6,14.3,6.6,19.8
		c5.3,4.2,11.4,8.1,11.4,17.2c-0.2,2.9-0.8,6.3-2.3,10.3v0.2l-9,24.8h-39.6l18-49.8h6.6l-15.6,43.2h26.4l6.6-18.2v-0.2
		c4-10.8-0.5-15.6-6-20c-7.3-5.6-15.8-10.6-9.8-27.4c4.2-11.4,13.9-20,27.2-20C755.6,557.4,758.3,568.4,750.3,590.3z"/>
	<path d="M747.2,643.2h39.6l-2.4,6.6h-46.2l18.2-49.8h6.6L747.2,643.2z M806,590.5c-6.4,17.6-18.7,33-31.7,33
		c-13.4,0-14.3-15.5-7.9-33s18.5-33,31.9-33C811.4,557.4,812.5,572.9,806,590.5z M795.9,564c-8.9,0-18,13.1-22.9,26.4
		c-4.7,13.1-5,26.4,3.5,26.4s18.2-13.4,22.9-26.4C804.3,577.1,804.7,564,795.9,564z"/>
	<path d="M852.4,590.3l19.3-53.3h6.6l-41.1,112.8h-6.6l12.1-33c-8.1,22.1-18.5,33-31.9,33c-13.1,0-15.8-11-7.7-33l9.7-26.4
		c8.1-21.9,18.7-32.9,31.7-32.9C857.9,557.4,860.3,568.4,852.4,590.3z M836.2,616.7l9.7-26.4c6.4-17.6,5.2-26.3-3.7-26.3
		s-16.3,8.7-22.7,26.3l-9.7,26.4c-6.4,17.6-5.3,26.4,3.5,26.4S829.7,634.3,836.2,616.7z"/>
	<path d="M882.7,649.8h-6.6l33.7-92.3h6.6L882.7,649.8z M925.1,538.7c-1.9,5.3-5.6,10.6-9.2,10.6s-3.4-5.3-1.5-10.6
		s5.6-10.6,9.2-10.6C927.4,528.1,927,533.4,925.1,538.7z"/>
	<path d="M924.6,570.6l-16.8,46.1c-6.4,17.6-5.3,26.4,3.5,26.4s16.4-8.9,22.9-26.4l6.1-16.8h6.6l-6.1,16.8
		c-8.1,22.1-18.5,33-31.9,33c-13.1,0-15.8-11-7.7-33l29-79.8h6.6L927,564h39.6l-2.4,6.6H924.6z"/>
	<path d="M1022,557.4l-33.7,92.3h-6.6l11.1-30.5c-6.6,16.4-18.2,30.5-30.9,30.5c-13.1,0-14-15.5-7.7-33s18.7-33,31.7-33
		c12.6,0,14.2,13.9,8.9,30.1l18.2-49.8h-39.6L960.2,600h-6.6l15.5-42.5H1022z M983.6,590.3c-8.9,0-18.2,13.4-22.9,26.4
		c-4.8,13.4-5.3,26.4,3.5,26.4s18-13.1,22.9-26.4C991.8,603.7,992.5,590.3,983.6,590.3z"/>
	<path d="M1001.5,649.8h-6.6L1036,537h6.6L1001.5,649.8z"/>
	<path d="M1014.7,649.8h-6.6l33.7-92.3h6.6L1014.7,649.8z M1057.1,538.7c-1.9,5.3-5.6,10.6-9.2,10.6s-3.4-5.3-1.5-10.6
		s5.6-10.6,9.2-10.6C1059.3,528.1,1059,533.4,1057.1,538.7z"/>
	<path d="M1094.5,557.4L1079,600h-6.6l3.4-9.5c4.7-13.1,5.2-26.4-3.4-26.4h-0.2h-0.2c-8.7,0.2-18,13.4-22.7,26.4l-9.5,26.3
		c-4.7,13.1-5.2,26.4,3.4,26.4h0.2h0.2c8.5,0,17.9-13.4,22.7-26.4h6.6c-6.4,17.6-18.9,33-31.9,33c-13.4,0-14.2-15.5-7.7-33l9.5-26.3
		c6.4-17.6,18.5-33,31.9-33c5.5,0,9,2.7,10.5,7.4l2.7-7.4H1094.5z"/>
	<path d="M305.6,737v-9.7c0-16.3-9-19.7-21.4-18.9c-2.7,0.2-5.6,0.6-8.9,1.9c-4,1.6-11.1,8.4-6.3,15.1c2.4,3.4,6,5.8,10,8.2
		c3.4,1.9,6.9,4,10.2,6.6c5.5,4.5,9.8,10.6,9.8,21.4c0,14-10.2,25-26.4,25c-13.4,0-26.4-11-26.4-33V737h6.6v16.8
		c0,13.4,11,18.4,19.8,18.4c12.1,0,19.8-3.7,19.8-10.3c0-5-1.3-8.5-3.4-11.6c-3.1-4.4-7.7-7.1-12.6-9.8c-4.7-2.7-9.2-5.6-12.6-10.2
		c-7.4-10.5-5.6-21.8,1.9-28.7c4.7-4.4,11.6-7.1,20-7.1c13.1,0,26.4,11,26.4,32.9v9.7H305.6z"/>
	<path d="M318.8,772.1h39.6v14.7h-46.2V737h6.6V772.1z M318.8,727.5c0-17.6,6.4-33,19.8-33c13.1,0,19.8,15.5,19.8,33
		s-6.8,33-19.8,33C325.2,760.5,318.8,745,318.8,727.5z M325.4,727.5c0,9,4.7,18.4,13.2,18.4s13.2-9.3,13.2-18.4
		c0-9.3-4.4-18.4-13.2-18.4S325.4,718.1,325.4,727.5z"/>
	<path d="M437.7,727.3v59.5h-6.6v-59.5c0-10.3-4.4-18.2-13.2-18.2s-13.2,7.9-13.2,18.2v59.5H398v-59.5c0-10.3-4.4-18.2-13.2-18.2
		s-13.2,7.9-13.2,18.2v59.5H365v-92.3h6.6v6c3.2-4,7.7-6,13.2-6c7.9,0,13.4,3.9,16.6,11.4c3.2-7.6,8.7-11.4,16.4-11.4
		C431.2,694.4,437.7,705.4,437.7,727.3z"/>
	<path d="M452.8,675.7c0,5.3-1.8,10.6-5.3,10.6s-5.3-5.3-5.3-10.6s1.8-10.6,5.3-10.6C451.2,665.1,452.8,670.4,452.8,675.7z
		 M450.9,786.8h-6.6v-92.3h6.6V786.8z"/>
	<path d="M503.6,727.3v26.4c0,22.1-6.8,33-19.8,33c-13.4,0-19.8-11-19.8-33v33h-6.6V674h6.6v53.3c0-21.9,6.4-32.9,19.8-32.9
		C496.8,694.4,503.6,705.4,503.6,727.3z M497,753.7v-26.4c0-9.5-4.4-18.2-13.2-18.2s-13.2,8.7-13.2,18.2v26.4
		c0,9.5,4.4,18.4,13.2,18.4S497,763.2,497,753.7z"/>
	<path d="M549.8,727.3v26.4c0,22.1-6.8,33-19.8,33c-13.4,0-19.8-11-19.8-33v-26.4c0-21.9,6.4-32.9,19.8-32.9
		C543.1,694.4,549.8,705.4,549.8,727.3z M543.2,753.7v-26.4c0-9.5-4.4-18.2-13.2-18.2s-13.2,8.7-13.2,18.2v26.4
		c0,9.5,4.4,18.4,13.2,18.4S543.2,763.2,543.2,753.7z"/>
	<path d="M563,786.8h-6.6V674h6.6V786.8z"/>
	<path d="M609.3,727.3V674h6.6v112.8h-6.6v-33c0,22.1-6.4,33-19.8,33c-13.1,0-19.8-11-19.8-33v-26.4c0-21.9,6.8-32.9,19.8-32.9
		C602.8,694.4,609.3,705.4,609.3,727.3z M602.7,753.7v-26.4c0-9.5-4.4-18.2-13.2-18.2s-13.2,8.7-13.2,18.2v26.4
		c0,9.5,4.4,18.4,13.2,18.4S602.7,763.2,602.7,753.7z"/>
	<path d="M692.9,786.8h-6.6v-26.6c0,15.6-6.4,26.6-19.8,26.6c-13.1,0-19.8-11-19.8-33v-26.4c0-21.9,6.8-32.9,19.8-32.9
		c13.4,0,19.8,11,19.8,32.9v-32.9h6.6V737h-13.2v-9.7c0-9.5-4.4-18.2-13.2-18.2s-13.2,8.7-13.2,18.2v26.4c0,9.5,4.4,18.4,13.2,18.4
		s13.2-8.9,13.2-18.4v-0.2h13.2V786.8z"/>
	<path d="M739.2,727.3v26.4c0,22.1-6.8,33-19.8,33c-13.4,0-19.8-11-19.8-33v-26.4c0-21.9,6.4-32.9,19.8-32.9
		C732.4,694.4,739.2,705.4,739.2,727.3z M732.6,753.7v-26.4c0-9.5-4.4-18.2-13.2-18.2s-13.2,8.7-13.2,18.2v26.4
		c0,9.5,4.4,18.4,13.2,18.4S732.6,763.2,732.6,753.7z"/>
	<path d="M785.4,727.3v59.5h-6.6v-59.5c0-10.3-4.4-18.2-13.2-18.2s-13.2,7.9-13.2,18.2v59.5h-6.6v-92.3h6.6v6c3.2-4,7.7-6,13.2-6
		C779,694.4,785.4,705.4,785.4,727.3z"/>
	<path d="M831.6,727.3V674h6.6v112.8h-6.6v-33c0,22.1-6.4,33-19.8,33c-13.1,0-19.8-11-19.8-33v-26.4c0-21.9,6.8-32.9,19.8-32.9
		C825.2,694.4,831.6,705.4,831.6,727.3z M825,753.7v-26.4c0-9.5-4.4-18.2-13.2-18.2s-13.2,8.7-13.2,18.2v26.4
		c0,9.5,4.4,18.4,13.2,18.4S825,763.2,825,753.7z"/>
	<path d="M851.5,772.1h39.6v14.7h-46.2V737h6.6V772.1z M851.5,727.5c0-17.6,6.4-33,19.8-33c13.1,0,19.8,15.5,19.8,33
		s-6.8,33-19.8,33C857.9,760.5,851.5,745,851.5,727.5z M858.1,727.5c0,9,4.7,18.4,13.2,18.4s13.2-9.3,13.2-18.4
		c0-9.3-4.4-18.4-13.2-18.4S858.1,718.1,858.1,727.5z"/>
	<path d="M937.4,727.3v59.5h-6.6v-59.5c0-10.3-4.4-18.2-13.2-18.2s-13.2,7.9-13.2,18.2v59.5h-6.6v-92.3h6.6v6c3.2-4,7.7-6,13.2-6
		C930.9,694.4,937.4,705.4,937.4,727.3z"/>
	<path d="M977,737v-9.7c0-9.5-4.4-18.2-13.2-18.2s-13.2,3.1-13.2,10.2c0,7.4,6,10.3,13.7,15c6.4,3.9,13.7,7.7,17.1,15.8
		c1.5,3.2,2.3,6.9,2.3,11.8v25H944V737h6.6v35.1H977v-10.3c0-10.8-6.3-15.6-13.4-20c-9.2-5.6-19.7-10.6-19.7-27.4
		c0-11.4,6.4-20,19.8-20c13.1,0,19.8,11,19.8,32.9v9.7H977z"/>
	<path d="M996.8,772.1h39.6v14.7h-46.2V737h6.6V772.1z M996.8,727.5c0-17.6,6.4-33,19.8-33c13.1,0,19.8,15.5,19.8,33
		s-6.8,33-19.8,33C1003.3,760.5,996.8,745,996.8,727.5z M1003.4,727.5c0,9,4.7,18.4,13.2,18.4s13.2-9.3,13.2-18.4
		c0-9.3-4.4-18.4-13.2-18.4S1003.4,718.1,1003.4,727.5z"/>
	<path d="M1082.7,727.3V674h6.6v112.8h-6.6v-33c0,22.1-6.4,33-19.8,33c-13.1,0-19.8-11-19.8-33v-26.4c0-21.9,6.8-32.9,19.8-32.9
		C1076.2,694.4,1082.7,705.4,1082.7,727.3z M1076.1,753.7v-26.4c0-9.5-4.4-18.2-13.2-18.2s-13.2,8.7-13.2,18.2v26.4
		c0,9.5,4.4,18.4,13.2,18.4S1076.1,763.2,1076.1,753.7z"/>
	<path d="M215.9,874l3.5-9.7c6-16.3-1.8-19.7-14.5-18.9c-2.7,0.2-6,0.6-9.5,1.9c-4.7,1.6-14.2,8.4-11.9,15.1c1.1,3.4,4,5.8,7.1,8.2
		c2.6,1.9,5.5,4,7.7,6.6c3.9,4.5,6,10.6,1.9,21.4c-5,14-19.2,25-35.4,25c-13.4,0-22.4-11-14.3-33l6-16.8h6.6l-6,16.8
		c-5,13.4,4.2,18.4,13.1,18.4c12.1,0,21.1-3.7,23.5-10.3c1.9-5,1.9-8.5,0.8-11.6c-1.5-4.4-5.2-7.1-8.9-9.8
		c-3.5-2.7-7.3-5.6-8.9-10.2c-3.7-10.5,2.1-21.8,12.2-28.7c6.3-4.4,14.3-7.1,22.7-7.1c13.1,0,22.4,11,14.3,32.9l-3.5,9.7H215.9z"/>
	<path d="M216.4,909.1H256l-5.3,14.7h-46.2l18-49.8h6.6L216.4,909.1z M272.3,864.5c-6.4,17.6-18.9,33-31.9,33
		c-13.4,0-14.2-15.5-7.7-33s18.5-33,31.9-33C277.6,831.4,278.7,846.9,272.3,864.5z M259.1,846.1c-8.9,0-16.4,9-19.8,18.4
		c-3.2,9-2.1,18.4,6.4,18.4s16.8-9.3,20-18.4C269.1,855.1,267.9,846.1,259.1,846.1z"/>
	<path d="M351.6,864.3L330,923.8h-6.6l21.6-59.5c3.9-10.3,2.3-18.2-6.6-18.2s-16,7.9-19.8,18.2l-21.6,59.5h-6.6l21.6-59.5
		c3.9-10.3,2.3-18.2-6.6-18.2s-16,7.9-19.8,18.2l-21.6,59.5h-6.6l33.7-92.3h6.6l-2.3,6c4.7-4,10-6,15.5-6c7.9,0,11.9,3.9,12.4,11.4
		c6-7.6,12.9-11.4,20.6-11.4C357.2,831.4,359.6,842.4,351.6,864.3z"/>
	<path d="M343.2,923.8h-6.6l33.7-92.3h6.6L343.2,923.8z M385.6,812.7c-1.9,5.3-5.6,10.6-9.2,10.6s-3.4-5.3-1.5-10.6
		s5.6-10.6,9.2-10.6C387.8,802.1,387.5,807.4,385.6,812.7z"/>
	<path d="M417.5,864.3l-9.5,26.4c-8.1,22.1-18.9,33-31.9,33c-13.4,0-15.8-11-7.7-33l-12.1,33h-6.6L390.7,811h6.6l-19.5,53.3
		c8.1-21.9,18.5-32.9,31.9-32.9C422.8,831.4,425.5,842.4,417.5,864.3z M401.3,890.7l9.5-26.4c3.5-9.5,2.3-18.2-6.6-18.2
		s-16.3,8.7-19.8,18.2l-9.5,26.4c-3.5,9.5-2.4,18.4,6.4,18.4S397.8,900.2,401.3,890.7z"/>
	<path d="M463.7,864.3l-9.5,26.4c-8.1,22.1-18.9,33-31.9,33c-13.4,0-15.8-11-7.7-33l9.5-26.4c8.1-21.9,18.5-32.9,31.9-32.9
		C469,831.4,471.8,842.4,463.7,864.3z M447.6,890.7l9.5-26.4c3.5-9.5,2.3-18.2-6.6-18.2s-16.3,8.7-19.8,18.2l-9.5,26.4
		c-3.5,9.5-2.4,18.4,6.4,18.4S444,900.2,447.6,890.7z"/>
	<path d="M455.3,923.8h-6.6L489.8,811h6.6L455.3,923.8z"/>
	<path d="M549.3,811l-41.1,112.8h-6.6l12.1-33c-8.1,22.1-18.5,33-31.9,33c-13.1,0-15.8-11-7.7-33l9.5-26.4
		c8.1-21.9,18.9-32.9,31.9-32.9c13.2,0,15.8,10.8,7.9,32.4l19.3-52.9H549.3z M509.9,846.1c-8.9,0-16.3,8.7-19.8,18.2l-9.5,26.4
		c-3.5,9.5-2.4,18.4,6.4,18.4s16.4-8.9,20-18.4l9.5-26.4C520.1,854.8,518.8,846.1,509.9,846.1z"/>
	<path d="M593.6,864.3c3.5-9.5,2.3-18.2-6.6-18.2s-16.3,8.7-19.8,18.2l-9.5,26.4c-3.5,9.5-2.4,18.4,6.4,18.4s16.4-8.9,20-18.4v-0.2
		h13.2l-12.1,33.2h-6.6l9.5-26.3c-5.6,15.5-16.1,26.3-29.3,26.3c-13.1,0-15.8-11-7.7-33l9.5-26.4c8.1-21.9,18.9-32.9,31.9-32.9
		c13.4,0,15.8,11,7.7,32.9l12.1-32.9h6.6L603.2,874H590L593.6,864.3z"/>
	<path d="M653,864.3l-9.5,26.4c-8.1,22.1-18.9,33-31.9,33c-13.4,0-15.8-11-7.7-33l9.5-26.4c8.1-21.9,18.5-32.9,31.9-32.9
		C658.4,831.4,661.1,842.4,653,864.3z M636.9,890.7l9.5-26.4c3.5-9.5,2.3-18.2-6.6-18.2s-16.3,8.7-19.8,18.2l-9.5,26.4
		c-3.5,9.5-2.4,18.4,6.4,18.4S633.4,900.2,636.9,890.7z"/>
	<path d="M699.3,864.3l-21.6,59.5h-6.6l21.6-59.5c3.9-10.3,2.3-18.2-6.6-18.2c-8.9,0-16,7.9-19.8,18.2l-21.6,59.5H638l33.7-92.3h6.6
		l-2.3,6c4.7-4,10-6,15.5-6C704.9,831.4,707.3,842.4,699.3,864.3z"/>
	<path d="M771.6,811l-41.1,112.8h-6.6l12.1-33c-8.1,22.1-18.5,33-31.9,33c-13.1,0-15.8-11-7.7-33l9.5-26.4
		c8.1-21.9,18.9-32.9,31.9-32.9c13.2,0,15.8,10.8,7.9,32.4L765,811H771.6z M732.3,846.1c-8.9,0-16.3,8.7-19.8,18.2l-9.5,26.4
		c-3.5,9.5-2.4,18.4,6.4,18.4s16.4-8.9,20-18.4l9.5-26.4C742.5,854.8,741.2,846.1,732.3,846.1z"/>
	<path d="M749.1,909.1h39.6l-5.3,14.7h-46.2l18-49.8h6.6L749.1,909.1z M805,864.5c-6.4,17.6-18.9,33-31.9,33
		c-13.4,0-14.2-15.5-7.7-33s18.5-33,31.9-33C810.3,831.4,811.4,846.9,805,864.5z M791.8,846.1c-8.9,0-16.4,9-19.8,18.4
		c-3.2,9-2.1,18.4,6.4,18.4s16.8-9.3,20-18.4C801.8,855.1,800.6,846.1,791.8,846.1z"/>
	<path d="M851.2,864.3l-21.6,59.5H823l21.6-59.5c3.9-10.3,2.3-18.2-6.6-18.2s-16,7.9-19.8,18.2l-21.6,59.5H790l33.7-92.3h6.6l-2.3,6
		c4.7-4,10-6,15.5-6C856.9,831.4,859.3,842.4,851.2,864.3z"/>
	<path d="M897.5,864.3l-3.5,9.7h-6.6l3.5-9.7c3.5-9.5,2.3-18.2-6.6-18.2s-14.2,3.1-16.8,10.2c-2.7,7.4,1.9,10.3,8.2,15
		c5,4,10.8,7.7,11.3,16c0.3,3.1-0.3,6.9-2.1,11.6v0.2l-9,24.8h-39.6l18-49.8h6.6l-12.7,35.1h26.4l3.7-10.2v-0.2
		c4-10.8-0.5-15.6-6-20c-7.3-5.6-15.8-10.6-9.8-27.4c4.2-11.4,13.9-20,27.2-20C902.8,831.4,905.5,842.4,897.5,864.3z"/>
	<path d="M894.4,909.1H934l-5.3,14.7h-46.2l18-49.8h6.6L894.4,909.1z M950.3,864.5c-6.4,17.6-18.9,33-31.9,33
		c-13.4,0-14.2-15.5-7.7-33s18.5-33,31.9-33C955.6,831.4,956.8,846.9,950.3,864.5z M937.1,846.1c-8.9,0-16.4,9-19.8,18.4
		c-3.2,9-2.1,18.4,6.4,18.4s16.8-9.3,20-18.4C947.1,855.1,946,846.1,937.1,846.1z"/>
	<path d="M1022.7,811l-41.1,112.8H975l12.1-33c-8.1,22.1-18.5,33-31.9,33c-13.1,0-15.8-11-7.7-33l9.5-26.4
		c8.1-21.9,18.9-32.9,31.9-32.9c13.2,0,15.8,10.8,7.9,32.4l19.3-52.9H1022.7z M983.4,846.1c-8.9,0-16.3,8.7-19.8,18.2l-9.5,26.4
		c-3.5,9.5-2.4,18.4,6.4,18.4s16.4-8.9,20-18.4l9.5-26.4C993.5,854.8,992.2,846.1,983.4,846.1z"/>
	<path d="M1019,923.8h-6.6l33.7-92.3h6.6L1019,923.8z M1061.3,812.7c-1.9,5.3-5.6,10.6-9.2,10.6s-3.4-5.3-1.5-10.6
		s5.6-10.6,9.2-10.6C1063.6,802.1,1063.3,807.4,1061.3,812.7z"/>
	<path d="M1058,852.7l-13.9,38c-3.5,9.5-2.4,18.4,6.4,18.4s16.4-8.9,20-18.4l6-16.8h6.6l-6,16.8c-8.1,22.1-18.5,33-31.9,33
		c-13.1,0-15.8-11-7.7-33l29-79.8h6.6l-9.8,27.1h39.6l-5.3,14.7H1058z"/>
	<path d="M1158.2,831.4l-33.7,92.3h-6.6l11.1-30.5c-6.6,16.4-18.2,30.5-30.9,30.5c-13.1,0-14.2-15.5-7.7-33
		c6.3-17.6,18.7-33,31.7-33c12.7,0,14,14.2,8.7,30.8l15.5-42.4h-46.4l5.5-14.7H1158.2z M1116.8,872.4c-8.5,0-16.6,9.3-19.8,18.4
		c-3.4,9.3-2.4,18.4,6.4,18.4s16.6-9,20-18.4C1126.6,881.7,1125.6,872.4,1116.8,872.4z"/>
	<path d="M1137.7,923.8h-6.6l41.1-112.8h6.6L1137.7,923.8z"/>
	<path d="M1150.9,923.8h-6.6l33.7-92.3h6.6L1150.9,923.8z M1193.3,812.7c-1.9,5.3-5.6,10.6-9.2,10.6s-3.4-5.3-1.5-10.6
		s5.6-10.6,9.2-10.6C1195.6,802.1,1195.2,807.4,1193.3,812.7z"/>
	<path d="M1230.7,831.4l-15.6,42.5h-6.6l3.5-9.5c3.2-9,2.1-18.4-6.4-18.4h-0.2h-0.2c-8.5,0.2-16.4,9.3-19.7,18.4l-9.5,26.3
		c-3.4,9-2.3,18.2,6.3,18.2h0.2h0.2c8.5,0,16.4-9.2,19.8-18.2h6.6c-6.4,17.6-18.9,33-31.9,33c-13.4,0-14.2-15.5-7.7-33l9.5-26.3
		c6.4-17.6,18.5-33,31.9-33c5.5,0,8.9,2.7,10.5,7.4l2.7-7.4H1230.7z"/>
	<path d="M674.2,968.4v92.3h-6.6v-92.3H674.2z M733.7,1004.4v56.4h-52.9v-38.8c-4.5-5.2-6.6-13.5-6.6-23.7
		c0-17.6,6.4-29.8,19.8-29.8c13.1,0,19.8,12.2,19.8,29.8c0,2.1-0.2,4.2-0.3,6.1H733.7z M694,1006.6c8.5-0.2,13.2-3.4,13.2-8.4
		c0-5.3-4.4-8.7-13.2-8.7s-13.2,3.4-13.2,8.7C680.8,1003.2,685.5,1006.5,694,1006.6z M727.1,1025.6h-24.5c-2.4,1.3-5.3,2.1-8.5,2.1
		c-2.4,0-4.7-0.3-6.6-1.1v8.1h39.6V1025.6z"/>
	<path d="M779.9,1001.3v26.4c0,22.1-6.8,33-19.8,33c-13.4,0-19.8-11-19.8-33v-26.4c0-21.9,6.4-32.9,19.8-32.9
		C773.2,968.4,779.9,979.4,779.9,1001.3z M773.3,1014.5c0-9.5-4.4-18.5-13.2-18.5s-13.2,9-13.2,18.5s4.4,18.7,13.2,18.7
		S773.3,1024,773.3,1014.5z"/>
	<path d="M793.1,1060.8h-6.6V948h6.6V1060.8z"/>
	<path d="M839.4,1001.3V948h6.6v112.8h-6.6v-33c0,22.1-6.4,33-19.8,33c-13.1,0-19.8-11-19.8-33v-26.4c0-21.9,6.8-32.9,19.8-32.9
		C832.9,968.4,839.4,979.4,839.4,1001.3z M832.8,1014.5c0-9.5-4.4-18.5-13.2-18.5s-13.2,9-13.2,18.5s4.4,18.7,13.2,18.7
		S832.8,1024,832.8,1014.5z"/>
	<path d="M923,1060.8h-6.6v-26.6c0,15.6-6.4,26.6-19.8,26.6c-13.1,0-19.8-11-19.8-33v-26.4c0-21.9,6.8-32.9,19.8-32.9
		c13.4,0,19.8,11,19.8,32.9v-32.9h6.6v31.3l-13.2,11.3c0-6.3-4.4-15-13.2-15s-13.2,9-13.2,18.5s4.4,18.7,13.2,18.7
		s13.2-8.9,13.2-18.4v-0.2l13.2,16.1V1060.8z"/>
	<path d="M969.3,1001.3v26.4c0,22.1-6.8,33-19.8,33c-13.4,0-19.8-11-19.8-33v-26.4c0-21.9,6.4-32.9,19.8-32.9
		C962.5,968.4,969.3,979.4,969.3,1001.3z M962.6,1014.5c0-9.5-4.4-18.5-13.2-18.5s-13.2,9-13.2,18.5s4.4,18.7,13.2,18.7
		S962.6,1024,962.6,1014.5z"/>
	<path d="M1015.5,1001.3v59.5h-6.6v-46.6c0-10.3-4.4-18.2-13.2-18.2s-13.2,7.9-13.2,18.2v46.6h-6.6v-92.3h6.6v6c3.2-4,7.7-6,13.2-6
		C1009.1,968.4,1015.5,979.4,1015.5,1001.3z"/>
	<path d="M1061.7,1001.3V948h6.6v112.8h-6.6v-33c0,22.1-6.4,33-19.8,33c-13.1,0-19.8-11-19.8-33v-26.4c0-21.9,6.8-32.9,19.8-32.9
		C1055.3,968.4,1061.7,979.4,1061.7,1001.3z M1055.1,1014.5c0-9.5-4.4-18.5-13.2-18.5s-13.2,9-13.2,18.5s4.4,18.7,13.2,18.7
		S1055.1,1024,1055.1,1014.5z"/>
	<path d="M1107.5,1033.2h13.7v27.6H1075V1011h6.6v22.2h13.5c-9.2-4-13.5-17.2-13.5-31.7c0-17.6,6.4-33,19.8-33
		c13.1,0,19.8,15.5,19.8,33C1121.2,1016,1116.5,1029.2,1107.5,1033.2z M1101.4,1013.4c8.5,0,13.2-6.1,13.2-11.9
		c0-6.1-4.4-11.9-13.2-11.9s-13.2,5.8-13.2,11.9C1088.2,1007.3,1092.8,1013.4,1101.4,1013.4z"/>
	<path d="M1167.4,1001.3v59.5h-6.6v-46.6c0-10.3-4.4-18.2-13.2-18.2s-13.2,7.9-13.2,18.2v46.6h-6.6v-92.3h6.6v6c3.2-4,7.7-6,13.2-6
		C1161,968.4,1167.4,979.4,1167.4,1001.3z"/>
	<path d="M1193.9,996c-8.9,0-13.2,3.7-13.2,3.7c1.1,0.8,7.7,4.8,13.7,8.5c5.6,4.2,13.1,7.7,16.8,15.5c1.6,3.2,2.6,7.1,2.6,12.1v25
		h-39.6V1011h6.6v22.2h26.3c-1-9-6.8-13.4-13.2-17.4c-9.2-5.6-19.7-10.6-19.7-27.4c0-11.4,6.4-20,19.8-20c13.1,0,19.8,11,19.8,32.9
		v9.7l-6.6,3.2C1207.1,1004.7,1202.7,996,1193.9,996z"/>
	<path d="M1252.8,1033.2h13.7v27.6h-46.2V1011h6.6v22.2h13.5c-9.2-4-13.5-17.2-13.5-31.7c0-17.6,6.4-33,19.8-33
		c13.1,0,19.8,15.5,19.8,33C1266.5,1016,1261.9,1029.2,1252.8,1033.2z M1246.7,1013.4c8.5,0,13.2-6.1,13.2-11.9
		c0-6.1-4.4-11.9-13.2-11.9s-13.2,5.8-13.2,11.9C1233.5,1007.3,1238.2,1013.4,1246.7,1013.4z"/>
	<path d="M1312.8,1001.3V948h6.6v112.8h-6.6v-33c0,22.1-6.4,33-19.8,33c-13.1,0-19.8-11-19.8-33v-26.4c0-21.9,6.8-32.9,19.8-32.9
		C1306.3,968.4,1312.8,979.4,1312.8,1001.3z M1306.2,1014.5c0-9.5-4.4-18.5-13.2-18.5s-13.2,9-13.2,18.5s4.4,18.7,13.2,18.7
		S1306.2,1024,1306.2,1014.5z"/>
	<path d="M538.7,1141.4l-20.5,56.4h-52.9l14.2-38.8c-2.4-4.5-1.9-11.6,0.8-20.3l-21.6,59.1h-6.6l33.7-92.3h6.6l-9.7,26.6
		c6.6-15.8,16.9-26.6,29.5-26.6c13.1,0,15.3,12.2,8.9,29.8c-0.8,2.1-1.6,4.2-2.6,6.1H538.7z M521.1,1171.7l3.2-9H500
		c-2.9,1.3-6.1,2.1-9.3,2.1c-2.4,0-4.7-0.3-6.3-1.1l-2.9,8.1H521.1z M498.3,1143.6c8.7-0.2,14.5-3.4,16.3-8.4
		c1.9-5.3-1.1-8.7-10-8.7s-14.5,3.4-16.4,8.7C486.3,1140.2,489.9,1143.5,498.3,1143.6z"/>
	<path d="M586.1,1138.3l-9.5,26.4c-8.1,22.1-18.9,33-31.9,33c-13.4,0-15.8-11-7.7-33l9.5-26.4c8.1-21.9,18.5-32.9,31.9-32.9
		C591.4,1105.4,594.1,1116.4,586.1,1138.3z M574.6,1151.5c3.5-9.5,2.4-18.5-6.4-18.5s-16.4,9-20,18.5c-3.4,9.5-2.4,18.7,6.4,18.7
		S571.3,1161,574.6,1151.5z"/>
	<path d="M577.7,1197.8h-6.6l41.1-112.8h6.6L577.7,1197.8z"/>
	<path d="M671.6,1085l-41.1,112.8h-6.6l12.1-33c-8.1,22.1-18.5,33-31.9,33c-13.1,0-15.8-11-7.7-33l9.5-26.4
		c8.1-21.9,18.9-32.9,31.9-32.9c13.2,0,15.8,10.8,7.9,32.4L665,1085H671.6z M627.7,1133c-8.9,0-16.4,9-20,18.5
		c-3.4,9.5-2.4,18.7,6.4,18.7s16.6-9.2,20-18.7C637.6,1142,636.5,1133,627.7,1133z"/>
	<path d="M712.4,1148c2.4-6.3,1.1-15-7.7-15s-16.4,9-20,18.5c-3.4,9.5-2.4,18.7,6.4,18.7s16.4-8.9,20-18.4v-0.2l7.4,16.1l-11,30H701
		l9.5-26.3c-5.6,15.5-16.1,26.3-29.3,26.3c-13.1,0-15.8-11-7.7-33l9.5-26.4c8.1-21.9,18.9-32.9,31.9-32.9c13.4,0,15.8,11,7.7,32.9
		l12.1-32.9h6.6l-11.4,31.3L712.4,1148z"/>
	<path d="M775.4,1138.3l-9.5,26.4c-8.1,22.1-18.9,33-31.9,33c-13.4,0-15.8-11-7.7-33l9.5-26.4c8.1-21.9,18.5-32.9,31.9-32.9
		C780.7,1105.4,783.5,1116.4,775.4,1138.3z M764,1151.5c3.5-9.5,2.4-18.5-6.4-18.5s-16.4,9-20,18.5c-3.4,9.5-2.4,18.7,6.4,18.7
		S760.6,1161,764,1151.5z"/>
	<path d="M821.7,1138.3l-21.6,59.5h-6.6l16.9-46.6c3.7-10.3,2.3-18.2-6.6-18.2s-16.1,7.9-19.8,18.2l-16.9,46.6h-6.6l33.7-92.3h6.6
		l-2.3,6c4.7-4,10-6,15.5-6C827.3,1105.4,829.7,1116.4,821.7,1138.3z"/>
	<path d="M894,1085l-41.1,112.8h-6.6l12.1-33c-8.1,22.1-18.5,33-31.9,33c-13.1,0-15.8-11-7.7-33l9.5-26.4
		c8.1-21.9,18.9-32.9,31.9-32.9c13.2,0,15.8,10.8,7.9,32.4l19.3-52.9H894z M850,1133c-8.9,0-16.4,9-20,18.5
		c-3.4,9.5-2.4,18.7,6.4,18.7s16.6-9.2,20-18.7C860,1142,858.9,1133,850,1133z"/>
	<path d="M902.1,1170.2h13.7l-10,27.6h-46.2l18-49.8h6.6l-8.1,22.2h13.5c-7.6-4-7.3-17.2-1.9-31.7c6.4-17.6,18.5-33,31.9-33
		c13.1,0,14.2,15.5,7.7,33C922,1153,912.5,1166.2,902.1,1170.2z M903.2,1150.4c8.5,0,15.5-6.1,17.6-11.9c2.3-6.1,0-11.9-8.9-11.9
		s-15.3,5.8-17.6,11.9C892.2,1144.3,894.6,1150.4,903.2,1150.4z"/>
	<path d="M973.6,1138.3l-21.6,59.5h-6.6l16.9-46.6c3.7-10.3,2.3-18.2-6.6-18.2s-16.1,7.9-19.8,18.2l-16.9,46.6h-6.6l33.7-92.3h6.6
		l-2.3,6c4.7-4,10-6,15.5-6C979.2,1105.4,981.7,1116.4,973.6,1138.3z"/>
	<path d="M1019.8,1138.3l-3.5,9.7l-7.7,3.2c3.5-9.5,2.3-18.2-6.6-18.2c-9,0-12.4,2.3-14.5,4c0,0,11.9,9.3,10.8,8.4
		c4.7,4,10.2,7.9,11,15.8c0.3,3.1-0.2,6.9-1.9,11.6v0.2l-9,24.8h-39.6l18-49.8h6.6l-8.1,22.2h26.3c2.4-9-1.8-13.4-6.8-17.4
		c-7.3-5.6-15.8-10.6-9.8-27.4c4.2-11.4,13.9-20,27.2-20C1025.2,1105.4,1027.9,1116.4,1019.8,1138.3z M998.1,1145.2l0.2,0.2
		L998.1,1145.2z"/>
	<path d="M1047.4,1170.2h13.7l-10,27.6h-46.2l18-49.8h6.6l-8.1,22.2h13.5c-7.6-4-7.3-17.2-1.9-31.7c6.4-17.6,18.5-33,31.9-33
		c13.1,0,14.2,15.5,7.7,33C1067.4,1153,1057.9,1166.2,1047.4,1170.2z M1048.5,1150.4c8.5,0,15.5-6.1,17.6-11.9
		c2.3-6.1,0-11.9-8.9-11.9s-15.3,5.8-17.6,11.9C1037.6,1144.3,1040,1150.4,1048.5,1150.4z"/>
	<path d="M1145,1085l-41.1,112.8h-6.6l12.1-33c-8.1,22.1-18.5,33-31.9,33c-13.1,0-15.8-11-7.7-33l9.5-26.4
		c8.1-21.9,18.9-32.9,31.9-32.9c13.2,0,15.8,10.8,7.9,32.4l19.3-52.9H1145z M1101.1,1133c-8.9,0-16.4,9-20,18.5
		c-3.4,9.5-2.4,18.7,6.4,18.7s16.6-9.2,20-18.7C1111,1142,1109.9,1133,1101.1,1133z"/>
	<path d="M1141.3,1197.8h-6.6l33.7-92.3h6.6L1141.3,1197.8z M1183.7,1086.7c-1.9,5.3-5.6,10.6-9.2,10.6s-3.4-5.3-1.5-10.6
		s5.6-10.6,9.2-10.6C1186,1076.1,1185.7,1081.4,1183.7,1086.7z"/>
	<path d="M1175.5,1139.6l-4.4,12.2c-3.5,9.5-2.4,18.4,6.4,18.4s16.4-8.9,21.3-22.2h6.6l-6,16.8c-8.1,22.1-18.5,33-31.9,33
		c-13.1,0-15.8-11-7.7-33l29-79.8h6.6l-9.8,27.1h39.6l-10,27.6H1175.5z"/>
	<path d="M1280.6,1105.4l-33.7,92.3h-6.6l11-30.1c-6.6,16.3-18.2,30.1-30.8,30.1c-13.1,0-14.2-15.5-7.7-33
		c5.2-14.5,14.7-27.7,25.1-31.7h-20.3l10.2-27.6H1280.6z M1236.9,1152.8c-8.5,0-15.5,6.1-17.6,11.9c-2.3,6.1,0,11.9,8.9,11.9
		s15.3-5.8,17.6-11.9C1247.9,1158.9,1245.8,1152.8,1236.9,1152.8z M1253.3,1162l10.5-29h-13.5
		C1257.4,1136.9,1257.5,1148.6,1253.3,1162z"/>
	<path d="M1260.1,1197.8h-6.6l41.1-112.8h6.6L1260.1,1197.8z"/>
	<path d="M1273.3,1197.8h-6.6l33.7-92.3h6.6L1273.3,1197.8z M1315.7,1086.7c-1.9,5.3-5.6,10.6-9.2,10.6s-3.4-5.3-1.5-10.6
		s5.6-10.6,9.2-10.6C1317.9,1076.1,1317.6,1081.4,1315.7,1086.7z"/>
	<path d="M1353.1,1105.4l-15.6,42.5h-6.6c2.3-5.8,1-15-7.6-15h-0.2h-0.2c-8.5,0.2-16.6,9.7-19.8,18.7s-2.1,18.4,6.4,18.4h0.2h0.2
		c8.5,0,16.3-9.2,19.7-18.2l1.9,12.9c-6.4,17.6-18.9,33-31.9,33c-13.4,0-14.2-15.5-7.7-33l9.5-26.3c6.4-17.6,18.5-33,31.9-33
		c5.5,0,8.9,2.7,10.5,7.4l2.7-7.4H1353.1z"/>
	<path d="M518.4,1440.9l-105.5,167.9h-12.6l16.1-167.9h12.3l-13.5,143.8l90.8-143.8H518.4z"/>
	<path d="M614.5,1440.9l-61.2,167.9h-12l20.2-55.4c-12,29.9-33.1,55.4-56.2,55.4c-23.7,0-25.5-28.1-14.1-60.1s34-60.1,57.7-60.1
		c22.9,0,25.8,25.2,16.1,54.8l33.1-90.5H526l-23.7,65.3h-12l28.1-77.3H614.5z M544.7,1500.7c-16.1,0-33.1,24.3-41.6,48
		c-8.8,24.3-9.7,48,6.4,48s32.8-23.7,41.6-48C559.7,1525,560.8,1500.7,544.7,1500.7z"/>
	<path d="M671.3,1500.7l-6.4,17.6h-12l6.4-17.6c6.4-17.3,4.1-33.1-12-33.1s-29.6,15.8-36,33.1L572,1608.8h-12l51.3-141.2h-12
		l10-26.7h24l-4.1,10.8c8.5-7.3,18.2-10.8,28.1-10.8C681.5,1440.9,685.9,1460.8,671.3,1500.7z"/>
	<path d="M656.1,1608.8h-12l61.2-167.9h12L656.1,1608.8z M733.1,1406.9c-3.5,9.7-10.3,19.3-16.7,19.3s-6.2-9.7-2.6-19.3
		s10.3-19.3,16.7-19.3C737.2,1387.6,736.6,1397.2,733.1,1406.9z"/>
	<path d="M825.1,1440.9l-61.2,167.9h-12l20.2-55.4c-12,29.9-33.1,55.4-56.2,55.4c-23.7,0-25.8-28.1-14.1-60.1
		c11.4-31.9,34-60.1,57.7-60.1c23.1,0,25.5,25.8,15.8,56l28.1-77.1H719l10-26.7H825.1z M749.8,1515.3c-15.5,0-30.2,17-36,33.4
		c-6.2,17-4.4,33.4,11.7,33.4s30.2-16.4,36.3-33.4C767.7,1532.3,765.9,1515.3,749.8,1515.3z"/>
	<path d="M899.2,1500.7l-17.3,48c-14.6,40.1-34.3,60.1-58,60.1c-24.3,0-28.7-19.9-14.1-60.1l-22,60.1h-12l74.7-205.1h12l-35.4,97
		c14.6-39.8,33.7-59.8,58-59.8C908.9,1440.9,913.9,1460.8,899.2,1500.7z M878.4,1524.7c6.4-17.3,4.4-33.7-11.7-33.7
		s-29.9,16.4-36.3,33.7c-6.2,17.3-4.4,34,11.7,34S872.3,1542,878.4,1524.7z"/>
	<path d="M884,1608.8h-12l74.7-205.1h12L884,1608.8z"/>
	<path d="M973.3,1558.7h24.9l-18.2,50.1H896l32.8-90.5h12l-14.6,40.4h24.6c-13.8-7.3-13.2-31.3-3.5-57.7
		c11.7-31.9,33.7-60.1,58-60.1c23.7,0,25.8,28.1,14.1,60.1C1009.7,1527.3,992.4,1551.3,973.3,1558.7z M975.4,1522.6
		c15.5,0,28.1-11.1,31.9-21.7c4.1-11.1,0-21.7-16.1-21.7s-27.8,10.5-31.9,21.7C955.5,1511.5,959.9,1522.6,975.4,1522.6z"/>
	<path d="M73.3,2007h118.9v12.7H53.5V1970h19.8V2007z M73.3,1960.5c0-17.6,19.3-33,59.5-33c39.2,0,59.5,15.5,59.5,33
		s-20.3,33-59.5,33C92.6,1993.5,73.3,1978,73.3,1960.5z M93.1,1960.5c0,10,14,20.3,39.6,20.3s39.6-10.3,39.6-20.3
		c0-10.3-13.1-20.5-39.6-20.5S93.1,1950.2,93.1,1960.5z"/>
	<path d="M373.6,2019.8h-28.7l-58.5-35l-55.9,35h-25.1l73.8-46.2l-2.1-1.3h-0.2l-71.5-44.8h28.8l58.3,35l55.9-35h25.1l-73.8,46.1
		l2.1,1.5h0.2L373.6,2019.8z"/>
	<path d="M396.7,1946.6v40.1c0,11.4,13.1,20.3,39.6,20.3s39.6-8.9,39.6-20.3V1970h19.8v16.8c0,22.1-19.3,33-59.5,33
		c-39.2,0-59.5-11-59.5-33V1907h19.8v27.1h118.9v12.6H396.7z"/>
	<path d="M535.4,2007h118.9v12.7H515.6V1970h19.8V2007z M535.4,1960.5c0-17.6,19.3-33,59.5-33c39.2,0,59.5,15.5,59.5,33
		s-20.3,33-59.5,33C554.7,1993.5,535.4,1978,535.4,1960.5z M555.2,1960.5c0,10,14,20.3,39.6,20.3s39.6-10.3,39.6-20.3
		c0-10.3-13.1-20.5-39.6-20.5S555.2,1950.2,555.2,1960.5z"/>
	<path d="M793.1,1960.3v59.5h-19.8v-59.5c0-12.1-13.1-20.3-39.6-20.3c-26.6,0-39.6,8.2-39.6,20.3v59.5h-19.8v-92.3H694v6
		c9.7-4,23.2-6,39.6-6C773.7,1927.4,793.1,1938.4,793.1,1960.3z"/>
	<path d="M931.8,1960.3V1907h19.8v112.8h-19.8v-33c0,22.1-19.3,33-59.5,33c-39.2,0-59.5-11-59.5-33v-26.4
		c0-21.9,20.3-32.9,59.5-32.9C912.5,1927.4,931.8,1938.4,931.8,1960.3z M912,1986.7v-26.4c0-11.6-13.1-20.3-39.6-20.3
		s-39.6,8.7-39.6,20.3v26.4c0,11.4,13.1,20.3,39.6,20.3S912,1998.2,912,1986.7z"/>
	<path d="M991.3,2007h118.9v12.7H971.4V1970h19.8V2007z M991.3,1960.5c0-17.6,19.3-33,59.5-33c39.2,0,59.5,15.5,59.5,33
		s-20.3,33-59.5,33C1010.6,1993.5,991.3,1978,991.3,1960.5z M1011.1,1960.5c0,10,14,20.3,39.6,20.3s39.6-10.3,39.6-20.3
		c0-10.3-13.1-20.5-39.6-20.5S1011.1,1950.2,1011.1,1960.5z"/>
	<path d="M1149.8,2007h118.9v12.7H1130V1970h19.8V2007z M1149.8,1960.5c0-17.6,19.3-33,59.5-33c39.2,0,59.5,15.5,59.5,33
		s-20.3,33-59.5,33C1169.1,1993.5,1149.8,1978,1149.8,1960.5z M1169.6,1960.5c0,10,14,20.3,39.6,20.3s39.6-10.3,39.6-20.3
		c0-10.3-13.1-20.5-39.6-20.5S1169.6,1950.2,1169.6,1960.5z"/>
	<path d="M56.6,2144h118.9v12.7H36.8V2107h19.8V2144z M56.6,2097.5c0-17.6,19.3-33,59.5-33c39.2,0,59.5,15.5,59.5,33
		s-20.3,33-59.5,33C75.9,2130.5,56.6,2115,56.6,2097.5z M76.4,2097.5c0,10,14,20.3,39.6,20.3s39.6-10.3,39.6-20.3
		c0-10.3-13.1-20.5-39.6-20.5S76.4,2087.2,76.4,2097.5z"/>
	<path d="M215.2,2144h118.9v12.7H195.3V2107h19.8V2144z M215.2,2097.5c0-17.6,19.3-33,59.5-33c39.2,0,59.5,15.5,59.5,33
		s-20.3,33-59.5,33C234.5,2130.5,215.2,2115,215.2,2097.5z M235,2097.5c0,10,14,20.3,39.6,20.3s39.6-10.3,39.6-20.3
		c0-10.3-13.1-20.5-39.6-20.5S235,2087.2,235,2097.5z"/>
	<path d="M373.7,2144h118.9v12.7H353.9V2107h19.8V2144z M373.7,2097.5c0-17.6,19.3-33,59.5-33c39.2,0,59.5,15.5,59.5,33
		s-20.3,33-59.5,33C393,2130.5,373.7,2115,373.7,2097.5z M393.5,2097.5c0,10,14,20.3,39.6,20.3s39.6-10.3,39.6-20.3
		c0-10.3-13.1-20.5-39.6-20.5S393.5,2087.2,393.5,2097.5z"/>
	<path d="M532.3,2144h118.9v12.7H512.4V2107h19.8V2144z M532.3,2097.5c0-17.6,19.3-33,59.5-33c39.2,0,59.5,15.5,59.5,33
		s-20.3,33-59.5,33C551.6,2130.5,532.3,2115,532.3,2097.5z M552.1,2097.5c0,10,14,20.3,39.6,20.3s39.6-10.3,39.6-20.3
		c0-10.3-13.1-20.5-39.6-20.5S552.1,2087.2,552.1,2097.5z"/>
	<path d="M690.8,2144h118.9v12.7H671V2107h19.8V2144z M690.8,2097.5c0-17.6,19.3-33,59.5-33c39.2,0,59.5,15.5,59.5,33
		s-20.3,33-59.5,33C710.2,2130.5,690.8,2115,690.8,2097.5z M710.6,2097.5c0,10,14,20.3,39.6,20.3s39.6-10.3,39.6-20.3
		c0-10.3-13.1-20.5-39.6-20.5S710.6,2087.2,710.6,2097.5z"/>
	<path d="M849.4,2144h118.9v12.7H829.6V2107h19.8V2144z M849.4,2097.5c0-17.6,19.3-33,59.5-33c39.2,0,59.5,15.5,59.5,33
		s-20.3,33-59.5,33C868.7,2130.5,849.4,2115,849.4,2097.5z M869.2,2097.5c0,10,14,20.3,39.6,20.3s39.6-10.3,39.6-20.3
		c0-10.3-13.1-20.5-39.6-20.5S869.2,2087.2,869.2,2097.5z"/>
	<path d="M1007.9,2144h118.9v12.7H988.1V2107h19.8V2144z M1007.9,2097.5c0-17.6,19.3-33,59.5-33c39.2,0,59.5,15.5,59.5,33
		s-20.3,33-59.5,33C1027.3,2130.5,1007.9,2115,1007.9,2097.5z M1027.7,2097.5c0,10,14,20.3,39.6,20.3s39.6-10.3,39.6-20.3
		c0-10.3-13.1-20.5-39.6-20.5S1027.7,2087.2,1027.7,2097.5z"/>
	<path d="M1166.5,2144h118.9v12.7h-138.7V2107h19.8V2144z M1166.5,2097.5c0-17.6,19.3-33,59.5-33c39.2,0,59.5,15.5,59.5,33
		s-20.3,33-59.5,33C1185.8,2130.5,1166.5,2115,1166.5,2097.5z M1186.3,2097.5c0,10,14,20.3,39.6,20.3s39.6-10.3,39.6-20.3
		c0-10.3-13.1-20.5-39.6-20.5S1186.3,2087.2,1186.3,2097.5z"/>
	<path d="M56.6,2281h118.9v12.7H36.8V2244h19.8V2281z M56.6,2234.5c0-17.6,19.3-33,59.5-33c39.2,0,59.5,15.5,59.5,33
		s-20.3,33-59.5,33C75.9,2267.5,56.6,2252,56.6,2234.5z M76.4,2234.5c0,10,14,20.3,39.6,20.3s39.6-10.3,39.6-20.3
		c0-10.3-13.1-20.5-39.6-20.5S76.4,2224.2,76.4,2234.5z"/>
	<path d="M215.2,2281h118.9v12.7H195.3V2244h19.8V2281z M215.2,2234.5c0-17.6,19.3-33,59.5-33c39.2,0,59.5,15.5,59.5,33
		s-20.3,33-59.5,33C234.5,2267.5,215.2,2252,215.2,2234.5z M235,2234.5c0,10,14,20.3,39.6,20.3s39.6-10.3,39.6-20.3
		c0-10.3-13.1-20.5-39.6-20.5S235,2224.2,235,2234.5z"/>
	<path d="M373.7,2281h118.9v12.7H353.9V2244h19.8V2281z M373.7,2234.5c0-17.6,19.3-33,59.5-33c39.2,0,59.5,15.5,59.5,33
		s-20.3,33-59.5,33C393,2267.5,373.7,2252,373.7,2234.5z M393.5,2234.5c0,10,14,20.3,39.6,20.3s39.6-10.3,39.6-20.3
		c0-10.3-13.1-20.5-39.6-20.5S393.5,2224.2,393.5,2234.5z"/>
	<path d="M532.3,2281h118.9v12.7H512.4V2244h19.8V2281z M532.3,2234.5c0-17.6,19.3-33,59.5-33c39.2,0,59.5,15.5,59.5,33
		s-20.3,33-59.5,33C551.6,2267.5,532.3,2252,532.3,2234.5z M552.1,2234.5c0,10,14,20.3,39.6,20.3s39.6-10.3,39.6-20.3
		c0-10.3-13.1-20.5-39.6-20.5S552.1,2224.2,552.1,2234.5z"/>
	<path d="M690.8,2281h118.9v12.7H671V2244h19.8V2281z M690.8,2234.5c0-17.6,19.3-33,59.5-33c39.2,0,59.5,15.5,59.5,33
		s-20.3,33-59.5,33C710.2,2267.5,690.8,2252,690.8,2234.5z M710.6,2234.5c0,10,14,20.3,39.6,20.3s39.6-10.3,39.6-20.3
		c0-10.3-13.1-20.5-39.6-20.5S710.6,2224.2,710.6,2234.5z"/>
	<path d="M849.4,2281h118.9v12.7H829.6V2244h19.8V2281z M849.4,2234.5c0-17.6,19.3-33,59.5-33c39.2,0,59.5,15.5,59.5,33
		s-20.3,33-59.5,33C868.7,2267.5,849.4,2252,849.4,2234.5z M869.2,2234.5c0,10,14,20.3,39.6,20.3s39.6-10.3,39.6-20.3
		c0-10.3-13.1-20.5-39.6-20.5S869.2,2224.2,869.2,2234.5z"/>
	<path d="M1007.9,2281h118.9v12.7H988.1V2244h19.8V2281z M1007.9,2234.5c0-17.6,19.3-33,59.5-33c39.2,0,59.5,15.5,59.5,33
		s-20.3,33-59.5,33C1027.3,2267.5,1007.9,2252,1007.9,2234.5z M1027.7,2234.5c0,10,14,20.3,39.6,20.3s39.6-10.3,39.6-20.3
		c0-10.3-13.1-20.5-39.6-20.5S1027.7,2224.2,1027.7,2234.5z"/>
	<path d="M1265.6,2234.3V2181h19.8v112.8h-19.8v-33c0,22.1-19.3,33-59.5,33c-39.2,0-59.5-11-59.5-33v-26.4
		c0-21.9,20.3-32.9,59.5-32.9C1246.2,2201.4,1265.6,2212.4,1265.6,2234.3z M1245.8,2260.7v-26.4c0-11.6-13.1-20.3-39.6-20.3
		s-39.6,8.7-39.6,20.3v26.4c0,11.4,13.1,20.3,39.6,20.3S1245.8,2272.2,1245.8,2260.7z"/>
	<path d="M162.2,2645.3v59.5c-1.1,0-3.2,0-6.6,0v-59.5c0-17.6-4.4-26.3-13.2-26.3s-13.2,8.7-13.2,26.3v10c0,17.6,0,16.4,0,31.7h-6.6
		c0-11.3,0-32.5,0-61.4H82.9c0,12.1,0,27.2,0,46.1c0,20.8,13.2,29.6,28.5,29.6s28.5-8.9,28.5-29.6V2655c1.1,0,3.2,0,6.6,0v16.8
		c0,25.3-15.3,36.3-35.1,36.3c-19.5,0-35.1-11-35.1-36.3V2592c1.1,0,3.4,0,6.6,0v27.1c5.6,0,23.2,0,39.6,0V2592c2.3,0,3.4,0,3.4,0
		h3.2c0,5,0,15.1,0,26.4c3.2-4,7.7-6,13.2-6C155.8,2612.4,162.2,2623.4,162.2,2645.3z"/>
	<path d="M175.4,2698.2h39.6v6.6h-46.2V2655h6.6V2698.2z M175.4,2645.5c0-17.6,6.4-33,19.8-33c13.1,0,19.8,15.5,19.8,33
		s-6.8,33-19.8,33C181.9,2678.5,175.4,2663,175.4,2645.5z M182,2645.5c0,13.1,4.7,26.4,13.2,26.4s13.2-13.4,13.2-26.4
		c0-13.4-4.4-26.4-13.2-26.4S182,2632.1,182,2645.5z"/>
	<path d="M272.8,2612.4l-20.9,79.4l-2.4,9l-1,3.9c-5.8,22.1-10.6,33-22.2,33c-13.4,0-17.7-11-17.7-33h6.6c0,17.6,2.3,26.4,11.1,26.4
		c7.4,0,9.7-8.9,15.3-26.4l-24.8-92.3h6.8l21.4,79.1l21.1-79.1H272.8z"/>
	<path d="M768.9,2698.2v6.6h-46.2v-59.5c0-11.4-5-19.8-12.4-23.8c-4.5-2.4-9.5-3.2-14-2.6v35.3c8.1,5,16.1,10.8,16.1,25.6
		c0,14-10.2,25-26.4,25c-13.4,0-26.4-11-26.4-33V2655h6.6v16.8c0,17.4,11,26.4,19.8,26.4c1.3,0,2.6-0.2,3.7-0.3v-39.6
		c-8.4-5-16.9-10.6-16.9-25.8c0-9.3,7.6-16,16.9-18.7V2592c2.3,0,3.4,0,3.4,0h3.2c0,4.2,0,11.6,0,20.3c7.1-0.8,14.3,0.5,19.7,4
		c8.5,5.2,13.4,15.6,13.4,29v52.9H768.9z M689.6,2620.7c-3.1,1.3-5.8,3.4-7.6,6c-3.4,4.5-3.9,10.5,0.3,16.8c1.9,2.7,4.4,4.8,7.3,6.8
		V2620.7z M696.2,2662.4v33.2c6-3.2,9.5-9.3,9.5-15.8C705.7,2670.9,701.5,2666.3,696.2,2662.4z M735.9,2645.5c0-17.6,6.4-33,19.8-33
		c13.1,0,19.8,15.5,19.8,33s-6.8,33-19.8,33C742.3,2678.5,735.9,2663,735.9,2645.5z M742.5,2645.5c0,13.1,4.7,26.4,13.2,26.4
		c8.5,0,13.2-13.4,13.2-26.4c0-13.4-4.4-26.4-13.2-26.4C746.8,2619,742.5,2632.1,742.5,2645.5z"/>
	<path d="M1201.5,2593.7c0,5.3-1.8,10.6-5.3,10.6s-5.3-5.3-5.3-10.6s1.8-10.6,5.3-10.6C1199.9,2583.1,1201.5,2588.4,1201.5,2593.7z
		 M1199.6,2655h-6.6v-42.5h6.6V2655z M1199.6,2655h6.6v43.2h39.6v6.6h-0.2h-46.1V2655z M1245.8,2645.5c0-17.6-6.8-33-19.8-33
		c-13.4,0-19.8,15.5-19.8,33s6.4,33,19.8,33C1239.1,2678.5,1245.8,2663,1245.8,2645.5z M1225.9,2671.9c-8.5-0.2-13.1-13.4-13.1-26.4
		c0-13.4,4.4-26.4,13.2-26.4s13.2,13.1,13.2,26.4c0,13.1-4.5,26.3-13.1,26.4h-0.2C1225.9,2671.9,1225.9,2671.9,1225.9,2671.9z
		 M1259.1,2704.8h-6.6V2592h6.6V2704.8z"/>
	<path d="M105.7,2730.7c0,5.3-5.3,10.6-16,10.6s-16-5.3-16-10.6s5.3-10.6,16-10.6C100.9,2720.1,105.7,2725.4,105.7,2730.7z
		 M99.9,2792H80.1v-42.5h19.8V2792z M99.9,2792h19.8v37.1h118.9v12.7h-0.5H99.9V2792z M238.7,2782.5c0-17.6-20.3-33-59.5-33
		c-40.1,0-59.5,15.5-59.5,33s19.3,33,59.5,33C218.4,2815.5,238.7,2800,238.7,2782.5z M178.7,2802.8c-25.6-0.2-39.2-11-39.2-20.3
		c0-9.8,13.1-20.5,39.6-20.5s39.6,10.6,39.6,20.5c0,9.3-13.5,20.3-39.2,20.3h-0.5C178.7,2802.8,178.7,2802.8,178.7,2802.8z
		 M278.3,2841.8h-19.8V2729h19.8V2841.8z"/>
	<path d="M619.8,2829v12.7H481v-59.5c0-8.2-15-15-37.2-17.9c-13.7-1.8-28.5-2.6-42.1-2.3v28.8c24.3,5,48.3,11,48.3,25.8
		c0,14-30.5,25-79.3,25c-40.1,0-79.3-11-79.3-33V2792h19.8v16.8c0,13.2,32.9,20.3,59.5,20.3c3.9,0,7.6,0,11.1-0.2v-33.7
		c-25.1-5-50.8-10.6-50.8-25.8c0-9.3,22.7-16,50.8-18.7V2729c6.8,0,10.2,0,10.2,0h9.7c0,4.2,0,11.6,0,20.3c21.1-0.8,43,0.5,59,4
		c25.6,5.2,40.1,15.6,40.1,29v46.7H619.8z M381.9,2763.6c-9.7,1.3-17.6,3.2-22.7,6c-8.4,2.9-9.5,7.6,1,10.8
		c5.6,2.7,13.2,4.7,21.8,6.6V2763.6z M401.7,2799.4v28c18-2.1,28.5-6.1,28.5-10.6C430.3,2807.9,417.9,2803.3,401.7,2799.4z
		 M639.6,2782.5c0,17.6-20.3,33-59.5,33c-40.1,0-59.5-15.5-59.5-33s19.3-33,59.5-33C619.3,2749.4,639.6,2764.9,639.6,2782.5z
		 M619.8,2782.5c0-9.8-13.1-20.5-39.6-20.5s-39.6,10.6-39.6,20.5c0,9.3,14,20.3,39.6,20.3S619.8,2791.8,619.8,2782.5z"/>
	<path d="M917,2782.3v59.5c-3.4,0-9.7,0-19.8,0v-59.5c0-11.6-13.1-20.3-39.6-20.3s-39.6,8.7-39.6,20.3v10c0,17.6,0,16.4,0,31.7
		h-19.8c0-10.5,0-29.5,0-55.4H679.2c0,11.6,0,25.1,0,40.1c0,14.7,39.6,23.5,85.6,23.5s85.6-8.9,85.6-23.5V2792c3.4,0,9.7,0,19.8,0
		v16.8c0,25.3-45.9,36.3-105.4,36.3c-58.5,0-105.4-11-105.4-36.3V2729c3.4,0,10.2,0,19.8,0v27.1c16.9,0,69.6,0,118.9,0V2729
		c6.8,0,10.2,0,10.2,0h9.7c0,5,0,15.1,0,26.4c9.7-4,23-6,39.6-6C897.7,2749.4,917,2760.4,917,2782.3z"/>
	<path d="M956.7,2829h118.9v12.7H936.9V2792h19.8V2829z M956.7,2782.5c0-17.6,19.3-33,59.5-33c39.2,0,59.5,15.5,59.5,33
		s-20.3,33-59.5,33C976,2815.5,956.7,2800,956.7,2782.5z M976.5,2782.5c0,10,14,20.3,39.6,20.3s39.6-10.3,39.6-20.3
		c0-10.3-13.1-20.5-39.6-20.5S976.5,2772.2,976.5,2782.5z"/>
	<path d="M1261.9,2749.4l-62.8,79.4l-7.3,9l-2.9,3.9c-17.4,22.1-31.9,33-66.7,33c-40.1,0-53.2-11-53.2-33h19.8
		c0,11.6,6.8,20.5,33.4,20.5c22.2,0,29.8-5.3,45.9-20.5l-74.4-92.3h24l64.5,74.3l59.5-74.3H1261.9z"/>
</g>
</svg>
